<?xml version="1.0" encoding="utf-8"?>
<!-- Generator: Adobe Illustrator 16.0.0, SVG Export Plug-In . SVG Version: 6.00 Build 0)  -->
<!DOCTYPE svg PUBLIC "-//W3C//DTD SVG 1.1//EN" "http://www.w3.org/Graphics/SVG/1.1/DTD/svg11.dtd">
<svg version="1.1" id="Capa_1" xmlns="http://www.w3.org/2000/svg" xmlns:xlink="http://www.w3.org/1999/xlink" x="0px" y="0px"
	 width="356.989px" height="267.742px" viewBox="0 0 356.989 267.742" enable-background="new 0 0 356.989 267.742"
	 xml:space="preserve">
<linearGradient id="SVGID_1_" gradientUnits="userSpaceOnUse" x1="186.9219" y1="223.7148" x2="186.9219" y2="16.6017" gradientTransform="matrix(0.9998 0.0219 -0.0219 0.9998 1.0545 -3.731)">
	<stop  offset="0" style="stop-color:#FFFFFF;stop-opacity:0"/>
	<stop  offset="0.0108" style="stop-color:#FFFFFF;stop-opacity:0.0086"/>
	<stop  offset="1" style="stop-color:#FFFFFF;stop-opacity:0.8"/>
</linearGradient>
<path fill="url(#SVGID_1_)" d="M178.249,223.257c-44.393-23.744-63.1-71.723-57.142-111.086
	c7.529-49.735,42.001-100.923,68.859-103.869c2.824-0.31,4.957,0.01,7.335,0.32c33.077,4.313,53.915,89.851,53.041,117.919
	c-1.474,47.396-37.175,73.453-60.966,94.942"/>
<g>
	<path fill="#FFFFFF" d="M182.904,74.325c-1.709,6.04-3.24,12.119-4.55,18.253c-0.651,3.066-1.278,6.139-1.829,9.225
		c-0.57,3.082-1.073,6.176-1.544,9.275c-0.468,3.099-0.879,6.206-1.258,9.316l-0.521,4.671l-0.449,4.678l-0.376,4.685l-0.304,4.688
		l-0.231,4.693l-0.157,4.695c-0.071,3.131-0.109,6.263-0.093,9.395c0.025,3.131,0.081,6.262,0.203,9.391
		c0.119,3.127,0.268,6.255,0.499,9.377c0.2,3.123,0.484,6.24,0.794,9.354c0.307,3.114,0.695,6.22,1.09,9.323
		c0.44,3.098,0.884,6.195,1.415,9.277c0.241,1.546,0.536,3.082,0.818,4.62c0.279,1.539,0.565,3.076,0.892,4.606
		c0.604,3.068,1.308,6.115,2,9.164l0.523,2.307l-2.086-1.109c-9.722-5.17-18.719-11.738-26.539-19.521s-14.451-16.762-19.623-26.518
		c-5.179-9.752-8.93-20.266-11.07-31.113c-2.132-10.846-2.645-22.041-1.269-33.053c1.416-10.969,4.14-21.685,7.729-32.096
		c3.612-10.402,8.128-20.489,13.531-30.099c5.421-9.591,11.683-18.769,19.217-26.948c3.782-4.068,7.867-7.911,12.466-11.188
		c4.584-3.252,9.728-6.038,15.548-7.19c0.736-0.155,1.428-0.239,2.234-0.337c0.352-0.028,0.651-0.068,1.045-0.087
		c0.389-0.014,0.801-0.045,1.171-0.04c1.505-0.015,2.983,0.132,4.359,0.302l1.021,0.127l1.092,0.178
		c0.627,0.077,1.48,0.319,2.221,0.491c1.443,0.429,2.854,0.926,4.181,1.582c2.679,1.269,5.106,2.928,7.298,4.79
		c2.199,1.86,4.188,3.911,6.021,6.064c3.662,4.315,6.725,9.018,9.466,13.856c2.736,4.845,5.116,9.853,7.295,14.932
		c4.327,10.172,7.745,20.669,10.593,31.302c2.794,10.648,5.103,21.431,6.377,32.436c0.316,2.752,0.567,5.52,0.715,8.313
		c0.064,1.399,0.119,2.8,0.113,4.219c0.007,0.729-0.012,1.371-0.036,2.188l-0.115,2.042l-0.115,2.042l-0.206,2.112
		c-0.139,1.415-0.281,2.829-0.514,4.205c-0.206,1.387-0.401,2.775-0.699,4.146c-0.271,1.376-0.529,2.754-0.891,4.111
		c-2.583,10.934-7.433,21.24-13.606,30.492c-6.199,9.265-13.7,17.494-21.64,25.097c-3.979,3.798-8.073,7.45-12.194,11.044
		l-12.382,10.67l-2.371,2.041l-0.482-3.013c-0.605-3.772-1.085-7.496-1.543-11.249c-0.436-3.748-0.834-7.498-1.176-11.252
		c-0.348-3.755-0.625-7.514-0.894-11.272l-0.331-5.644c-0.119-1.879-0.175-3.764-0.25-5.646c-0.076-1.882-0.139-3.765-0.164-5.648
		l-0.104-5.649l-0.005-5.648c-0.018-1.883,0.029-3.766,0.066-5.648c0.045-1.881,0.059-3.764,0.127-5.645l0.238-5.641
		c0.07-1.881,0.203-3.758,0.342-5.635l0.4-5.627l0.499,0.03l-0.142,5.632c-0.053,1.875-0.1,3.752-0.084,5.629l-0.027,5.629
		c0.002,1.875,0.055,3.752,0.08,5.627c0.031,1.875,0.053,3.75,0.139,5.625l0.21,5.621l0.31,5.615
		c0.093,1.873,0.224,3.742,0.369,5.611c0.15,1.869,0.244,3.74,0.414,5.607l0.475,5.601c0.363,3.729,0.736,7.458,1.18,11.177
		c0.436,3.721,0.928,7.433,1.457,11.138c0.549,3.694,1.128,7.412,1.808,11.045l-2.853-0.972
		c8.036-7.453,16.316-14.512,24.018-22.109c7.685-7.594,14.833-15.711,20.636-24.688c5.803-8.965,10.13-18.807,12.576-29.117
		c0.337-1.281,0.573-2.586,0.823-3.887c0.277-1.295,0.454-2.609,0.643-3.92c0.217-1.315,0.34-2.616,0.462-3.915l0.188-1.958
		l0.105-2.042c0.358-5.239-0.1-10.542-0.711-15.882c-1.32-10.659-3.43-21.293-6.146-31.746
		c-2.727-10.453-6.067-20.753-10.176-30.703c-2.076-4.962-4.343-9.84-6.93-14.518c-2.59-4.67-5.475-9.17-8.839-13.206
		c-3.364-4-7.231-7.632-11.736-9.81c-1.111-0.567-2.283-0.981-3.445-1.344l-0.837-0.213c-0.144-0.035-0.269-0.076-0.427-0.108
		l-0.504-0.088l-0.925-0.162l-1.008-0.137c-1.327-0.178-2.567-0.311-3.791-0.313c-0.312-0.009-0.581,0.014-0.874,0.017
		c-0.287,0.007-0.664,0.049-0.992,0.071c-0.547,0.066-1.213,0.135-1.811,0.26c-4.932,0.917-9.664,3.354-13.964,6.355
		c-4.318,3.017-8.271,6.637-11.934,10.528c-7.318,7.82-13.512,16.734-18.885,26.08c-5.359,9.366-9.868,19.234-13.489,29.411
		c-3.596,10.175-6.35,20.696-7.806,31.358c-1.41,10.63-1,21.506,0.995,32.074c2.004,10.571,5.582,20.851,10.563,30.403
		c4.973,9.557,11.384,18.371,18.965,26.037c7.566,7.685,16.306,14.203,25.793,19.371l-1.562,1.197
		c-0.664-3.081-1.339-6.158-1.914-9.256c-0.311-1.545-0.583-3.096-0.847-4.648c-0.268-1.553-0.547-3.102-0.772-4.661
		c-0.5-3.11-0.912-6.231-1.321-9.354c-0.364-3.128-0.719-6.256-0.993-9.393c-0.278-3.136-0.529-6.274-0.696-9.418
		c-0.197-3.141-0.313-6.287-0.397-9.433c-0.088-3.146-0.109-6.293-0.099-9.438c0.019-3.146,0.091-6.293,0.198-9.436l0.21-4.715
		l0.284-4.709l0.357-4.704l0.429-4.697l0.502-4.69l0.575-4.681c0.415-3.117,0.861-6.229,1.365-9.332
		c0.507-3.103,1.046-6.2,1.651-9.284c0.586-3.088,1.248-6.161,1.935-9.228c1.379-6.129,2.984-12.216,4.76-18.237L182.904,74.325z"/>
</g>
<linearGradient id="SVGID_2_" gradientUnits="userSpaceOnUse" x1="217.2969" y1="233.3818" x2="354.0444" y2="182.5311" gradientTransform="matrix(0.9998 0.0219 -0.0219 0.9998 1.0545 -3.731)">
	<stop  offset="0" style="stop-color:#FFFFFF;stop-opacity:0"/>
	<stop  offset="0.0108" style="stop-color:#FFFFFF;stop-opacity:0.0086"/>
	<stop  offset="1" style="stop-color:#FFFFFF;stop-opacity:0.8"/>
</linearGradient>
<path fill="url(#SVGID_2_)" d="M216.046,234.351c2.404-33.805,25.477-57.936,51.307-65.082c32.633-9.026,73.559-1.893,82.743,13.805
	c0.966,1.65,1.354,3.049,1.817,4.598c6.431,21.512-40.423,57.803-57.91,64.973c-29.535,12.104-54.071-3.218-73.813-11.942"/>
<g>
	<path fill="#FFFFFF" d="M307.588,196.94c-8.241,1.205-16.396,2.93-24.412,5.154c-2.004,0.555-3.997,1.147-5.983,1.761
		c-1.983,0.621-3.957,1.272-5.923,1.948c-1.962,0.686-3.914,1.398-5.856,2.137c-1.938,0.746-3.866,1.521-5.784,2.318
		c-1.912,0.812-3.815,1.643-5.704,2.506c-1.885,0.871-3.762,1.76-5.619,2.688c-1.856,0.928-3.704,1.873-5.527,2.865
		c-1.833,0.974-3.638,1.998-5.433,3.039c-1.797,1.036-3.566,2.121-5.331,3.209c-1.753,1.109-3.499,2.228-5.218,3.389
		c-1.719,1.16-3.43,2.331-5.105,3.553c-1.69,1.2-3.339,2.457-4.994,3.705l-1.886,1.422l0.156-2.36
		c0.489-7.374,1.965-14.704,4.5-21.678c2.538-6.968,6.132-13.563,10.642-19.474c8.995-11.822,21.688-20.924,36.051-25.186
		c7.131-2.098,14.455-3.344,21.825-3.98c7.372-0.621,14.796-0.603,22.175,0.083c7.372,0.708,14.725,2.04,21.837,4.436
		c3.547,1.215,7.048,2.671,10.355,4.622c3.29,1.945,6.465,4.379,8.845,7.738c0.308,0.426,0.552,0.832,0.851,1.33
		c0.116,0.212,0.214,0.365,0.345,0.627c0.122,0.246,0.266,0.512,0.365,0.744c0.438,0.957,0.765,1.935,1.041,2.828l0.203,0.658
		l0.198,0.741c0.121,0.389,0.225,1.032,0.324,1.56c0.145,1.049,0.229,2.082,0.194,3.111c-0.089,4.135-1.396,7.936-3.017,11.41
		c-3.341,6.947-8.059,12.844-13.061,18.336c-5.034,5.48-10.53,10.461-16.254,15.143c-2.867,2.336-5.804,4.586-8.813,6.743
		c-3.006,2.163-6.09,4.226-9.295,6.135c-3.218,1.896-6.477,3.736-10.153,5.137c-0.873,0.317-1.658,0.661-2.604,0.956
		c-0.919,0.292-1.843,0.629-2.759,0.878c-1.826,0.53-3.676,0.979-5.544,1.345c-7.48,1.484-15.232,1.327-22.642-0.018
		c-7.436-1.323-14.516-3.853-21.284-6.795c-6.777-2.943-13.271-6.334-19.801-9.426l-2.813-1.332l2.521-1.658
		c2.123-1.397,4.23-2.682,6.371-3.968c2.143-1.267,4.295-2.513,6.469-3.719c2.169-1.214,4.362-2.382,6.559-3.54
		c2.209-1.137,4.412-2.281,6.655-3.348c1.114-0.547,2.24-1.07,3.369-1.586l3.386-1.547l3.41-1.49
		c1.131-0.508,2.285-0.965,3.43-1.441c1.148-0.467,2.286-0.959,3.443-1.404l3.469-1.338c2.313-0.887,4.671-1.659,7.001-2.492
		l0.176,0.467c-2.265,0.993-4.551,1.924-6.79,2.965l-3.372,1.525c-1.124,0.506-2.229,1.059-3.343,1.586
		c-1.11,0.537-2.229,1.053-3.325,1.619l-3.3,1.667l-3.271,1.721c-1.091,0.572-2.177,1.153-3.251,1.757l-3.237,1.777l-3.215,1.814
		c-2.13,1.234-4.254,2.477-6.352,3.761c-2.102,1.276-4.179,2.592-6.241,3.925c-2.047,1.342-4.109,2.716-6.063,4.115l-0.291-2.99
		c6.797,2.843,13.337,6.031,20.023,8.717c6.683,2.658,13.495,4.905,20.462,6.019c6.958,1.13,14.033,1.065,20.874-0.295
		c1.709-0.348,3.402-0.771,5.076-1.268c0.843-0.234,1.63-0.534,2.448-0.795c0.797-0.246,1.686-0.636,2.524-0.946
		c3.142-1.209,6.268-2.97,9.313-4.794c6.082-3.727,11.982-7.886,17.587-12.388c5.609-4.498,10.959-9.329,15.879-14.517
		c4.874-5.196,9.424-10.799,12.493-16.995c1.499-3.084,2.615-6.351,2.714-9.54c0.041-0.794-0.021-1.585-0.11-2.343
		c-0.076-0.367-0.077-0.633-0.216-1.121l-0.145-0.582l-0.189-0.652c-0.248-0.852-0.492-1.609-0.803-2.317
		c-0.075-0.188-0.152-0.323-0.226-0.488c-0.066-0.149-0.206-0.387-0.306-0.575c-0.169-0.285-0.385-0.668-0.611-0.981
		c-1.806-2.646-4.493-4.843-7.439-6.629c-2.954-1.8-6.199-3.225-9.536-4.403c-6.696-2.342-13.78-3.719-20.91-4.482
		c-7.139-0.744-14.359-0.844-21.531-0.321c-7.163,0.538-14.309,1.675-21.199,3.618c-13.695,3.891-25.996,12.467-34.781,23.752
		c-4.406,5.64-7.943,11.962-10.478,18.669c-2.553,6.704-4.094,13.79-4.678,20.962l-1.729-0.938c1.693-1.234,3.381-2.476,5.109-3.661
		c1.714-1.206,3.462-2.361,5.218-3.504c1.755-1.144,3.537-2.243,5.325-3.334c1.801-1.069,3.604-2.134,5.435-3.149
		c1.828-1.02,3.666-2.023,5.53-2.975c1.854-0.97,3.734-1.892,5.621-2.796s3.792-1.768,5.706-2.613
		c1.917-0.838,3.847-1.644,5.785-2.428c1.944-0.771,3.897-1.52,5.86-2.237c1.967-0.71,3.942-1.394,5.926-2.051
		c1.988-0.646,3.983-1.269,5.987-1.86c2.007-0.583,4.019-1.145,6.041-1.669c8.087-2.101,16.303-3.695,24.579-4.766L307.588,196.94z"
		/>
</g>
<linearGradient id="SVGID_3_" gradientUnits="userSpaceOnUse" x1="147.8877" y1="233.8984" x2="19.3868" y2="182.3604" gradientTransform="matrix(0.9998 0.0219 -0.0219 0.9998 1.0545 -3.731)">
	<stop  offset="0" style="stop-color:#FFFFFF;stop-opacity:0"/>
	<stop  offset="0.0108" style="stop-color:#FFFFFF;stop-opacity:0.0086"/>
	<stop  offset="1" style="stop-color:#FFFFFF;stop-opacity:0.8"/>
</linearGradient>
<path fill="url(#SVGID_3_)" d="M144.278,232.778c-0.921-33.878-22.915-58.996-48.406-67.268
	c-32.208-10.447-73.406-5.114-83.269,10.166c-1.037,1.607-1.487,2.987-2.018,4.514c-7.366,21.209,37.852,59.518,55.009,67.448
	c28.976,13.387,54.161-0.847,74.264-8.698"/>
<g>
	<path fill="#FFFFFF" d="M54.554,190.901c8.221,1.433,16.359,3.386,24.347,5.838c1.998,0.612,3.983,1.262,5.962,1.933
		c1.977,0.679,3.942,1.388,5.899,2.12c1.954,0.744,3.897,1.513,5.831,2.309c1.93,0.805,3.848,1.637,5.756,2.492
		c1.902,0.869,3.795,1.758,5.674,2.679c1.875,0.929,3.74,1.876,5.586,2.86c1.845,0.986,3.682,1.99,5.493,3.04
		c1.82,1.032,3.613,2.116,5.394,3.214c1.785,1.096,3.54,2.238,5.292,3.385c1.738,1.168,3.471,2.346,5.174,3.564
		c1.704,1.219,3.4,2.449,5.06,3.729c1.674,1.26,3.306,2.575,4.944,3.883l-1.769,0.861c-0.27-7.191-1.499-14.338-3.755-21.146
		c-2.239-6.813-5.495-13.283-9.65-19.111c-8.282-11.659-20.196-20.766-33.708-25.252c-6.798-2.244-13.887-3.693-21.021-4.545
		c-7.142-0.836-14.359-1.053-21.525-0.621c-7.156,0.449-14.294,1.515-21.086,3.561c-3.385,1.032-6.689,2.313-9.719,3.982
		c-3.022,1.654-5.804,3.731-7.723,6.297c-0.24,0.303-0.473,0.676-0.654,0.952c-0.107,0.185-0.257,0.415-0.33,0.562
		c-0.081,0.163-0.164,0.294-0.247,0.479c-0.341,0.693-0.619,1.441-0.904,2.281l-0.218,0.642l-0.17,0.576
		c-0.16,0.481-0.172,0.747-0.265,1.109c-0.122,0.755-0.218,1.541-0.212,2.336c-0.042,3.191,0.93,6.504,2.293,9.649
		c2.795,6.326,7.095,12.123,11.737,17.527c4.688,5.398,9.821,10.458,15.228,15.198c5.403,4.742,11.115,9.157,17.028,13.146
		c2.963,1.957,6.009,3.854,9.095,5.199c0.824,0.347,1.695,0.774,2.48,1.055c0.806,0.297,1.58,0.631,2.412,0.901
		c1.65,0.571,3.324,1.067,5.015,1.489c6.775,1.659,13.841,2.033,20.841,1.209c7.009-0.807,13.914-2.753,20.707-5.116
		c6.797-2.39,13.471-5.289,20.386-7.831l-0.422,2.975c-1.891-1.484-3.891-2.947-5.877-4.377c-2.002-1.422-4.02-2.826-6.063-4.194
		c-2.039-1.376-4.106-2.71-6.18-4.035l-3.132-1.954l-3.157-1.918c-1.046-0.65-2.106-1.277-3.17-1.896l-3.193-1.863l-3.224-1.81
		c-1.069-0.614-2.165-1.179-3.25-1.763c-1.09-0.576-2.169-1.176-3.271-1.73l-3.301-1.673c-2.191-1.138-4.435-2.167-6.654-3.259
		l0.196-0.459c2.291,0.935,4.612,1.81,6.885,2.797l3.407,1.488c1.136,0.495,2.251,1.037,3.378,1.554
		c1.123,0.526,2.256,1.033,3.364,1.59l3.341,1.64l3.314,1.693c1.106,0.564,2.208,1.137,3.296,1.731
		c2.194,1.163,4.346,2.403,6.502,3.636c2.144,1.254,4.283,2.518,6.397,3.824c2.119,1.299,4.215,2.639,6.299,3.998
		c2.082,1.379,4.131,2.754,6.191,4.242l2.447,1.77l-2.868,1.207c-6.659,2.803-13.295,5.905-20.195,8.548
		c-6.891,2.645-14.075,4.86-21.562,5.857c-7.461,1.019-15.212,0.835-22.621-0.975c-1.85-0.448-3.679-0.978-5.48-1.587
		c-0.904-0.289-1.813-0.666-2.718-0.998c-0.932-0.336-1.701-0.714-2.56-1.069c-3.612-1.56-6.787-3.541-9.918-5.577
		c-3.118-2.047-6.108-4.243-9.017-6.535c-2.912-2.287-5.747-4.664-8.509-7.123c-5.513-4.928-10.785-10.145-15.576-15.84
		c-4.755-5.707-9.211-11.805-12.244-18.892c-1.467-3.542-2.607-7.396-2.514-11.53c0.011-1.029,0.14-2.06,0.33-3.1
		c0.123-0.523,0.254-1.162,0.392-1.545l0.23-0.731l0.232-0.649c0.315-0.881,0.685-1.844,1.165-2.779
		c0.109-0.229,0.264-0.486,0.397-0.728c0.142-0.255,0.247-0.404,0.373-0.611c0.319-0.484,0.581-0.88,0.908-1.291
		c2.524-3.253,5.803-5.545,9.175-7.343c3.389-1.806,6.951-3.106,10.548-4.164c7.21-2.082,14.614-3.091,22.011-3.475
		c7.402-0.361,14.819-0.055,22.157,0.888c7.335,0.96,14.598,2.525,21.63,4.934c14.163,4.887,26.445,14.536,34.914,26.741
		c4.246,6.102,7.547,12.848,9.778,19.922c2.228,7.076,3.38,14.465,3.545,21.854l0.053,2.365l-1.822-1.504
		c-1.598-1.318-3.19-2.646-4.827-3.92c-1.62-1.294-3.279-2.539-4.945-3.773s-3.362-2.428-5.064-3.614
		c-1.716-1.165-3.436-2.325-5.186-3.438c-1.748-1.119-3.506-2.223-5.294-3.275c-1.778-1.07-3.583-2.096-5.397-3.105
		c-1.815-1.008-3.651-1.978-5.496-2.93c-1.849-0.945-3.714-1.859-5.589-2.753c-1.881-0.882-3.772-1.74-5.677-2.571
		c-1.908-0.822-3.827-1.619-5.757-2.39c-1.934-0.762-3.877-1.499-5.832-2.206c-1.958-0.7-3.923-1.38-5.9-2.021
		c-7.911-2.573-15.982-4.654-24.164-6.219L54.554,190.901z"/>
</g>
</svg>
