<?xml version="1.0" encoding="utf-8"?>
<!-- Generator: Adobe Illustrator 16.0.0, SVG Export Plug-In . SVG Version: 6.00 Build 0)  -->
<!DOCTYPE svg PUBLIC "-//W3C//DTD SVG 1.1//EN" "http://www.w3.org/Graphics/SVG/1.1/DTD/svg11.dtd">
<svg version="1.1" id="Capa_1" xmlns="http://www.w3.org/2000/svg" xmlns:xlink="http://www.w3.org/1999/xlink" x="0px" y="0px"
	 width="356.988px" height="267.742px" viewBox="0 0 356.988 267.742" enable-background="new 0 0 356.988 267.742"
	 xml:space="preserve">
<path fill="#C4DA97" d="M27.969,186.245c25.418-33.276,86.678-29.122,110.186,4.623c-5.189-14.205-10.699-28.669-16.016-41.784
	c-11.808,12.169-82.496,24.703-103.183-34.149c13.759-26.434,66.411-20.309,91.17,6.365c-2.929-6.205-6.542-13.151-8.504-15.222
	C46.592,100.774,4.518,55.997,51.959,7.15c79.312-4.332,58.404,85.924,55.372,97.61c0.681,0.934,1.435,2.087,2.289,3.274
	c0.676,0.912,1.368,1.992,2.072,3.131c-2.2-34.22,22.089-73.586,49.406-69.526c36.013,52.07-17.729,102.628-33.67,103.632
	c4.171,10.56,8.479,22.277,12.718,34.199c-0.119-37.918,34.266-85.18,69.869-81.319c39.032,78.901-52.577,108.351-59.683,110.505
	c7.635,22.138,14.366,41.937,18.723,52.333c0,0-2.34,3.846-7.226,1.355c-2.419-9.519-8.649-28.908-16.401-51.094
	C136.369,219.632,69.909,276.635,27.969,186.245z"/>
<path fill="#D9E5AF" d="M87.531,216.751c-13.016-0.63-24.753-9.498-34.948-26.394c6.576-4.166,14.882-6.646,24.023-7.088
	c2.031-0.102,4.089-0.102,6.117-0.002c16.536,0.795,31.524,8.063,39.124,18.965c0.37,0.535,0.766,1.047,1.18,1.537
	c-7.873,5.566-19.904,12.377-32.279,12.979C89.666,216.801,88.594,216.805,87.531,216.751L87.531,216.751z M159.603,183.531
	c0.28-1.352,0.425-2.738,0.415-4.141c-0.073-25.861,19.469-52.688,37.262-59.776c3.465,11.495,3.24,21.872-0.673,30.913
	C189.674,166.529,172.326,177.404,159.603,183.531L159.603,183.531z M80.957,139.336C63.722,138.51,51,131.818,43.043,119.432
	c2.494-0.857,5.547-1.401,8.955-1.57c1.546-0.074,3.113-0.071,4.698,0.003c14.478,0.698,30.092,7.512,38.854,16.958
	c1.083,1.17,2.287,2.189,3.578,3.052c-3.05,0.676-6.787,1.242-11.154,1.455C85.612,139.445,83.254,139.447,80.957,139.336
	L80.957,139.336z M129.971,122.199c0.049-1.005,0.021-2.018-0.087-3.032c1.273-2.904,1.85-6.091,1.64-9.279
	c-0.912-14.186,4.823-31.229,13.938-41.443c1.685-1.885,3.429-3.457,5.139-4.649c4.083,10.486,3.763,21.184-0.953,32.508
	C144.434,108.829,135.801,117.629,129.971,122.199L129.971,122.199z M91.033,84.214C72.016,79.656,57.04,69.321,52.59,57.196
	c-3.301-9-0.49-19.159,8.36-30.239c10.682,0.549,18.221,3.694,23.039,9.616C93.728,48.557,92.91,70.144,91.033,84.214L91.033,84.214
	z"/>
<g>
	<path fill="#548026" d="M133.715,111.152c41.804-2.437,78.618,46.698,68.376,86.534c7.379-13.197,14.757-26.815,21.226-39.396
		c-16.928-1.018-72.546-46.415-41.437-100.484c29.014-6.817,58.721,37.08,54.654,73.251c2.783-6.268,5.7-13.535,5.985-16.373
		C210.644,69.508,217.136,8.412,285.104,12.502c55.017,57.287-27.023,100.321-37.861,105.643c-0.257,1.126-0.64,2.448-0.984,3.873
		c-0.258,1.107-0.617,2.33-1.028,3.607c24.5-23.983,70.19-31.259,84.929-7.901c-15.975,61.258-89.344,53.514-100.506,42.086
		c-5.286,10.049-11.361,20.959-17.623,31.941c28.664-24.822,86.906-29.596,107.213-0.089
		c-34.351,81.058-116.43,30.836-122.688,26.853c-11.807,20.23-22.411,38.246-27.455,48.327c0,0-4.438,0.74-5.742-4.59
		c5.633-8.041,16.267-25.417,28.022-45.759C179.133,215.091,92.563,201.9,133.715,111.152z"/>
	<path fill="#719E39" d="M254.093,217.598c-2.055-0.097-4.156-0.301-6.318-0.607c-9.756-1.366-19.02-4.639-26.211-7.797
		c1.23-0.676,2.403-1.479,3.476-2.407c11.736-10.167,31.733-16.408,49.772-15.54c1.965,0.098,3.908,0.271,5.813,0.541
		c4.136,0.581,9.419,1.773,14.086,4.219C284.931,211.559,271.877,218.456,254.093,217.598L254.093,217.598z M182.45,194.625
		c-11.26-2.829-28.429-9.208-35.842-22.693c-5.387-9.791-5.364-23.043,0.049-39.461c10.324,3.141,20.355,10.991,27.598,21.814
		c8.359,12.475,11.563,26.846,8.583,38.448C182.679,193.359,182.549,193.995,182.45,194.625L182.45,194.625z M257.035,147.634
		c-2.513-0.12-4.319-0.339-5.123-0.452c-1.129-0.156-2.149-0.334-3.063-0.518c0.775-0.617,1.521-1.293,2.205-2.027
		c3.021-0.932,5.812-2.576,8.09-4.812c10.572-10.345,27.646-17.108,41.523-16.439c1.045,0.052,2.066,0.143,3.069,0.285
		c0.972,0.135,1.898,0.32,2.771,0.543C294.922,145.921,271.028,148.307,257.035,147.634L257.035,147.634z M216.808,133.628
		c-6.258-4.728-14.317-12.721-19.552-23.428c-5.146-10.539-6.16-20.833-3.049-31.269c11.647,6.604,24.94,28.785,22.564,49.902
		C216.594,130.461,216.611,132.068,216.808,133.628L216.808,133.628z M252.183,92.39c-8.942-17.383-10.886-35.471-4.595-46.758
		c4.66-8.38,14.197-12.873,28.367-13.39c6.523,8.416,9.063,16.181,7.75,23.653C281.012,71.134,264.09,84.624,252.183,92.39
		L252.183,92.39z"/>
</g>
</svg>
