<?xml version="1.0" encoding="utf-8"?>
<!-- Generator: Adobe Illustrator 19.0.0, SVG Export Plug-In . SVG Version: 6.00 Build 0)  -->
<svg version="1.1" id="Capa_1" xmlns="http://www.w3.org/2000/svg" xmlns:xlink="http://www.w3.org/1999/xlink" x="0px" y="0px"
	 viewBox="380 -180 960 229.6" style="enable-background:new 380 -180 960 229.6;" xml:space="preserve">
<style type="text/css">
	.st0{fill:#FFFFFF;}
	.st1{opacity:0.8;}
	.st2{fill:url(#SVGID_1_);}
	.st3{fill:url(#SVGID_2_);}
	.st4{fill:url(#SVGID_3_);}
</style>
<g>
	<path class="st0" d="M655.7-119.7c0,0-0.5,2.4-3.9,2.4c-8.4,0-3.2-22.2,20.5-22.2c21.1,0,25.9,25.8,23.7,54.1c-0.2,0,1.7,0,1.7,0
		c14-28.3,30.7-54.2,45-54.2c8.1,0,10.4,7.1,10.4,17.9c0,5.4-1.5,17-3.9,30.1c0,0,1.7,0,1.5,0c15.7-29.5,35-58.1,50.5-58.1
		c5.1,0,7.6,2.9,7.6,8.4C796.5-110.8,764.9-0.1,791.7-0.1c6.1,0,9.8-6.6,11.3-9.9c1-1.7,4-1.3,3.7,0c-0.5,1.2-6.6,15.5-16.2,15.5
		c-44.1,0-4.2-117.2,5.4-146c0.7-2.2-1.2-2.9-3.9-0.5c-25.8,24.4-48.5,80-53,93c-4.9,14.3-9.1,23.4-14,23.4c-2.5,0-3.5-1-3.5-3.5
		c0,0,0-0.2,0.2-0.3c1.3-4.9,21.1-72.9,21.1-95.8c0-5.9-1-8.8-3.9-8.8c-10.3,0-38.2,47.7-49.5,86.7c-5.9,20.4-12.6,34.9-17.9,34.9
		c-2.4,0-3.5-1.2-3.5-3.7c0,0,0.2-0.5,0.5-1.3c3.7-11.1,38.9-118.9,2-118.9C655.4-135.5,652.7-119.7,655.7-119.7z"/>
	<path class="st0" d="M833.6-23.7c12.8,0,28.6-33.2,28.6-65.7v-2c-7.6-4.9-12-13-12-16.3c0-2.2,3.2-6.1,6.4-6.1
		c4.5,0,8.9,9.6,10.4,18.7c3,2,6.4,3.5,10.1,3.5c3.4,0,5.4-1.3,5.4-1.3s0,6.1-6.1,6.1c-3.4,0-6.2-0.7-8.9-1.7
		c-0.3,32.2-16.2,70.9-35.9,70.9c-37.6,0-17.7-80.7,11.8-80.7c4.5,0,5.2,4,5.2,4C826.3-94.3,811.9-23.7,833.6-23.7z"/>
	<path class="st0" d="M945.4-102.9c0,0-10.3,10.4-10.3,34c0,0.8-0.3,1.3-0.8,1.3c-7.6,0-8.1-17.5-3.4-28.8
		C914.6-82,891.2-33.8,891.2-24c0,1-1,2-2.4,2c-4,0-5.2-4.2-5.2-13.3c0-32.2,7.4-65.8,17.3-65.8c2.2,0,3.2,1.3,3.2,3.7
		c0,0-7.7,24.6-11.1,50.4h1.2c10.8-24.6,30.8-59.3,47.3-59.3C943.9-106.4,945.4-104.7,945.4-102.9z"/>
	<path class="st0" d="M967.8-97.5c2.7,0,3.9,1.7,3.9,4.2c0,0-15,38.4-15,71.6c0,1.5-1.2,2.4-2.5,2.4c-3,0-4.5-4.5-4.5-14.1
		C949.6-65,956.7-97.5,967.8-97.5z"/>
	<path class="st0" d="M1027.8-91.7c-17.9,15.7-36,64.7-36,67.7c0,1-1,2-2.4,2c-4,0-5.4-4.2-5.4-13.3c0-32.2,7.4-65.8,17.5-65.8
		c2,0,3,1.3,3,3.7c0,0-7.7,25.1-11.1,51h1.5c8.9-22.4,24.6-53.7,42.3-53.7c6.1,0,8.6,3.2,8.6,8.3c0,0-11.1,33.8-11.1,61.5
		c0,13.3,2,17.8,5.2,17.8c3.5,0,4.7-3.2,6.4-3.2c1.7,0,1,1.7,1,1.7s-3.5,7.2-8.8,7.2c-8.8,0-13.6-14-13.6-33c0-21.4,5.2-43.3,7.2-51
		C1032.8-93.3,1030.5-93.9,1027.8-91.7z"/>
	<path class="st0" d="M1063.1,33.6c21.1,0,30.1-22.6,35.2-45.8c-23.9,0.5-37.6,10.6-46.8,23.2c-1.2,1.7-5.1,0.5-3.9-1.2
		c8.4-12.8,24.9-25.9,51.7-26.9c1.7-8.3,2.9-16.7,4.2-24.1c0.8-5.6,2-10.9,2.9-16.2h-1.9c-10.4,18-24.3,38.2-33,38.2
		c-29.3,0-8.3-83.2,28.8-83.2c9.6,0,12.3,9.3,12.3,9.3s-0.5,2.9-2.9,2.9c-2.9,0-3.4-1.9-3.4-1.9s-1.9-5.7-7.2-5.7
		c-22.6,0-37.7,72.6-25.9,72.6c8.3,0,29.8-37.9,40.2-59.3c3-6.2,6.1-10.3,10.6-10.3c2.5,0,3.5,1.5,3.5,4c0,0-6.7,9.9-13.5,49.7
		c-1.3,7.7-2.9,16.2-4.7,24.4c20.7,3.5,16.2,21.7,9.6,21.7c0,0,3.2-12.8-10.9-16.5c-6.7,25.4-18.7,48.8-45,48.8
		c-11.3,0-15.8-4.4-18.4-9.8c-1-2.2,3.2-3.4,4.2-1C1050.5,30.2,1054.2,33.6,1063.1,33.6z"/>
	<path class="st0" d="M1196.5-6c4.7,0,6.7-7.1,6.7-7.1s0.5-1.9,2.4-1.9c1.7,0,1.2,1.9,1.2,1.9s-4,12.8-10.8,12.8
		c-9.9,0-14.7-14.8-14.7-33c0-7.1,0.7-15,1.9-22.4h-1.7c-10.3,17.5-23.7,36.5-32.2,36.5c-29.3,0-8.3-83.2,28.8-83.2
		c9.6,0,12.3,9.3,12.3,9.3s-0.5,2.9-2.9,2.9c-2.9,0-3.4-1.9-3.4-1.9s-1.9-5.7-7.2-5.7c-22.6,0-37.7,72.6-25.9,72.6
		c9.1,0,34-47,39.2-57.3c3.4-7.1,7.2-12.1,11.8-12.1c2,0,3.2,1.5,3.2,3.9c0,0-14,29.1-14,66.9C1191.3-10.4,1193.1-6,1196.5-6z"/>
</g>
<g class="st1">
	<path class="st0" d="M1213.1-36.5c-1.7,4.2-2.8,7.6-3.3,10.1c-0.5,2.5-0.8,4.1-0.8,4.6c0,1.2,0.2,2.4,0.6,3.5
		c0.4,1.1,1.6,1.7,3.6,1.7c1,0,2.2-0.2,3.5-0.7c1.3-0.4,2.8-1.4,4.5-3c1.7-1.5,3.6-3.7,5.8-6.5c2.2-2.8,4.7-6.6,7.7-11.5
		c0.3-0.4,0.8-0.7,1.3-0.7c0.9,0,1.3,0.5,1.3,1.5c0,0.3-0.1,0.6-0.2,0.7c-5.1,8.3-9.4,14.2-13.1,17.7c-3.6,3.5-7.3,5.3-10.9,5.3
		c-1.6,0-2.8-0.2-3.7-0.7c-0.9-0.5-1.6-1.1-2.1-1.8c-0.5-0.7-0.8-1.5-0.9-2.5c-0.1-0.9-0.2-1.8-0.2-2.7c0-2,0.3-3.9,0.8-5.9
		c0.5-1.9,1.2-4.2,2.1-6.7c4.4-14.1,9.4-27,15.1-38.7c5.7-11.7,11.4-21.7,17.3-30c5.9-8.3,11.6-14.8,17.1-19.4
		c5.5-4.6,10.3-6.9,14.3-6.9c1.2,0,2.5,0.2,3.8,0.7c1.3,0.5,1.9,1.6,1.9,3.2c0,1.2-0.3,2.6-0.9,4.3c-0.6,1.7-1.4,3.4-2.4,5.3
		c-1,1.9-2.2,3.8-3.5,5.9c-1.3,2-2.6,3.9-3.8,5.7c-3.9,5.6-8.3,11.3-13.1,16.9c-4.8,5.7-9.6,11.4-14.5,17c-4.9,5.7-9.7,11.4-14.5,17
		C1221.4-47.4,1217-41.9,1213.1-36.5z M1265.6-105.7c0.8-1.1,1.8-2.5,2.9-4.1c1.2-1.6,2.3-3.3,3.4-5.1c1.1-1.8,2-3.7,2.8-5.5
		c0.8-1.9,1.2-3.6,1.2-5.3c-0.2,0-1.2,0.4-2.8,1.2c-1.6,0.8-4,2.8-7.2,6c-3.2,3.2-7.3,7.9-12.2,14.1c-4.9,6.2-10.8,14.8-17.5,25.7
		c-3.6,5.7-6.8,11.1-9.7,16c-2.9,5-5.4,9.6-7.7,13.9c3.8-4.7,7.8-9.5,11.9-14.3c4.1-4.8,8.2-9.6,12.3-14.4c4.1-4.8,8.1-9.6,12-14.3
		C1258.8-96.4,1262.4-101.1,1265.6-105.7z"/>
	<path class="st0" d="M1260.1-39c0.4,0,0.9,0.2,1.3,0.7c0.4,0.5,0.4,1-0.1,1.4c-1.7,2.8-3.7,5.5-6,8.3c-2.3,2.8-4.7,5.4-7.2,7.7
		c-2.5,2.3-5,4.2-7.5,5.6c-2.5,1.4-4.9,2.1-7,2.1c-2.1,0-3.8-0.6-5.1-1.9c-1.2-1.3-1.9-2.9-1.9-4.9c0-2.1,0.6-4.5,1.8-7.3
		c1.2-2.8,2.6-5.6,4.4-8.5c1.7-2.9,3.6-5.8,5.7-8.7c2.1-2.9,4-5.4,5.7-7.7c1.7-2.3,3.2-4.1,4.3-5.5c1.1-1.4,1.6-2.1,1.5-2.1
		c1.7,0,3,0.5,3.9,1.5c0.9,1,1.3,2.1,1.3,3.3c0,1.4-0.6,3.1-1.9,5.1c-1.2,2-2.8,4.1-4.5,6.4c-1.8,2.3-3.8,4.6-6,7
		c-2.2,2.4-4.2,4.8-6,7c-1.8,2.3-3.3,4.4-4.5,6.4c-1.2,2-1.9,3.6-1.9,5c0,0.8,0.3,1.3,1,1.6c0.7,0.3,1.3,0.4,1.9,0.4
		c1.8,0,3.8-0.7,6.1-2c2.2-1.3,4.5-3.1,6.8-5.2c2.3-2.1,4.5-4.6,6.7-7.3c2.2-2.7,4.1-5.4,5.6-8C1259.1-38.7,1259.5-39,1260.1-39z
		 M1266.6-88.1c1.5,0,2.7,0.5,3.6,1.4c1,0.9,1.4,2.1,1.4,3.4c0,1.3-0.5,2.5-1.4,3.5c-1,1-2.2,1.5-3.6,1.5c-1.3,0-2.5-0.5-3.5-1.5
		c-1-1-1.4-2.1-1.4-3.5c0-1.3,0.5-2.5,1.4-3.4C1264.1-87.6,1265.3-88.1,1266.6-88.1z"/>
	<path class="st0" d="M1295.8-36.8c-1.2,2-3.4,3-6.4,3c-1.9,0-3.9-0.4-6-1.3c-2.1-0.9-4.1-2.4-6-4.6c-0.2,9.1-1.5,18.3-3.7,27.4
		c-2.2,9.1-5.2,17.4-8.9,24.9c-3.7,7.4-7.9,13.4-12.6,18c-4.7,4.6-9.6,6.9-14.6,6.9c-2.2,0-4.2-0.4-5.8-1.3
		c-1.6-0.9-2.4-2.8-2.4-5.6c0-3.5,1.2-8,3.5-13.5c2.3-5.5,4.9-11.1,7.8-16.8c8.5-18.2,15.9-34,22.1-47.4s11.7-24.9,16.3-34.5
		c4.7-9.5,8.7-17.4,12-23.5c3.4-6.1,6.5-10.9,9.3-14.5c2.9-3.5,5.7-6,8.5-7.3c2.8-1.3,5.9-2,9.3-2c1.9,0,3.5,0.7,4.8,2
		c1.3,1.3,1.9,3.2,1.9,5.6c0,3.6-1.5,8.1-4.5,13.5c-3,5.4-6.9,11.3-11.8,17.9c-4.9,6.6-10.6,13.6-17,21c-6.5,7.4-13.1,15-20,22.8
		c-3.1,3.5-5.9,6.9-8.3,10.1c-2.4,3.2-4.6,6.5-6.7,10c-2.1,3.5-4.1,7.3-6.1,11.3c-2,4.1-4.1,8.7-6.3,13.9c-1.5,2.9-2.9,5.8-4.3,8.8
		c-1.4,3-2.7,5.9-3.9,8.7c-1.2,2.8-2.2,5.5-2.9,7.9c-0.8,2.5-1.2,4.5-1.2,6.2c0,1.5,0.3,2.5,0.8,2.8c0.6,0.3,1.3,0.5,2.2,0.5
		c1.7,0,3.5-0.7,5.4-2.2c1.9-1.5,3.8-3.3,5.7-5.5c1.9-2.1,3.7-4.5,5.5-7c1.7-2.5,3.3-4.9,4.6-6.9c3-5,5.7-9.7,7.9-14.1
		c2.2-4.5,4.1-8.9,5.6-13.2c1.5-4.4,2.7-8.8,3.5-13.3c0.8-4.5,1.2-9.3,1.2-14.2v-3c0-0.8,0.4-1.2,1.3-1.2c0.6,0,1,0.3,1.3,0.8
		c1.3,3.5,3.2,5.9,5.6,7.2c2.4,1.3,4.6,1.9,6.5,1.9c1.6,0,2.7-0.4,3.3-1.2c0.6-0.8,1.3-1.2,1.9-1.2c0.4,0,0.8,0.2,1,0.5
		c0.2,0.3,0.3,0.7,0.3,1S1295.9-36.9,1295.8-36.8z M1322-121.1c0-1.1-0.2-2.2-0.6-3.2c-0.4-1-1.3-1.6-2.6-1.7
		c-2.6-0.2-4.9,0.7-7.1,2.7c-2.1,2-4,4.5-5.7,7.5c-5.7,10.4-10.9,20.1-15.4,29.3c-4.5,9.2-9.3,18.1-14.4,26.7l-6.4,11.6
		c2.7-3,5.8-6.5,9.4-10.5c3.6-4,7.3-8.3,11.2-12.9c3.9-4.6,7.7-9.3,11.4-14.1c3.8-4.8,7.1-9.4,10.1-13.8c3-4.4,5.4-8.5,7.2-12.2
		C1321.1-115.4,1322-118.6,1322-121.1z"/>
	<path class="st0" d="M1334.5-39c1,0,1.5,0.5,1.5,1.5c0,0.3-0.1,0.6-0.2,0.7c-2.4,3.9-4.9,7.2-7.5,10.1c-2.6,2.9-5.3,5.3-8,7.2
		c-2.7,1.9-5.3,3.4-7.8,4.3c-2.5,0.9-4.9,1.4-7,1.4c-4.4,0-7.8-1.3-10.4-4c-2.5-2.6-3.8-6.1-3.8-10.2c0-3.5,0.7-7.1,2.2-10.8
		c1.5-3.7,3.4-7.1,5.8-10.1c2.4-3,5.2-5.5,8.3-7.4c3.1-1.9,6.3-2.9,9.5-2.9c2.9,0,5.6,0.8,8,2.5c2.4,1.7,3.6,4.2,3.6,7.8
		c0,2.1-0.5,4.2-1.4,6.3c-1,2.1-2.2,4-3.9,5.6c-1.6,1.7-3.6,3-5.8,4.1c-2.2,1-4.7,1.6-7.4,1.6c-1.5,0-3.1-0.2-4.8-0.6
		c-1.7-0.4-3.3-1.2-4.8-2.4c-1.6,4-2.4,7.2-2.4,9.8c0,2.9,0.7,4.9,2,6.2c1.3,1.3,2.9,1.9,4.7,1.9c3.6,0,8-1.7,13.3-5
		c5.3-3.4,10.3-8.9,15-16.6C1333.4-38.7,1333.8-39,1334.5-39z M1323.5-51.4c0-1.1-0.2-2.1-0.7-3.1c-0.4-0.9-1.3-1.5-2.7-1.7
		c-1.6,0-3.2,0.6-4.9,1.7c-1.7,1.1-3.3,2.5-5,4.3c-1.6,1.8-3.2,3.8-4.6,6c-1.5,2.3-2.7,4.5-3.7,6.7c1.1,1.8,2.7,2.6,4.9,2.6
		c1.8,0,3.7-0.6,5.7-1.7c2-1.2,3.8-2.6,5.4-4.2c1.6-1.7,2.9-3.4,4-5.4C1323-48.1,1323.5-49.8,1323.5-51.4z"/>
</g>
<linearGradient id="SVGID_1_" gradientUnits="userSpaceOnUse" x1="511.4996" y1="194.4825" x2="511.4996" y2="349.1217" gradientTransform="matrix(0.9998 2.190000e-002 2.190000e-002 -0.9998 6.348000e-002 173.0636)">
	<stop  offset="0" style="stop-color:#FFFFFF;stop-opacity:0"/>
	<stop  offset="1.080000e-002" style="stop-color:#FFFFFF;stop-opacity:8.600000e-003"/>
	<stop  offset="1" style="stop-color:#FFFFFF;stop-opacity:0.8"/>
</linearGradient>
<path class="st2" d="M512.1-10.8C479-28.5,465-64.3,469.5-93.7c5.6-37.1,31.4-75.4,51.4-77.6c2.1-0.2,3.7,0,5.5,0.2
	c24.7,3.2,40.3,67.1,39.6,88c-1.1,35.4-27.8,54.8-45.5,70.9"/>
<g>
	<path class="st0" d="M515.6-122c-1.3,4.5-2.4,9-3.4,13.6c-0.5,2.3-1,4.6-1.4,6.9c-0.4,2.3-0.8,4.6-1.2,6.9c-0.3,2.3-0.7,4.6-0.9,7
		l-0.4,3.5l-0.3,3.5l-0.3,3.5l-0.2,3.5l-0.2,3.5l-0.1,3.5c-0.1,2.3-0.1,4.7-0.1,7c0,2.3,0.1,4.7,0.2,7c0.1,2.3,0.2,4.7,0.4,7
		c0.1,2.3,0.4,4.7,0.6,7c0.2,2.3,0.5,4.6,0.8,7c0.3,2.3,0.7,4.6,1.1,6.9c0.2,1.2,0.4,2.3,0.6,3.4c0.2,1.1,0.4,2.3,0.7,3.4
		c0.5,2.3,1,4.6,1.5,6.8l0.4,1.7l-1.6-0.8c-7.3-3.9-14-8.8-19.8-14.6c-5.8-5.8-10.8-12.5-14.7-19.8c-3.9-7.3-6.7-15.1-8.3-23.2
		c-1.6-8.1-2-16.5-0.9-24.7c1.1-8.2,3.1-16.2,5.8-24c2.7-7.8,6.1-15.3,10.1-22.5c4-7.2,8.7-14,14.3-20.1c2.8-3,5.9-5.9,9.3-8.4
		c3.4-2.4,7.3-4.5,11.6-5.4c0.6-0.1,1.1-0.2,1.7-0.3c0.3,0,0.5-0.1,0.8-0.1c0.3,0,0.6,0,0.9,0c1.1,0,2.2,0.1,3.3,0.2l0.8,0.1
		l0.8,0.1c0.5,0.1,1.1,0.2,1.7,0.4c1.1,0.3,2.1,0.7,3.1,1.2c2,0.9,3.8,2.2,5.4,3.6c1.6,1.4,3.1,2.9,4.5,4.5c2.7,3.2,5,6.7,7.1,10.3
		c2,3.6,3.8,7.4,5.4,11.1c3.2,7.6,5.8,15.4,7.9,23.4c2.1,8,3.8,16,4.8,24.2c0.2,2.1,0.4,4.1,0.5,6.2c0,1,0.1,2.1,0.1,3.2
		c0,0.5,0,1,0,1.6l-0.1,1.5l-0.1,1.5l-0.2,1.6c-0.1,1.1-0.2,2.1-0.4,3.1c-0.2,1-0.3,2.1-0.5,3.1c-0.2,1-0.4,2.1-0.7,3.1
		c-1.9,8.2-5.5,15.9-10.2,22.8c-4.6,6.9-10.2,13.1-16.2,18.7c-3,2.8-6,5.6-9.1,8.2l-9.2,8l-1.8,1.5l-0.4-2.2
		c-0.5-2.8-0.8-5.6-1.2-8.4c-0.3-2.8-0.6-5.6-0.9-8.4c-0.3-2.8-0.5-5.6-0.7-8.4l-0.2-4.2c-0.1-1.4-0.1-2.8-0.2-4.2
		c-0.1-1.4-0.1-2.8-0.1-4.2l-0.1-4.2l0-4.2c0-1.4,0-2.8,0-4.2c0-1.4,0-2.8,0.1-4.2l0.2-4.2c0.1-1.4,0.2-2.8,0.3-4.2l0.3-4.2l0.4,0
		L517-75c0,1.4-0.1,2.8-0.1,4.2l0,4.2c0,1.4,0,2.8,0.1,4.2c0,1.4,0,2.8,0.1,4.2l0.2,4.2l0.2,4.2c0.1,1.4,0.2,2.8,0.3,4.2
		c0.1,1.4,0.2,2.8,0.3,4.2l0.4,4.2c0.3,2.8,0.5,5.6,0.9,8.3c0.3,2.8,0.7,5.5,1.1,8.3c0.4,2.8,0.8,5.5,1.3,8.2l-2.1-0.7
		c6-5.6,12.2-10.8,17.9-16.5c5.7-5.7,11.1-11.7,15.4-18.4c4.3-6.7,7.6-14,9.4-21.7c0.3-1,0.4-1.9,0.6-2.9c0.2-1,0.3-1.9,0.5-2.9
		c0.2-1,0.3-2,0.3-2.9l0.1-1.5l0.1-1.5c0.3-3.9-0.1-7.9-0.5-11.9c-1-8-2.6-15.9-4.6-23.7c-2-7.8-4.5-15.5-7.6-22.9
		c-1.6-3.7-3.2-7.3-5.2-10.8c-1.9-3.5-4.1-6.8-6.6-9.9c-2.5-3-5.4-5.7-8.8-7.3c-0.8-0.4-1.7-0.7-2.6-1l-0.6-0.2
		c-0.1,0-0.2-0.1-0.3-0.1l-0.4-0.1l-0.7-0.1l-0.8-0.1c-1-0.1-1.9-0.2-2.8-0.2c-0.2,0-0.4,0-0.7,0c-0.2,0-0.5,0-0.7,0.1
		c-0.4,0-0.9,0.1-1.4,0.2c-3.7,0.7-7.2,2.5-10.4,4.7c-3.2,2.3-6.2,5-8.9,7.9c-5.5,5.8-10.1,12.5-14.1,19.5c-4,7-7.4,14.4-10.1,22
		c-2.7,7.6-4.7,15.5-5.8,23.4c-1.1,7.9-0.7,16.1,0.7,23.9c1.5,7.9,4.2,15.6,7.9,22.7c3.7,7.1,8.5,13.7,14.2,19.4
		c5.6,5.7,12.2,10.6,19.3,14.5l-1.2,0.9c-0.5-2.3-1-4.6-1.4-6.9c-0.2-1.2-0.4-2.3-0.6-3.5c-0.2-1.2-0.4-2.3-0.6-3.5
		c-0.4-2.3-0.7-4.7-1-7c-0.3-2.3-0.5-4.7-0.7-7c-0.2-2.3-0.4-4.7-0.5-7c-0.1-2.3-0.2-4.7-0.3-7c-0.1-2.3-0.1-4.7-0.1-7
		c0-2.3,0.1-4.7,0.1-7l0.2-3.5l0.2-3.5l0.3-3.5l0.3-3.5l0.4-3.5l0.4-3.5c0.3-2.3,0.6-4.7,1-7c0.4-2.3,0.8-4.6,1.2-6.9
		c0.4-2.3,0.9-4.6,1.4-6.9c1-4.6,2.2-9.1,3.6-13.6L515.6-122z"/>
</g>
<linearGradient id="SVGID_2_" gradientUnits="userSpaceOnUse" x1="534.1783" y1="187.265" x2="636.2794" y2="225.2322" gradientTransform="matrix(0.9998 2.190000e-002 2.190000e-002 -0.9998 6.348000e-002 173.0636)">
	<stop  offset="0" style="stop-color:#FFFFFF;stop-opacity:0"/>
	<stop  offset="1.080000e-002" style="stop-color:#FFFFFF;stop-opacity:8.600000e-003"/>
	<stop  offset="1" style="stop-color:#FFFFFF;stop-opacity:0.8"/>
</linearGradient>
<path class="st3" d="M540.4-2.5c1.8-25.2,19-43.3,38.3-48.6c24.4-6.7,54.9-1.4,61.8,10.3c0.7,1.2,1,2.3,1.4,3.4
	c4.8,16.1-30.2,43.2-43.2,48.5c-22.1,9-40.4-2.4-55.1-8.9"/>
<g>
	<path class="st0" d="M608.7-30.4c-6.2,0.9-12.2,2.2-18.2,3.8c-1.5,0.4-3,0.9-4.5,1.3c-1.5,0.5-3,1-4.4,1.5c-1.5,0.5-2.9,1-4.4,1.6
		c-1.4,0.6-2.9,1.1-4.3,1.7c-1.4,0.6-2.8,1.2-4.3,1.9c-1.4,0.7-2.8,1.3-4.2,2c-1.4,0.7-2.8,1.4-4.1,2.1c-1.4,0.7-2.7,1.5-4.1,2.3
		c-1.3,0.8-2.7,1.6-4,2.4c-1.3,0.8-2.6,1.7-3.9,2.5c-1.3,0.9-2.6,1.7-3.8,2.7c-1.3,0.9-2.5,1.8-3.7,2.8l-1.4,1.1l0.1-1.8
		c0.4-5.5,1.5-11,3.4-16.2c1.9-5.2,4.6-10.1,7.9-14.5c6.7-8.8,16.2-15.6,26.9-18.8c5.3-1.6,10.8-2.5,16.3-3c5.5-0.5,11-0.4,16.6,0.1
		c5.5,0.5,11,1.5,16.3,3.3c2.6,0.9,5.3,2,7.7,3.5c2.5,1.5,4.8,3.3,6.6,5.8c0.2,0.3,0.4,0.6,0.6,1c0.1,0.2,0.2,0.3,0.3,0.5
		c0.1,0.2,0.2,0.4,0.3,0.6c0.3,0.7,0.6,1.4,0.8,2.1l0.2,0.5l0.1,0.6c0.1,0.3,0.2,0.8,0.2,1.2c0.1,0.8,0.2,1.6,0.1,2.3
		c-0.1,3.1-1,5.9-2.3,8.5c-2.5,5.2-6,9.6-9.8,13.7c-3.8,4.1-7.9,7.8-12.1,11.3c-2.1,1.7-4.3,3.4-6.6,5c-2.2,1.6-4.5,3.2-6.9,4.6
		c-2.4,1.4-4.8,2.8-7.6,3.8c-0.7,0.2-1.2,0.5-1.9,0.7c-0.7,0.2-1.4,0.5-2.1,0.7c-1.4,0.4-2.7,0.7-4.1,1c-5.6,1.1-11.4,1-16.9,0
		c-5.6-1-10.8-2.9-15.9-5.1c-5.1-2.2-9.9-4.7-14.8-7l-2.1-1l1.9-1.2c1.6-1,3.2-2,4.8-3c1.6-0.9,3.2-1.9,4.8-2.8
		c1.6-0.9,3.3-1.8,4.9-2.6c1.6-0.8,3.3-1.7,5-2.5c0.8-0.4,1.7-0.8,2.5-1.2l2.5-1.2l2.5-1.1c0.8-0.4,1.7-0.7,2.6-1.1
		c0.9-0.3,1.7-0.7,2.6-1l2.6-1c1.7-0.7,3.5-1.2,5.2-1.9l0.1,0.3c-1.7,0.7-3.4,1.4-5.1,2.2l-2.5,1.1c-0.8,0.4-1.7,0.8-2.5,1.2
		c-0.8,0.4-1.7,0.8-2.5,1.2l-2.5,1.2l-2.4,1.3c-0.8,0.4-1.6,0.9-2.4,1.3l-2.4,1.3l-2.4,1.4c-1.6,0.9-3.2,1.8-4.7,2.8
		c-1.6,1-3.1,1.9-4.7,2.9c-1.5,1-3.1,2-4.5,3.1L544,1.1c5.1,2.1,10,4.5,15,6.5c5,2,10.1,3.7,15.3,4.5c5.2,0.8,10.5,0.8,15.6-0.2
		c1.3-0.3,2.5-0.6,3.8-0.9c0.6-0.2,1.2-0.4,1.8-0.6c0.6-0.2,1.3-0.5,1.9-0.7c2.3-0.9,4.7-2.2,7-3.6c4.5-2.8,8.9-5.9,13.1-9.2
		c4.2-3.4,8.2-7,11.9-10.8c3.6-3.9,7-8.1,9.3-12.7c1.1-2.3,2-4.7,2-7.1c0-0.6,0-1.2-0.1-1.7c-0.1-0.3-0.1-0.5-0.2-0.8l-0.1-0.4
		l-0.1-0.5c-0.2-0.6-0.4-1.2-0.6-1.7c-0.1-0.1-0.1-0.2-0.2-0.4c0-0.1-0.2-0.3-0.2-0.4c-0.1-0.2-0.3-0.5-0.5-0.7
		c-1.3-2-3.4-3.6-5.6-4.9c-2.2-1.3-4.6-2.4-7.1-3.3c-5-1.7-10.3-2.8-15.6-3.3c-5.3-0.6-10.7-0.6-16.1-0.2
		c-5.3,0.4-10.7,1.2-15.8,2.7c-10.2,2.9-19.4,9.3-26,17.7c-3.3,4.2-5.9,8.9-7.8,13.9c-1.9,5-3.1,10.3-3.5,15.7l-1.3-0.7
		c1.3-0.9,2.5-1.8,3.8-2.7c1.3-0.9,2.6-1.8,3.9-2.6c1.3-0.9,2.6-1.7,4-2.5c1.3-0.8,2.7-1.6,4.1-2.4c1.4-0.8,2.7-1.5,4.1-2.2
		c1.4-0.7,2.8-1.4,4.2-2.1c1.4-0.7,2.8-1.3,4.3-2c1.4-0.6,2.9-1.2,4.3-1.8c1.5-0.6,2.9-1.1,4.4-1.7c1.5-0.5,2.9-1,4.4-1.5
		c1.5-0.5,3-0.9,4.5-1.4c1.5-0.4,3-0.9,4.5-1.2c6-1.6,12.2-2.8,18.4-3.6L608.7-30.4z"/>
</g>
<linearGradient id="SVGID_3_" gradientUnits="userSpaceOnUse" x1="482.355" y1="186.8781" x2="386.4108" y2="225.3586" gradientTransform="matrix(0.9998 2.190000e-002 2.190000e-002 -0.9998 6.348000e-002 173.0636)">
	<stop  offset="0" style="stop-color:#FFFFFF;stop-opacity:0"/>
	<stop  offset="1.080000e-002" style="stop-color:#FFFFFF;stop-opacity:8.600000e-003"/>
	<stop  offset="1" style="stop-color:#FFFFFF;stop-opacity:0.8"/>
</linearGradient>
<path class="st4" d="M486.8-3.6c-0.7-25.3-17.1-44-36.1-50.2c-24-7.8-54.8-3.8-62.2,7.6c-0.8,1.2-1.1,2.2-1.5,3.4
	C381.5-27.1,415.2,1.5,428,7.4c21.6,10,40.4-0.6,55.4-6.5"/>
<g>
	<path class="st0" d="M419.8-34.9c6.1,1.1,12.2,2.5,18.2,4.4c1.5,0.5,3,0.9,4.5,1.4c1.5,0.5,2.9,1,4.4,1.6c1.5,0.6,2.9,1.1,4.4,1.7
		c1.4,0.6,2.9,1.2,4.3,1.9c1.4,0.6,2.8,1.3,4.2,2c1.4,0.7,2.8,1.4,4.2,2.1c1.4,0.7,2.7,1.5,4.1,2.3c1.4,0.8,2.7,1.6,4,2.4
		c1.3,0.8,2.6,1.7,4,2.5c1.3,0.9,2.6,1.8,3.9,2.7c1.3,0.9,2.5,1.8,3.8,2.8c1.2,0.9,2.5,1.9,3.7,2.9L486-3.6
		c-0.2-5.4-1.1-10.7-2.8-15.8c-1.7-5.1-4.1-9.9-7.2-14.3c-6.2-8.7-15.1-15.5-25.2-18.9c-5.1-1.7-10.4-2.8-15.7-3.4
		c-5.3-0.6-10.7-0.8-16.1-0.5c-5.3,0.3-10.7,1.1-15.7,2.7c-2.5,0.8-5,1.7-7.3,3c-2.3,1.2-4.3,2.8-5.8,4.7c-0.2,0.2-0.4,0.5-0.5,0.7
		c-0.1,0.1-0.2,0.3-0.2,0.4c-0.1,0.1-0.1,0.2-0.2,0.4c-0.3,0.5-0.5,1.1-0.7,1.7l-0.2,0.5l-0.1,0.4c-0.1,0.4-0.1,0.6-0.2,0.8
		c-0.1,0.6-0.2,1.2-0.2,1.7c0,2.4,0.7,4.9,1.7,7.2c2.1,4.7,5.3,9.1,8.8,13.1c3.5,4,7.3,7.8,11.4,11.3c4,3.5,8.3,6.8,12.7,9.8
		c2.2,1.5,4.5,2.9,6.8,3.9c0.6,0.3,1.3,0.6,1.9,0.8c0.6,0.2,1.2,0.5,1.8,0.7c1.2,0.4,2.5,0.8,3.7,1.1c5.1,1.2,10.3,1.5,15.6,0.9
		c5.2-0.6,10.4-2.1,15.5-3.8c5.1-1.8,10.1-3.9,15.2-5.8L482.7,2c-1.4-1.1-2.9-2.2-4.4-3.3c-1.5-1.1-3-2.1-4.5-3.1
		c-1.5-1-3.1-2-4.6-3l-2.3-1.5l-2.4-1.4c-0.8-0.5-1.6-1-2.4-1.4l-2.4-1.4l-2.4-1.4c-0.8-0.5-1.6-0.9-2.4-1.3
		c-0.8-0.4-1.6-0.9-2.4-1.3l-2.5-1.2c-1.6-0.8-3.3-1.6-5-2.4l0.1-0.3c1.7,0.7,3.4,1.4,5.1,2.1l2.5,1.1c0.8,0.4,1.7,0.8,2.5,1.2
		c0.8,0.4,1.7,0.8,2.5,1.2l2.5,1.2l2.5,1.3c0.8,0.4,1.6,0.8,2.5,1.3c1.6,0.9,3.2,1.8,4.9,2.7c1.6,0.9,3.2,1.9,4.8,2.9
		c1.6,1,3.1,2,4.7,3c1.6,1,3.1,2.1,4.6,3.2l1.8,1.3l-2.1,0.9c-5,2.1-9.9,4.4-15.1,6.4c-5.1,2-10.5,3.6-16.1,4.4
		c-5.6,0.8-11.4,0.6-16.9-0.7c-1.4-0.3-2.7-0.7-4.1-1.2c-0.7-0.2-1.4-0.5-2-0.7c-0.7-0.3-1.3-0.5-1.9-0.8c-2.7-1.2-5.1-2.6-7.4-4.2
		c-2.3-1.5-4.6-3.2-6.7-4.9c-2.2-1.7-4.3-3.5-6.4-5.3c-4.1-3.7-8.1-7.6-11.6-11.8c-3.6-4.3-6.9-8.8-9.1-14.1
		c-1.1-2.6-1.9-5.5-1.9-8.6c0-0.8,0.1-1.5,0.2-2.3c0.1-0.4,0.2-0.9,0.3-1.2l0.2-0.5l0.2-0.5c0.2-0.7,0.5-1.4,0.9-2.1
		c0.1-0.2,0.2-0.4,0.3-0.5c0.1-0.2,0.2-0.3,0.3-0.5c0.2-0.4,0.4-0.7,0.7-1c1.9-2.4,4.3-4.1,6.9-5.5c2.5-1.3,5.2-2.3,7.9-3.1
		c5.4-1.6,10.9-2.3,16.4-2.6c5.5-0.3,11.1,0,16.5,0.7c5.5,0.7,10.9,1.9,16.1,3.7c10.6,3.6,19.7,10.9,26.1,20
		c3.2,4.6,5.6,9.6,7.3,14.9c1.7,5.3,2.5,10.8,2.6,16.3l0,1.8L486.3-3c-1.2-1-2.4-2-3.6-2.9c-1.2-1-2.4-1.9-3.7-2.8
		c-1.2-0.9-2.5-1.8-3.8-2.7c-1.3-0.9-2.6-1.7-3.9-2.6c-1.3-0.8-2.6-1.7-4-2.4c-1.3-0.8-2.7-1.6-4-2.3c-1.4-0.8-2.7-1.5-4.1-2.2
		c-1.4-0.7-2.8-1.4-4.2-2.1c-1.4-0.7-2.8-1.3-4.2-1.9c-1.4-0.6-2.9-1.2-4.3-1.8c-1.4-0.6-2.9-1.1-4.4-1.6c-1.5-0.5-2.9-1-4.4-1.5
		c-5.9-1.9-11.9-3.5-18-4.6L419.8-34.9z"/>
</g>
</svg>
