<?xml version="1.0" encoding="utf-8"?>
<!-- Generator: Adobe Illustrator 16.0.0, SVG Export Plug-In . SVG Version: 6.00 Build 0)  -->
<!DOCTYPE svg PUBLIC "-//W3C//DTD SVG 1.1//EN" "http://www.w3.org/Graphics/SVG/1.1/DTD/svg11.dtd">
<svg version="1.1" id="Capa_1" xmlns="http://www.w3.org/2000/svg" xmlns:xlink="http://www.w3.org/1999/xlink" x="0px" y="0px"
	 width="960px" height="475.936px" viewBox="0 0 960 475.936" enable-background="new 0 0 960 475.936" xml:space="preserve">
<path fill="#33651C" d="M5.984,321.656v-6.098l4.33-0.291c3.512-0.19,5.713-0.797,6.604-1.813c0.889-1.019,1.406-4.451,1.552-10.308
	c0.337-11.939,0.507-24.871,0.507-38.796c0-7.396-0.036-15.807-0.108-25.234c-0.072-5.702-0.398-9.185-0.979-10.441
	c-0.291-0.627-0.823-1.136-1.597-1.523c-0.775-0.387-4.21-0.797-10.308-1.23v-6.098c5.848,0.146,11.572,0.218,17.179,0.218
	c6.521,0,12.804-0.073,18.844-0.218c2.613,6.143,5.324,12.233,8.133,18.276c1.984,4.303,10.771,22.558,26.358,54.761
	c16.474-33.073,28.006-57.418,34.595-73.039c5.793,0.244,11.295,0.365,16.508,0.365c6.131,0,12.044-0.121,17.741-0.365v6.099
	c-6.34,0.387-9.92,0.942-10.743,1.667c-0.823,0.726-1.354,2.954-1.596,6.678c-0.339,6.093-0.508,17.67-0.508,34.733
	c0,8.605,0.084,17.692,0.254,27.266c0.168,9.572,0.495,14.986,0.979,16.244c0.338,0.727,0.823,1.282,1.452,1.669
	c0.628,0.389,4.016,0.849,10.162,1.38v6.098c-7.839-0.339-14.832-0.509-20.977-0.509c-6.194,0-14.614,0.17-25.259,0.509v-6.098
	l4.282-0.145c3.387-0.146,5.504-0.617,6.352-1.415c0.846-0.8,1.39-2.904,1.634-6.314c0.241-3.412,0.361-11.45,0.361-24.116v-43.799
	c-7.461,14.954-16.979,34.555-28.559,58.801c-4.749,9.973-8.455,18.103-11.119,24.394h-4.771
	c-3.635-8.324-8.501-18.853-14.605-31.58l-25.14-51.613v9.86c0,27.269,0.121,46.051,0.362,56.348
	c0.146,4.162,0.701,6.727,1.669,7.694c0.968,0.969,4.572,1.596,10.814,1.887v6.099c-4.925-0.34-9.85-0.51-14.775-0.51
	C18.272,321.147,11.729,321.317,5.984,321.656z"/>
<path fill="#33651C" d="M202.109,323.107c-17.854,0-31.524-4.585-41.009-13.754c-9.485-9.17-14.226-21.787-14.226-37.853
	c0-11.227,2.297-20.771,6.895-28.633s10.971-13.899,19.126-18.11c8.152-4.209,18.642-6.314,31.464-6.314
	c12.338,0,22.429,2.022,30.268,6.062c7.839,4.042,13.874,9.655,18.108,16.841c4.233,7.184,6.352,16.003,6.352,26.455
	c0,11.323-2.322,21.11-6.967,29.359c-4.646,8.251-11.19,14.638-19.635,19.16C224.039,320.846,213.914,323.107,202.109,323.107z
	 M204.866,315.267c9.726,0,17.479-3.594,23.263-10.786c5.781-7.191,8.673-18.124,8.673-32.796c0-15.399-3.314-27.218-9.943-35.45
	c-5.371-6.635-13.646-9.953-24.822-9.953c-10.452,0-18.544,3.465-24.279,10.39c-5.734,6.926-8.601,17.579-8.601,31.961
	c0,10.365,1.571,19.143,4.718,26.335c3.146,7.188,7.148,12.372,12.012,15.543C190.749,313.682,197.075,315.267,204.866,315.267z"/>
<path fill="#33651C" d="M261.2,321.656v-6.098c5.611-0.481,8.829-0.944,9.652-1.38c0.532-0.289,0.918-0.749,1.162-1.378
	c0.482-1.162,0.821-5.081,1.016-11.759c0.242-10.354,0.363-18.508,0.363-24.46c0-8.032-0.098-18.242-0.29-30.629
	c-0.193-9.242-0.653-14.904-1.379-16.984c-0.195-0.629-0.581-1.112-1.162-1.452c-0.773-0.482-3.895-1.016-9.361-1.596v-6.099
	c10.016,0.34,16.476,0.51,19.378,0.51l36.363-0.51c7.887,0,13.633,0.761,17.238,2.284c3.604,1.521,6.46,3.962,8.563,7.32
	c2.106,3.358,3.158,7.308,3.158,11.848c0,5.8-1.682,10.885-5.044,15.259c-3.364,4.372-9.207,8.25-17.528,11.632l15.459,23.298
	l12.05,17.854c2.273,2.902,3.968,4.657,5.081,5.262c1.111,0.604,2.927,0.934,5.443,0.979v5.589l-4.283,0.073
	c-12.292,0.097-20.202,0.24-23.733,0.437c-4.21-6.728-10.501-16.477-18.872-29.253l-14.952-22.719
	c0.437-0.818,0.799-1.691,1.089-2.609c1.936,0.241,3.363,0.361,4.282,0.361c4.5,0,8.928-1.817,13.283-5.456
	c4.354-3.635,6.532-8.819,6.532-15.56c0-5.864-1.724-10.421-5.166-13.67c-3.445-3.25-8.61-4.872-15.499-4.872
	c-2.184,0-5.143,0.171-8.876,0.507l-0.478,21.43l-0.61,27.168c0,6.151,0.239,14.021,0.722,23.608
	c0.384,7.218,0.77,11.26,1.155,12.132c0.288,0.631,0.816,1.138,1.588,1.526c1.011,0.582,4.282,1.016,9.817,1.307v6.099
	c-8.696-0.34-16.402-0.51-23.117-0.51C277.094,321.147,269.412,321.317,261.2,321.656z"/>
<path fill="#33651C" d="M368.548,321.656v-6.098c6.639-0.338,10.392-0.896,11.258-1.669c0.867-0.773,1.396-2.686,1.589-5.734
	c0.387-6.387,0.581-18.291,0.581-35.71c0-6.679-0.098-16.354-0.29-29.031c-0.098-8.661-0.291-13.416-0.581-14.263
	c-0.29-0.846-0.799-1.464-1.525-1.851c-1.063-0.533-4.742-0.992-11.031-1.379v-6.099c9.968,0.34,17.588,0.51,22.862,0.51
	c9.098,0,17.322-0.17,24.679-0.51v6.099c-6.618,0.387-10.354,0.907-11.205,1.56c-0.853,0.653-1.399,2.167-1.644,4.535
	c-0.387,4.647-0.58,14.059-0.58,28.236c0,18.871,0.072,32.02,0.219,39.448c0.145,7.428,0.58,11.844,1.306,13.245
	c0.291,0.63,0.908,1.125,1.851,1.488c0.944,0.362,4.294,0.738,10.054,1.124v6.098l-8.564-0.219c-5.42-0.192-10.26-0.29-14.516-0.29
	L368.548,321.656z"/>
<path fill="#33651C" d="M426.177,321.656v-6.098c5.902-0.242,9.364-0.629,10.379-1.16c0.677-0.388,1.186-1.017,1.523-1.889
	c0.532-1.161,0.863-5.249,0.993-12.266c0.258-11.612,0.387-20.37,0.387-26.275l-0.145-30.702c0-8.128-0.265-12.822-0.794-14.081
	c-0.288-0.726-0.746-1.259-1.371-1.598c-0.963-0.58-4.622-1.135-10.974-1.667v-6.099c7.563,0.244,13.166,0.365,16.805,0.365
	c4.021,0,8.594-0.121,13.717-0.365c11.173,14.259,23.808,29.729,37.896,46.411c9.376,11.153,17.469,20.368,24.271,27.644v-28.813
	c0-10.913-0.123-20.321-0.364-28.229c-0.192-4.705-0.579-7.591-1.159-8.659c-0.291-0.58-0.824-0.994-1.599-1.236
	c-0.771-0.242-4.161-0.582-10.162-1.018v-6.099c5.266,0.244,10.505,0.365,15.72,0.365c7.146,0,13.616-0.121,19.411-0.365v6.099
	c-5.39,0.339-8.636,0.726-9.744,1.16c-0.624,0.244-1.128,0.58-1.516,1.018c-0.383,0.435-0.672,0.992-0.865,1.667
	c-0.336,1.164-0.535,4.891-0.596,11.18l-0.272,29.032l-0.146,29.25c0,7.839,0.17,15.679,0.51,23.519l-0.947,1.016
	c-5.887-1.063-10.042-1.767-12.474-2.104c-12.438-13.78-27.462-31.091-45.079-51.93c-8.902-10.541-16.09-19.413-21.559-26.617
	v28.212c0,7.687,0.12,16.944,0.363,27.774c0.145,7.979,0.483,12.57,1.017,13.778c0.193,0.531,0.556,0.941,1.089,1.231
	c0.918,0.533,4.401,1.017,10.45,1.451v6.099c-7.806-0.34-13.395-0.51-16.768-0.51C441.38,321.147,435.381,321.317,426.177,321.656z"
	/>
<path fill="#33651C" d="M605.612,285.945v-5.88c8.807,0.244,16.67,0.363,23.589,0.363c6.388,0,13.282-0.119,20.687-0.363v4.647
	c-2.129,0.676-4.161,1.475-6.097,2.396c-0.583,4.889-0.87,9.052-0.87,12.487c0,2.469,0.287,7.358,0.87,14.666
	c-9.581,3.452-17.601,5.788-24.061,7.011c-6.46,1.225-13.151,1.835-20.069,1.835c-18.679,0-33.304-4.851-43.876-14.554
	c-10.572-9.7-15.858-22.27-15.858-37.706c0-15.87,5.395-28.571,16.186-38.104c10.79-9.531,26.275-14.3,46.452-14.3
	c7.113,0,13.938,0.559,20.467,1.671c6.532,1.113,12.751,2.806,18.653,5.081l0.656,1.087c-1.404,6.146-2.447,13.791-3.122,22.938
	h-6.1c-0.047-4.597-0.36-8.66-0.94-12.194c-3.098-3.579-7.078-6.265-11.939-8.056c-4.861-1.79-10.608-2.688-17.238-2.688
	c-12.438,0-22.344,3.778-29.724,11.332c-7.378,7.557-11.067,17.895-11.067,31.019c0,13.997,3.884,25.269,11.647,33.814
	c7.769,8.548,17.335,12.82,28.707,12.82c6.049,0,12.485-1.476,19.308-4.426c0.388-3.727,0.58-7.259,0.58-10.598
	c0-7.451-0.436-11.565-1.307-12.34C620.272,287.133,615.096,286.477,605.612,285.945z"/>
<path fill="#33651C" d="M649.608,315.05c4.548-0.24,7.354-0.699,8.418-1.378c0.728-0.483,1.864-2.323,3.411-5.518
	c2.951-6.288,6.726-15.023,11.325-26.201l25.692-62.93h10.669l32.808,77.952c4.256,9.838,6.885,15.227,7.876,16.167
	c0.989,0.942,4.052,1.578,9.179,1.906v6.605c-7.883-0.339-15.331-0.509-22.346-0.509c-8.365,0-16.323,0.17-23.867,0.509v-6.605
	c5.757-0.235,9.082-0.556,9.975-0.956c0.896-0.401,1.346-1.123,1.346-2.163c0-0.897-1.019-3.971-3.05-9.217l-4.786-12.124
	c-6.011-0.146-12.721-0.217-20.132-0.217c-6.443,0-12.308,0.071-17.588,0.217l-3.188,8.155c-0.872,2.221-1.935,5.527-3.193,9.925
	c-0.288,0.992-0.433,1.891-0.433,2.693c0,1.088,0.468,1.854,1.413,2.306c0.94,0.448,4.339,0.909,10.192,1.381v6.605
	c-4.74-0.339-10.641-0.509-17.694-0.509c-6.722,0-12.064,0.17-16.026,0.509L649.608,315.05L649.608,315.05z M697.229,244.625
	l-15.322,37.328c4.453,0.241,9.369,0.361,14.743,0.361c5.615,0,10.988-0.12,16.119-0.361L697.229,244.625z"/>
<g>
	<g>
		<path fill="none" stroke="#1E531E" stroke-width="4" d="M813.404,221.41l1.778,0.188c-0.813,2.185-2.591,4.054-5.331,5.613
			l-3.278,8.14l-4.021,9.078l-0.843,2.339l-1.123,5.521l-4.583,16.937c-1.376,3.495-2.467,7.673-3.278,12.538l-0.188,1.872
			c-2.991,6.55-4.147,14.162-3.461,22.832c1.623,1.373,3.397,2.339,5.335,2.9c1.059-0.687,2.367-1.841,3.931-3.463
			c1.06-0.497,2.587-0.902,4.583-1.216c-2.12,2.744-4.864,5.053-8.234,6.923l-0.748,1.123l-1.122,0.28
			c-2.621,3.557-6.396,5.021-11.322,4.397c-1.623-2.368-2.743-5.581-3.368-9.638l2.435-9.823l0.466-3.932l2.061-7.674l0.748-5.613
			l0.747-2.246l0.471-3.272l1.496-2.715l0.187-2.152l2.058-7.019c0.25-1.933,0.875-3.99,1.875-6.177l0.372-1.683l2.715-8.609
			l1.028-2.807c1.496-2.184,2.56-4.71,3.181-7.581l1.125-0.467l0.277-1.591c2.437-1.871,4.807-4.396,7.113-7.579l1.31-0.469
			L813.404,221.41z"/>
		<path fill="none" stroke="#1E531E" stroke-width="4" d="M837.638,267.821h1.028l2.061,0.374
			c-0.875,4.491-2.714,10.076-5.522,16.75l-0.372,1.592l-0.563,1.496l-0.375,2.619l-0.935,1.592l-0.47,2.618
			c-1.561,3.995-2.402,8.643-2.525,13.943c4.117-0.686,7.798-2.714,11.04-6.082c0.938-0.313,1.811-0.187,2.622,0.374
			c-1.624,1.313-3.243,3.088-4.866,5.333c-3.245,1.249-6.457,3.275-9.64,6.082c-1.437,0.188-3.118,0.749-5.053,1.686
			c-0.313,0.063-0.652,0.28-1.03,0.654l-3.088-0.936l-0.747-4.116c0.312-2.371,1.091-5.146,2.34-8.329
			c0.063-1.871,0.654-4.147,1.777-6.83c0.188-2.433,0.966-5.021,2.339-7.767l-0.092-1.591l1.87-4.586l0.469-1.029l0.375-2.713
			c-2.311,1.249-5.146,3.089-8.518,5.521l-1.591,0.562l-0.563-1.966c1.874-0.872,3.558-2.307,5.053-4.305
			c1.437-0.622,2.745-1.714,3.931-3.273l2.996-2.151c1.745-1.313,4.116-2.775,7.111-4.398L837.638,267.821z M842.596,247.515
			c2.868,1.687,5.18,4.368,6.927,8.048c-6.302,5.49-10.169,6.986-11.604,4.492c-1.561-1.56-2.869-3.712-3.932-6.457
			c1.313-1.247,2.683-2.277,4.117-3.089l1.404-0.748l1.31-0.842l0.656-0.28C841.848,248.327,842.223,247.953,842.596,247.515z"/>
		<path fill="none" stroke="#1E531E" stroke-width="4" d="M917.828,222.906l9.356,0.748c0.438,1.499-1.027,3.963-4.396,7.394
			c-17.469-2.869-26.98,4.992-28.54,23.581l-0.469,3.182c0.063,1.249-0.156,2.494-0.652,3.742c-0.374,2.185-0.563,4.835-0.563,7.954
			L892,271.377v1.401v2.81l-0.651,3.274v1.403c-0.127,0.937-0.158,2.185-0.096,3.742c-0.438,2.434-0.5,5.365-0.188,8.796
			c4.679-0.247,9.266-1.839,13.756-4.771c0.687-0.188,1.277-0.03,1.779,0.468l-1.404,1.871c-2.308,0.625-4.522,1.966-6.644,4.023
			c-1.122,0.813-2.559,1.56-4.306,2.246l-3.835,2.712l-0.938,8.329l-1.123,3.181l0.096,1.404l-1.029,0.938v1.868l-0.562,1.498
			c-4.368,10.541-11.731,19.838-22.083,27.886c-1.56,0.187-3.433,0.777-5.613,1.775l-1.403-0.094l-1.404,0.094
			c-0.871-1.122-2.089-2.12-3.648-2.994c0.625-3.308,2.399-6.395,5.331-9.263c10.108,5.364,17.187,1.527,21.243-11.509l1.685-9.358
			c0.311-1.497,0.343-3.396,0.092-5.708l0.377-1.31l0.188-4.679c-1.313-0.061-2.562,0.063-3.744,0.374l-1.403-0.469l-3.273-0.094
			l-3.184-0.561l-0.936-0.468h-1.403l-1.029-0.47l-1.31-0.094l-1.87,0.376h-2.344c-1.559,0.374-3.272,1.122-5.145,2.246v-1.404
			c5.364-8.295,13.973-11.043,25.827-8.234c0.188-1.436,0.216-3.308,0.093-5.613l0.561-1.404c0-1.995,0.063-4.646,0.188-7.953
			l0.561-5.615l1.031-4.49l0.095-1.871l0.467-2.808c0.251-0.499,0.438-1.124,0.561-1.872l0.47-1.402
			c0.123-1.312,0.47-2.868,1.03-4.681l0.562-3.273c1.187-1.995,2.308-4.614,3.369-7.86c1.558-1.309,2.992-3.146,4.305-5.52
			l4.305-4.024l1.027-1.404l0.843-0.841l1.03-0.936l0.935-1.403c0.498-0.063,0.999-0.342,1.497-0.842
			c0.313-0.124,0.623-0.469,0.935-1.03l3.277-1.684c0.312-0.063,0.621-0.374,0.935-0.937l5.24-1.776
			C915.988,223.437,916.894,223.281,917.828,222.906z"/>
		<path fill="none" stroke="#1E531E" stroke-width="4" d="M943.281,269.038h2.62l2.714,0.562c1.994,0.748,3.99,1.996,5.987,3.743
			l1.029,0.561c0.686,1.747,1.06,3.712,1.123,5.896c-7.109,10.979-18.093,17.468-32.938,19.462
			c3.243,9.794,11.883,11.075,25.919,3.837l0.562,1.028c-15.156,15.347-27.414,16.625-36.774,3.837
			c-0.497-2.058-0.497-4.585,0-7.578C918.579,286.536,928.498,276.087,943.281,269.038z M934.111,277.646
			c-4.304,2.434-7.358,6.396-9.169,11.884c5.115,0.562,10.479,0.063,16.096-1.497l3.365-1.122l1.966-0.845l0.748-1.869
			C944.872,279.143,940.536,276.961,934.111,277.646z"/>
	</g>
</g>
<g>
	<g>
		<path fill="#D2D73D" d="M813.404,221.41l1.778,0.188c-0.813,2.185-2.591,4.054-5.331,5.613l-3.278,8.14l-4.021,9.078l-0.843,2.339
			l-1.123,5.521l-4.583,16.937c-1.376,3.495-2.467,7.673-3.278,12.538l-0.188,1.872c-2.991,6.55-4.147,14.162-3.461,22.832
			c1.623,1.373,3.397,2.339,5.335,2.9c1.059-0.687,2.367-1.841,3.931-3.463c1.06-0.497,2.587-0.902,4.583-1.216
			c-2.12,2.744-4.864,5.053-8.234,6.923l-0.748,1.123l-1.122,0.28c-2.621,3.557-6.396,5.021-11.322,4.397
			c-1.623-2.368-2.743-5.581-3.368-9.638l2.435-9.823l0.466-3.932l2.061-7.674l0.748-5.613l0.747-2.246l0.471-3.272l1.496-2.715
			l0.187-2.152l2.058-7.019c0.25-1.933,0.875-3.99,1.875-6.177l0.372-1.683l2.715-8.609l1.028-2.807
			c1.496-2.184,2.56-4.71,3.181-7.581l1.125-0.467l0.277-1.591c2.437-1.871,4.807-4.396,7.113-7.579l1.31-0.469L813.404,221.41z"/>
		<path fill="#D2D73D" d="M837.638,267.821h1.028l2.061,0.374c-0.875,4.491-2.714,10.076-5.522,16.75l-0.372,1.592l-0.563,1.496
			l-0.375,2.619l-0.935,1.592l-0.47,2.618c-1.561,3.995-2.402,8.643-2.525,13.943c4.117-0.686,7.798-2.714,11.04-6.082
			c0.938-0.313,1.811-0.187,2.622,0.374c-1.624,1.313-3.243,3.088-4.866,5.333c-3.245,1.249-6.457,3.275-9.64,6.082
			c-1.437,0.188-3.118,0.749-5.053,1.686c-0.313,0.063-0.652,0.28-1.03,0.654l-3.088-0.936l-0.747-4.116
			c0.312-2.371,1.091-5.146,2.34-8.329c0.063-1.871,0.654-4.147,1.777-6.83c0.188-2.433,0.966-5.021,2.339-7.767l-0.092-1.591
			l1.87-4.586l0.469-1.029l0.375-2.713c-2.311,1.249-5.146,3.089-8.518,5.521l-1.591,0.562l-0.563-1.966
			c1.874-0.872,3.558-2.307,5.053-4.305c1.437-0.622,2.745-1.714,3.931-3.273l2.996-2.151c1.745-1.313,4.116-2.775,7.111-4.398
			L837.638,267.821z M842.596,247.515c2.868,1.687,5.18,4.368,6.927,8.048c-6.302,5.49-10.169,6.986-11.604,4.492
			c-1.561-1.56-2.869-3.712-3.932-6.457c1.313-1.247,2.683-2.277,4.117-3.089l1.404-0.748l1.31-0.842l0.656-0.28
			C841.848,248.327,842.223,247.953,842.596,247.515z"/>
		<path fill="#D2D73D" d="M917.828,222.906l9.356,0.748c0.438,1.499-1.027,3.963-4.396,7.394
			c-17.469-2.869-26.98,4.992-28.54,23.581l-0.469,3.182c0.063,1.249-0.156,2.494-0.652,3.742c-0.374,2.185-0.563,4.835-0.563,7.954
			L892,271.377v1.401v2.81l-0.651,3.274v1.403c-0.127,0.937-0.158,2.185-0.096,3.742c-0.438,2.434-0.5,5.365-0.188,8.796
			c4.679-0.247,9.266-1.839,13.756-4.771c0.687-0.188,1.277-0.03,1.779,0.468l-1.404,1.871c-2.308,0.625-4.522,1.966-6.644,4.023
			c-1.122,0.813-2.559,1.56-4.306,2.246l-3.835,2.712l-0.938,8.329l-1.123,3.181l0.096,1.404l-1.029,0.938v1.868l-0.562,1.498
			c-4.368,10.541-11.731,19.838-22.083,27.886c-1.56,0.187-3.433,0.777-5.613,1.775l-1.403-0.094l-1.404,0.094
			c-0.871-1.122-2.089-2.12-3.648-2.994c0.625-3.308,2.399-6.395,5.331-9.263c10.108,5.364,17.187,1.527,21.243-11.509l1.685-9.358
			c0.311-1.497,0.343-3.396,0.092-5.708l0.377-1.31l0.188-4.679c-1.313-0.061-2.562,0.063-3.744,0.374l-1.403-0.469l-3.273-0.094
			l-3.184-0.561l-0.936-0.468h-1.403l-1.029-0.47l-1.31-0.094l-1.87,0.376h-2.344c-1.559,0.374-3.272,1.122-5.145,2.246v-1.404
			c5.364-8.295,13.973-11.043,25.827-8.234c0.188-1.436,0.216-3.308,0.093-5.613l0.561-1.404c0-1.995,0.063-4.646,0.188-7.953
			l0.561-5.615l1.031-4.49l0.095-1.871l0.467-2.808c0.251-0.499,0.438-1.124,0.561-1.872l0.47-1.402
			c0.123-1.312,0.47-2.868,1.03-4.681l0.562-3.273c1.187-1.995,2.308-4.614,3.369-7.86c1.558-1.309,2.992-3.146,4.305-5.52
			l4.305-4.024l1.027-1.404l0.843-0.841l1.03-0.936l0.935-1.403c0.498-0.063,0.999-0.342,1.497-0.842
			c0.313-0.124,0.623-0.469,0.935-1.03l3.277-1.684c0.312-0.063,0.621-0.374,0.935-0.937l5.24-1.776
			C915.988,223.437,916.894,223.281,917.828,222.906z"/>
		<path fill="#D2D73D" d="M943.281,269.038h2.62l2.714,0.562c1.994,0.748,3.99,1.996,5.987,3.743l1.029,0.561
			c0.686,1.747,1.06,3.712,1.123,5.896c-7.109,10.979-18.093,17.468-32.938,19.462c3.243,9.794,11.883,11.075,25.919,3.837
			l0.562,1.028c-15.156,15.347-27.414,16.625-36.774,3.837c-0.497-2.058-0.497-4.585,0-7.578
			C918.579,286.536,928.498,276.087,943.281,269.038z M934.111,277.646c-4.304,2.434-7.358,6.396-9.169,11.884
			c5.115,0.562,10.479,0.063,16.096-1.497l3.365-1.122l1.966-0.845l0.748-1.869C944.872,279.143,940.536,276.961,934.111,277.646z"
			/>
	</g>
</g>
<g>
	<path fill="#D9E5AF" d="M395.273,167.809c14.721-19.271,50.199-16.865,63.813,2.678c-3.005-8.227-6.196-16.604-9.275-24.199
		c-6.838,7.048-47.777,14.307-59.758-19.777c7.969-15.309,38.462-11.762,52.801,3.687c-1.696-3.594-3.789-7.616-4.925-8.815
		c-31.871-3.072-56.238-29.005-28.763-57.294c45.933-2.509,33.824,49.763,32.068,56.53c0.394,0.541,0.83,1.209,1.325,1.896
		c0.392,0.528,0.792,1.153,1.2,1.813c-1.274-19.818,12.793-42.617,28.613-40.266c20.856,30.156-10.267,59.438-19.5,60.019
		c2.416,6.115,4.911,12.902,7.366,19.807c-0.069-21.96,19.845-49.332,40.464-47.096c22.606,45.695-30.45,62.751-34.564,63.998
		c4.422,12.821,8.32,24.287,10.843,30.309c0,0-1.354,2.228-4.184,0.786c-1.401-5.513-5.01-16.742-9.5-29.591
		C458.052,187.145,419.562,220.158,395.273,167.809z"/>
	<path fill="#C4DA97" d="M429.768,185.477c-7.538-0.365-14.336-5.501-20.24-15.285c3.809-2.413,8.619-3.849,13.913-4.105
		c1.177-0.059,2.368-0.059,3.543-0.001c9.577,0.461,18.258,4.67,22.658,10.983c0.215,0.31,0.443,0.605,0.684,0.89
		c-4.56,3.225-11.527,7.168-18.694,7.517C431.004,185.505,430.383,185.507,429.768,185.477L429.768,185.477z M471.508,166.238
		c0.162-0.782,0.246-1.586,0.24-2.397c-0.043-14.978,11.275-30.514,21.58-34.619c2.007,6.657,1.876,12.666-0.39,17.902
		C488.923,156.391,478.876,162.69,471.508,166.238L471.508,166.238z M425.96,140.642c-9.981-0.479-17.35-4.354-21.958-11.527
		c1.444-0.496,3.213-0.812,5.187-0.909c0.896-0.043,1.803-0.041,2.721,0.002c8.385,0.404,17.428,4.351,22.503,9.821
		c0.627,0.677,1.324,1.268,2.072,1.767c-1.767,0.392-3.931,0.72-6.461,0.843C428.656,140.705,427.29,140.706,425.96,140.642
		L425.96,140.642z M454.347,130.717c0.028-0.582,0.013-1.169-0.05-1.756c0.737-1.682,1.07-3.527,0.949-5.374
		c-0.528-8.216,2.793-18.086,8.072-24.002c0.976-1.092,1.985-2.002,2.976-2.692c2.365,6.073,2.18,12.269-0.552,18.827
		C462.723,122.974,457.723,128.071,454.347,130.717L454.347,130.717z M431.796,108.718c-11.014-2.64-19.688-8.625-22.265-15.647
		c-1.912-5.212-0.284-11.096,4.842-17.513c6.187,0.318,10.553,2.14,13.343,5.569C433.357,88.068,432.883,100.57,431.796,108.718
		L431.796,108.718z"/>
</g>
<g>
	<path fill="#548026" d="M456.515,124.32c24.21-1.411,45.531,27.045,39.6,50.115c4.272-7.644,8.546-15.53,12.292-22.815
		c-9.804-0.589-42.015-26.881-23.997-58.195c16.803-3.948,34.007,21.475,31.652,42.423c1.612-3.63,3.302-7.839,3.467-9.482
		c-18.46-26.163-14.7-61.547,24.663-59.178c31.862,33.178-15.65,58.101-21.928,61.183c-0.148,0.652-0.37,1.418-0.57,2.243
		c-0.148,0.642-0.357,1.35-0.596,2.089c14.189-13.89,40.65-18.104,49.187-4.576c-9.252,35.479-51.743,30.993-58.208,24.375
		c-3.062,5.819-6.58,12.138-10.206,18.499c16.601-14.376,50.331-17.141,62.092-0.052c-19.894,46.944-67.43,17.858-71.055,15.551
		c-6.837,11.717-12.979,22.15-15.9,27.989c0,0-2.57,0.429-3.325-2.658c3.262-4.657,9.421-14.72,16.229-26.501
		C482.819,184.515,432.682,176.876,456.515,124.32z"/>
	<path fill="#719E39" d="M526.232,185.967c-1.19-0.057-2.408-0.175-3.66-0.353c-5.65-0.791-11.015-2.687-15.18-4.515
		c0.713-0.392,1.392-0.856,2.013-1.396c6.797-5.888,18.378-9.502,28.825-8.999c1.138,0.056,2.264,0.157,3.366,0.313
		c2.396,0.337,5.455,1.027,8.158,2.443C544.091,182.469,536.531,186.464,526.232,185.967L526.232,185.967z M484.74,172.662
		c-6.521-1.639-16.465-5.333-20.758-13.143c-3.12-5.671-3.106-13.346,0.028-22.854c5.979,1.819,11.789,6.365,15.983,12.634
		c4.841,7.225,6.697,15.548,4.971,22.268C484.872,171.93,484.797,172.297,484.74,172.662L484.74,172.662z M527.935,145.448
		c-1.455-0.069-2.501-0.196-2.967-0.262c-0.653-0.091-1.245-0.193-1.774-0.3c0.449-0.357,0.881-0.749,1.277-1.175
		c1.749-0.539,3.365-1.491,4.685-2.786c6.124-5.991,16.011-9.908,24.048-9.521c0.605,0.03,1.198,0.083,1.778,0.165
		c0.563,0.078,1.1,0.186,1.604,0.314C549.877,144.455,536.039,145.837,527.935,145.448L527.935,145.448z M504.638,137.336
		c-3.623-2.738-8.292-7.367-11.322-13.568c-2.981-6.104-3.568-12.065-1.766-18.109c6.745,3.824,14.443,16.671,13.067,28.9
		C504.514,135.502,504.524,136.433,504.638,137.336L504.638,137.336z M525.125,113.453c-5.179-10.067-6.304-20.543-2.66-27.08
		c2.699-4.854,8.223-7.455,16.429-7.755c3.778,4.874,5.249,9.371,4.488,13.698C541.822,101.143,532.021,108.955,525.125,113.453
		L525.125,113.453z"/>
</g>
</svg>
