<?xml version="1.0" encoding="utf-8"?>
<!-- Generator: Adobe Illustrator 16.0.0, SVG Export Plug-In . SVG Version: 6.00 Build 0)  -->
<!DOCTYPE svg PUBLIC "-//W3C//DTD SVG 1.1//EN" "http://www.w3.org/Graphics/SVG/1.1/DTD/svg11.dtd">
<svg version="1.1" id="Capa_1" xmlns="http://www.w3.org/2000/svg" xmlns:xlink="http://www.w3.org/1999/xlink" x="0px" y="0px"
	 width="356.988px" height="267.742px" viewBox="0 0 356.988 267.742" enable-background="new 0 0 356.988 267.742"
	 xml:space="preserve">
<path opacity="0.7" fill="#FFFFFF" d="M47.578,184.146c23.839-31.21,81.296-27.313,103.343,4.337
	c-4.866-13.323-10.035-26.89-15.02-39.191c-11.077,11.414-77.375,23.172-96.777-32.028c12.905-24.791,62.287-19.047,85.509,5.972
	c-2.746-5.821-6.136-12.335-7.977-14.28c-51.614-4.974-91.075-46.971-46.581-92.785c74.386-4.063,54.778,80.588,51.935,91.547
	c0.636,0.877,1.345,1.958,2.146,3.075c0.636,0.853,1.283,1.866,1.945,2.936c-2.063-32.095,20.718-69.018,46.337-65.206
	c33.776,48.837-16.626,96.254-31.579,97.196c3.912,9.901,7.952,20.895,11.93,32.074c-0.113-35.565,32.133-79.89,65.529-76.271
	c36.61,74.004-49.314,101.625-55.977,103.643c7.161,20.764,13.474,39.33,17.555,49.083c0,0-2.191,3.608-6.77,1.274
	c-2.269-8.93-8.116-27.114-15.389-47.924C149.247,215.457,86.911,268.919,47.578,184.146z"/>
<path opacity="0.5" fill="#FFFFFF" d="M103.44,212.757c-12.208-0.59-23.217-8.908-32.779-24.752
	c6.167-3.908,13.958-6.233,22.531-6.652c1.907-0.093,3.835-0.093,5.738,0c15.509,0.745,29.568,7.562,36.693,17.786
	c0.35,0.498,0.718,0.981,1.109,1.44c-7.386,5.223-18.669,11.609-30.278,12.174C105.443,212.804,104.435,212.804,103.44,212.757
	L103.44,212.757z M171.037,181.599c0.262-1.267,0.395-2.565,0.39-3.88c-0.072-24.257,18.258-49.417,34.946-56.064
	c3.25,10.779,3.04,20.513-0.631,28.992C199.239,165.655,182.967,175.854,171.037,181.599L171.037,181.599z M97.273,140.148
	c-16.163-0.777-28.096-7.052-35.558-18.668c2.34-0.806,5.204-1.314,8.4-1.473c1.448-0.069,2.919-0.066,4.407,0.005
	c13.577,0.654,28.222,7.042,36.442,15.905c1.016,1.096,2.144,2.051,3.355,2.861c-2.861,0.634-6.366,1.165-10.464,1.365
	C101.641,140.252,99.43,140.252,97.273,140.148L97.273,140.148z M143.247,124.074c0.046-0.941,0.02-1.894-0.082-2.843
	c1.196-2.723,1.735-5.711,1.54-8.703c-0.857-13.305,4.522-29.29,13.069-38.868c1.581-1.771,3.219-3.244,4.82-4.358
	c3.83,9.833,3.527,19.866-0.893,30.486C156.808,111.537,148.713,119.791,143.247,124.074L143.247,124.074z M106.724,88.448
	c-17.835-4.276-31.882-13.967-36.056-25.34c-3.097-8.441-0.459-17.968,7.84-28.36c10.017,0.515,17.088,3.467,21.607,9.019
	C109.254,55.006,108.484,75.253,106.724,88.448L106.724,88.448z"/>
<path opacity="0.8" fill="#FFFFFF" d="M146.758,113.716c39.208-2.287,73.733,43.799,64.128,81.157
	c6.919-12.378,13.839-25.149,19.906-36.948c-15.877-0.955-68.04-43.534-38.862-94.244c27.21-6.396,55.073,34.776,51.259,68.702
	c2.613-5.877,5.35-12.694,5.615-15.356c-29.895-42.371-23.808-99.673,39.942-95.836c51.598,53.731-25.349,94.088-35.512,99.083
	c-0.241,1.058-0.602,2.295-0.924,3.634c-0.242,1.037-0.58,2.185-0.965,3.38c22.979-22.491,65.833-29.318,79.655-7.41
	c-14.983,57.455-83.799,50.192-94.266,39.474c-4.957,9.424-10.655,19.654-16.528,29.957c26.882-23.282,81.51-27.756,100.554-0.083
	c-32.215,76.021-109.197,28.921-115.07,25.184c-11.071,18.976-21.021,35.873-25.747,45.329c0,0-4.163,0.691-5.385-4.308
	c5.281-7.543,15.256-23.836,26.281-42.919C189.352,211.199,108.16,198.826,146.758,113.716z"/>
<path opacity="0.7" fill="#FFFFFF" d="M259.66,213.548c-1.93-0.093-3.901-0.282-5.928-0.567c-9.152-1.28-17.838-4.35-24.583-7.312
	c1.155-0.634,2.254-1.386,3.26-2.262c11.006-9.534,29.762-15.387,46.681-14.573c1.843,0.091,3.665,0.255,5.451,0.506
	c3.881,0.547,8.835,1.664,13.213,3.958C288.581,207.886,276.339,214.354,259.66,213.548L259.66,213.548z M192.463,192.004
	c-10.559-2.653-26.661-8.636-33.617-21.281c-5.051-9.184-5.031-21.614,0.046-37.014c9.686,2.947,19.095,10.311,25.887,20.459
	c7.838,11.701,10.846,25.181,8.049,36.063C192.679,190.818,192.555,191.414,192.463,192.004L192.463,192.004z M262.417,147.931
	c-2.356-0.112-4.05-0.317-4.805-0.423c-1.057-0.146-2.018-0.316-2.873-0.485c0.729-0.58,1.426-1.214,2.068-1.904
	c2.833-0.873,5.451-2.413,7.586-4.513c9.917-9.701,25.928-16.043,38.945-15.415c0.98,0.046,1.94,0.134,2.88,0.267
	c0.913,0.124,1.78,0.298,2.598,0.508C297.949,146.324,275.543,148.563,262.417,147.931L262.417,147.931z M224.689,134.795
	c-5.866-4.435-13.428-11.932-18.335-21.975c-4.83-9.886-5.78-19.542-2.859-29.328c10.923,6.193,23.392,26.998,21.164,46.804
	C224.489,131.823,224.504,133.332,224.689,134.795L224.689,134.795z M257.865,96.117c-8.384-16.302-10.206-33.268-4.308-43.854
	c4.373-7.859,13.315-12.073,26.604-12.559c6.119,7.893,8.501,15.179,7.27,22.185C284.906,76.183,269.034,88.833,257.865,96.117
	L257.865,96.117z"/>
</svg>
