<?xml version="1.0" encoding="utf-8"?>
<!-- Generator: Adobe Illustrator 19.0.0, SVG Export Plug-In . SVG Version: 6.00 Build 0)  -->
<svg version="1.1" id="Capa_1" xmlns="http://www.w3.org/2000/svg" xmlns:xlink="http://www.w3.org/1999/xlink" x="0px" y="0px"
	 viewBox="380 -14.6 960 229.6" style="enable-background:new 380 -14.6 960 229.6;" xml:space="preserve">
<style type="text/css">
	.st0{fill:url(#SVGID_1_);}
	.st1{fill:#FFFFFF;}
	.st2{fill:url(#SVGID_2_);}
	.st3{fill:url(#SVGID_3_);}
</style>
<linearGradient id="SVGID_1_" gradientUnits="userSpaceOnUse" x1="828.0294" y1="202.6469" x2="828.0294" y2="30.5616" gradientTransform="matrix(0.9998 2.190000e-002 -2.190000e-002 0.9998 4.6042 -43.5403)">
	<stop  offset="0" style="stop-color:#FFFFFF;stop-opacity:0"/>
	<stop  offset="1.080000e-002" style="stop-color:#FFFFFF;stop-opacity:8.600000e-003"/>
	<stop  offset="1" style="stop-color:#FFFFFF;stop-opacity:0.8"/>
</linearGradient>
<path class="st0" d="M824,176.5c-36.8-19.7-52.4-59.5-47.4-92.3c6.2-41.3,34.9-83.9,57.2-86.4c2.3-0.2,4.1,0,6.1,0.2
	c27.5,3.6,44.8,74.7,44.1,97.9c-1.2,39.4-30.9,61-50.6,78.9"/>
<g>
	<path class="st1" d="M827.9,52.8c-1.4,5-2.7,10-3.8,15.1c-0.6,2.6-1.1,5.1-1.6,7.7c-0.4,2.6-0.9,5.1-1.3,7.7
		c-0.3,2.6-0.8,5.1-1,7.8l-0.4,3.9l-0.3,3.9l-0.3,3.9l-0.2,3.9l-0.2,3.9l-0.1,3.9c-0.1,2.6-0.1,5.2-0.1,7.8c0,2.6,0.1,5.2,0.2,7.8
		s0.2,5.2,0.4,7.8c0.1,2.6,0.4,5.2,0.7,7.8c0.2,2.6,0.6,5.1,0.9,7.8c0.3,2.6,0.8,5.1,1.2,7.7c0.2,1.3,0.4,2.6,0.7,3.8
		c0.2,1.2,0.4,2.6,0.8,3.8c0.6,2.6,1.1,5.1,1.7,7.6l0.4,1.9l-1.8-0.9c-8.1-4.3-15.6-9.8-22-16.2c-6.5-6.5-12-13.9-16.4-22
		c-4.3-8.1-7.5-16.8-9.2-25.8c-1.8-9-2.2-18.4-1-27.5s3.4-18,6.5-26.7s6.8-17,11.2-25s9.7-15.6,15.9-22.4c3.1-3.3,6.6-6.6,10.3-9.3
		c3.8-2.7,8.1-5,12.9-6c0.7-0.1,1.2-0.2,1.9-0.3c0.3,0,0.6-0.1,0.9-0.1c0.3,0,0.7,0,1,0c1.2,0,2.4,0.1,3.7,0.2l0.9,0.1l0.9,0.1
		c0.6,0.1,1.2,0.2,1.9,0.4c1.2,0.3,2.3,0.8,3.4,1.3c2.2,1,4.2,2.4,6,4c1.8,1.6,3.4,3.2,5,5c3,3.6,5.6,7.5,7.9,11.5
		c2.2,4,4.2,8.2,6,12.4c3.6,8.5,6.5,17.1,8.8,26c2.3,8.9,4.2,17.8,5.3,26.9c0.2,2.3,0.4,4.6,0.6,6.9c0,1.1,0.1,2.3,0.1,3.6
		c0,0.6,0,1.1,0,1.8l-0.1,1.7l-0.1,1.7l-0.2,1.8c-0.1,1.2-0.2,2.3-0.4,3.4c-0.2,1.1-0.3,2.3-0.6,3.4c-0.2,1.1-0.4,2.3-0.8,3.4
		c-2.1,9.1-6.1,17.7-11.4,25.4c-5.1,7.7-11.4,14.6-18,20.8c-3.3,3.1-6.7,6.2-10.1,9.1l-10.2,8.9l-2,1.7l-0.4-2.4
		c-0.6-3.1-0.9-6.2-1.3-9.3c-0.3-3.1-0.7-6.2-1-9.3c-0.3-3.1-0.6-6.2-0.8-9.3l-0.2-4.7c-0.1-1.6-0.1-3.1-0.2-4.7
		c-0.1-1.6-0.1-3.1-0.1-4.7l-0.1-4.7v-4.7c0-1.6,0-3.1,0-4.7s0-3.1,0.1-4.7l0.2-4.7c0.1-1.6,0.2-3.1,0.3-4.7l0.3-4.7h0.4l0,5
		c0,1.6-0.1,3.1-0.1,4.7v4.7c0,1.6,0,3.1,0.1,4.7c0,1.6,0,3.1,0.1,4.7l0.2,4.7l0.2,4.7c0.1,1.6,0.2,3.1,0.3,4.7
		c0.1,1.6,0.2,3.1,0.3,4.7l0.4,4.7c0.3,3.1,0.6,6.2,1,9.2c0.3,3.1,0.8,6.1,1.2,9.2s0.9,6.1,1.4,9.1l-2.3-0.8
		c6.7-6.2,13.6-12,19.9-18.4s12.4-13,17.1-20.5c4.8-7.5,8.5-15.6,10.5-24.1c0.3-1.1,0.4-2.1,0.7-3.2c0.2-1.1,0.3-2.1,0.6-3.2
		c0.2-1.1,0.3-2.2,0.3-3.2l0.1-1.7l0.1-1.7c0.3-4.3-0.1-8.8-0.6-13.2c-1.1-8.9-2.9-17.7-5.1-26.4c-2.2-8.7-5-17.2-8.5-25.5
		c-1.8-4.1-3.6-8.1-5.8-12c-2.1-3.9-4.6-7.6-7.3-11c-2.8-3.3-6-6.3-9.8-8.1c-0.9-0.4-1.9-0.8-2.9-1.1l-0.7-0.2
		c-0.1,0-0.2-0.1-0.3-0.1l-0.4-0.1L839.6,0l-0.9-0.1c-1.1-0.1-2.1-0.2-3.1-0.2c-0.2,0-0.4,0-0.8,0c-0.2,0-0.6,0-0.8,0.1
		c-0.4,0-1,0.1-1.6,0.2c-4.1,0.8-8,2.8-11.6,5.2c-3.6,2.6-6.9,5.6-9.9,8.8c-6.1,6.5-11.2,13.9-15.7,21.7c-4.5,7.8-8.2,16-11.2,24.5
		s-5.2,17.2-6.5,26c-1.2,8.8-0.8,17.9,0.8,26.6c1.7,8.8,4.7,17.4,8.8,25.3c4.1,7.9,9.5,15.2,15.8,21.6c6.2,6.3,13.6,11.8,21.5,16.1
		l-1.3,1c-0.6-2.6-1.1-5.1-1.6-7.7c-0.2-1.3-0.4-2.6-0.7-3.9c-0.2-1.3-0.4-2.6-0.7-3.9c-0.4-2.6-0.8-5.2-1.1-7.8
		c-0.3-2.6-0.6-5.2-0.8-7.8c-0.2-2.6-0.4-5.2-0.6-7.8c-0.1-2.6-0.2-5.2-0.3-7.8c-0.1-2.6-0.1-5.2-0.1-7.8c0-2.6,0.1-5.2,0.1-7.8
		l0.2-3.9l0.2-3.9l0.3-3.9l0.3-3.9l0.4-3.9l0.4-3.9c0.3-2.6,0.7-5.2,1.1-7.8c0.4-2.6,0.9-5.1,1.3-7.7c0.4-2.6,1-5.1,1.6-7.7
		c1.1-5.1,2.4-10.1,4-15.1L827.9,52.8z"/>
</g>
<linearGradient id="SVGID_2_" gradientUnits="userSpaceOnUse" x1="853.2324" y1="210.6429" x2="966.8524" y2="168.3924" gradientTransform="matrix(0.9998 2.190000e-002 -2.190000e-002 0.9998 4.6042 -43.5403)">
	<stop  offset="0" style="stop-color:#FFFFFF;stop-opacity:0"/>
	<stop  offset="1.080000e-002" style="stop-color:#FFFFFF;stop-opacity:8.600000e-003"/>
	<stop  offset="1" style="stop-color:#FFFFFF;stop-opacity:0.8"/>
</linearGradient>
<path class="st2" d="M855.5,185.7c2-28,21.1-48.2,42.6-54.1c27.2-7.5,61.1-1.6,68.8,11.5c0.8,1.3,1.1,2.6,1.6,3.8
	c5.3,17.9-33.6,48.1-48.1,54c-24.6,10-45-2.7-61.3-9.9"/>
<g>
	<path class="st1" d="M931.5,154.7c-6.9,1-13.6,2.4-20.3,4.2c-1.7,0.4-3.3,1-5,1.4c-1.7,0.6-3.3,1.1-4.9,1.7
		c-1.7,0.6-3.2,1.1-4.9,1.8c-1.6,0.7-3.2,1.2-4.8,1.9c-1.6,0.7-3.1,1.3-4.8,2.1c-1.6,0.8-3.1,1.4-4.7,2.2c-1.6,0.8-3.1,1.6-4.6,2.3
		c-1.6,0.8-3,1.7-4.6,2.6c-1.4,0.9-3,1.8-4.5,2.7c-1.4,0.9-2.9,1.9-4.3,2.8c-1.4,1-2.9,1.9-4.2,3c-1.4,1-2.8,2-4.1,3.1l-1.6,1.2
		l0.1-2c0.4-6.1,1.7-12.2,3.8-18s5.1-11.2,8.8-16.1c7.5-9.8,18-17.4,29.9-20.9c5.9-1.8,12-2.8,18.1-3.3c6.1-0.6,12.2-0.4,18.5,0.1
		c6.1,0.6,12.2,1.7,18.1,3.7c2.9,1,5.9,2.2,8.6,3.9c2.8,1.7,5.3,3.7,7.3,6.5c0.2,0.3,0.4,0.7,0.7,1.1c0.1,0.2,0.2,0.3,0.3,0.6
		s0.2,0.4,0.3,0.7c0.3,0.8,0.7,1.6,0.9,2.3l0.2,0.6l0.1,0.7c0.1,0.3,0.2,0.9,0.2,1.3c0.1,0.9,0.2,1.8,0.1,2.6
		c-0.1,3.4-1.1,6.6-2.6,9.5c-2.8,5.8-6.7,10.7-10.9,15.2c-4.2,4.6-8.8,8.7-13.5,12.6c-2.3,1.9-4.8,3.8-7.3,5.6
		c-2.4,1.8-5,3.6-7.7,5.1c-2.7,1.6-5.3,3.1-8.5,4.2c-0.8,0.2-1.3,0.6-2.1,0.8s-1.6,0.6-2.3,0.8c-1.6,0.4-3,0.8-4.6,1.1
		c-6.2,1.2-12.7,1.1-18.8,0c-6.2-1.1-12-3.2-17.7-5.7c-5.7-2.4-11-5.2-16.5-7.8l-2.3-1.1l2.1-1.3c1.8-1.1,3.6-2.2,5.3-3.3
		c1.8-1,3.6-2.1,5.3-3.1s3.7-2,5.5-2.9s3.7-1.9,5.6-2.8c0.9-0.4,1.9-0.9,2.8-1.3l2.8-1.3l2.8-1.2c0.9-0.4,1.9-0.8,2.9-1.2
		c1-0.3,1.9-0.8,2.9-1.1l2.9-1.1c1.9-0.8,3.9-1.3,5.8-2.1l0.1,0.3c-1.9,0.8-3.8,1.6-5.7,2.4l-2.8,1.2c-0.9,0.4-1.9,0.9-2.8,1.3
		c-0.9,0.4-1.9,0.9-2.8,1.3l-2.8,1.3l-2.7,1.4c-0.9,0.4-1.8,1-2.7,1.4l-2.7,1.4l-2.7,1.6c-1.8,1-3.6,2-5.2,3.1
		c-1.8,1.1-3.4,2.1-5.2,3.2c-1.7,1.1-3.4,2.2-5,3.4l-0.1-2.6c5.7,2.3,11.1,5,16.7,7.2c5.6,2.2,11.2,4.1,17,5
		c5.8,0.9,11.7,0.9,17.4-0.2c1.4-0.3,2.8-0.7,4.2-1c0.7-0.2,1.3-0.4,2-0.7s1.4-0.6,2.1-0.8c2.6-1,5.2-2.4,7.8-4
		c5-3.1,9.9-6.6,14.6-10.2c4.7-3.8,9.1-7.8,13.2-12c4-4.3,7.8-9,10.3-14.1c1.2-2.6,2.2-5.2,2.2-7.9c0-0.7,0-1.3-0.1-1.9
		c-0.1-0.3-0.1-0.6-0.2-0.9l-0.1-0.4l-0.1-0.6c-0.2-0.7-0.4-1.3-0.7-1.9c-0.1-0.1-0.1-0.2-0.2-0.4c0-0.1-0.2-0.3-0.2-0.4
		c-0.1-0.2-0.3-0.6-0.6-0.8c-1.4-2.2-3.8-4-6.2-5.5c-2.4-1.4-5.1-2.7-7.9-3.7c-5.6-1.9-11.5-3.1-17.4-3.7
		c-5.9-0.7-11.9-0.7-17.9-0.2c-5.9,0.4-11.9,1.3-17.6,3c-11.4,3.2-21.6,10.3-28.9,19.7c-3.7,4.7-6.6,9.9-8.7,15.5
		c-2.1,5.6-3.4,11.5-3.9,17.5l-1.4-0.8c1.4-1,2.8-2,4.2-3c1.4-1,2.9-2,4.3-2.9c1.4-1,2.9-1.9,4.5-2.8c1.4-0.9,3-1.8,4.6-2.7
		c1.6-0.9,3-1.7,4.6-2.4c1.6-0.8,3.1-1.6,4.7-2.3c1.6-0.8,3.1-1.4,4.8-2.2c1.6-0.7,3.2-1.3,4.8-2c1.7-0.7,3.2-1.2,4.9-1.9
		c1.7-0.6,3.2-1.1,4.9-1.7c1.7-0.6,3.3-1,5-1.6c1.7-0.4,3.3-1,5-1.3c6.7-1.8,13.6-3.1,20.5-4H931.5z"/>
</g>
<linearGradient id="SVGID_3_" gradientUnits="userSpaceOnUse" x1="795.5724" y1="211.1176" x2="688.804" y2="168.2958" gradientTransform="matrix(0.9998 2.190000e-002 -2.190000e-002 0.9998 4.6042 -43.5403)">
	<stop  offset="0" style="stop-color:#FFFFFF;stop-opacity:0"/>
	<stop  offset="1.080000e-002" style="stop-color:#FFFFFF;stop-opacity:8.600000e-003"/>
	<stop  offset="1" style="stop-color:#FFFFFF;stop-opacity:0.8"/>
</linearGradient>
<path class="st3" d="M795.8,184.5c-0.8-28.2-19-49-40.2-55.9c-26.7-8.7-61-4.2-69.2,8.5c-0.9,1.3-1.2,2.4-1.7,3.8
	c-6.1,17.5,31.4,49.3,45.6,55.9c24,11.1,45-0.7,61.7-7.2"/>
<g>
	<path class="st1" d="M721.3,149.7c6.8,1.2,13.6,2.8,20.3,4.9c1.7,0.6,3.3,1,5,1.6c1.7,0.6,3.2,1.1,4.9,1.8s3.2,1.2,4.9,1.9
		c1.6,0.7,3.2,1.3,4.8,2.1c1.6,0.7,3.1,1.4,4.7,2.2c1.6,0.8,3.1,1.6,4.7,2.3c1.6,0.8,3,1.7,4.6,2.6c1.6,0.9,3,1.8,4.5,2.7
		c1.4,0.9,2.9,1.9,4.5,2.8c1.4,1,2.9,2,4.3,3c1.4,1,2.8,2,4.2,3.1c1.3,1,2.8,2.1,4.1,3.2l-1.7,0.7c-0.2-6-1.2-11.9-3.1-17.6
		s-4.6-11-8-15.9c-6.9-9.7-16.8-17.2-28-21c-5.7-1.9-11.6-3.1-17.5-3.8c-5.9-0.7-11.9-0.9-17.9-0.6c-5.9,0.3-11.9,1.2-17.5,3
		c-2.8,0.9-5.6,1.9-8.1,3.3c-2.6,1.3-4.8,3.1-6.5,5.2c-0.2,0.2-0.4,0.6-0.6,0.8c-0.1,0.1-0.2,0.3-0.2,0.4c-0.1,0.1-0.1,0.2-0.2,0.4
		c-0.3,0.6-0.6,1.2-0.8,1.9l-0.2,0.6l-0.1,0.4c-0.1,0.4-0.1,0.7-0.2,0.9c-0.1,0.7-0.2,1.3-0.2,1.9c0,2.7,0.8,5.5,1.9,8
		c2.3,5.2,5.9,10.1,9.8,14.6c3.9,4.5,8.1,8.7,12.7,12.6c4.5,3.9,9.2,7.6,14.1,10.9c2.4,1.7,5,3.2,7.6,4.3c0.7,0.3,1.4,0.7,2.1,0.9
		c0.7,0.2,1.3,0.6,2,0.8c1.3,0.4,2.8,0.9,4.1,1.2c5.7,1.3,11.5,1.7,17.4,1c5.8-0.7,11.6-2.3,17.2-4.2c5.7-2,11.2-4.3,16.9-6.5
		l-0.3,2.6c-1.6-1.2-3.2-2.4-4.9-3.7c-1.7-1.2-3.3-2.3-5-3.4c-1.7-1.1-3.4-2.2-5.1-3.3l-2.6-1.7l-2.7-1.6c-0.9-0.6-1.8-1.1-2.7-1.6
		l-2.7-1.6l-2.7-1.6c-0.9-0.6-1.8-1-2.7-1.4c-0.9-0.4-1.8-1-2.7-1.4l-2.8-1.3c-1.8-0.9-3.7-1.8-5.6-2.7l0.1-0.3
		c1.9,0.8,3.8,1.6,5.7,2.3l2.8,1.2c0.9,0.4,1.9,0.9,2.8,1.3c0.9,0.4,1.9,0.9,2.8,1.3l2.8,1.3l2.8,1.4c0.9,0.4,1.8,0.9,2.8,1.4
		c1.8,1,3.6,2,5.5,3c1.8,1,3.6,2.1,5.3,3.2c1.8,1.1,3.4,2.2,5.2,3.3c1.8,1.1,3.4,2.3,5.1,3.6l2,1.4l-2.3,1c-5.6,2.3-11,4.9-16.8,7.1
		c-5.7,2.2-11.7,4-17.9,4.9c-6.2,0.9-12.7,0.7-18.8-0.8c-1.6-0.3-3-0.8-4.6-1.3c-0.8-0.2-1.6-0.6-2.2-0.8c-0.8-0.3-1.4-0.6-2.1-0.9
		c-3-1.3-5.7-2.9-8.2-4.7c-2.6-1.7-5.1-3.6-7.5-5.5c-2.4-1.9-4.8-3.9-7.1-5.9c-4.6-4.1-9-8.5-12.9-13.1c-4-4.8-7.7-9.8-10.1-15.7
		c-1.2-2.9-2.1-6.1-2.1-9.6c0-0.9,0.1-1.7,0.2-2.6c0.1-0.4,0.2-1,0.3-1.3l0.2-0.6l0.2-0.6c0.2-0.8,0.6-1.6,1-2.3
		c0.1-0.2,0.2-0.4,0.3-0.6c0.1-0.2,0.2-0.3,0.3-0.6c0.2-0.4,0.4-0.8,0.8-1.1c2.1-2.7,4.8-4.6,7.7-6.1c2.8-1.4,5.8-2.6,8.8-3.4
		c6-1.8,12.1-2.6,18.3-2.9c6.1-0.3,12.4,0,18.4,0.8c6.1,0.8,12.1,2.1,17.9,4.1c11.8,4,21.9,12.1,29,22.3c3.6,5.1,6.2,10.7,8.1,16.6
		s2.8,12,2.9,18.1v2l-1.4-1.7c-1.3-1.1-2.7-2.2-4-3.2c-1.3-1.1-2.7-2.1-4.1-3.1c-1.3-1-2.8-2-4.2-3s-2.9-1.9-4.3-2.9
		c-1.4-0.9-2.9-1.9-4.5-2.7c-1.4-0.9-3-1.8-4.5-2.6c-1.6-0.9-3-1.7-4.6-2.4c-1.6-0.8-3.1-1.6-4.7-2.3c-1.6-0.8-3.1-1.4-4.7-2.1
		c-1.6-0.7-3.2-1.3-4.8-2c-1.6-0.7-3.2-1.2-4.9-1.8c-1.7-0.6-3.2-1.1-4.9-1.7c-6.6-2.1-13.2-3.9-20-5.1L721.3,149.7z"/>
</g>
</svg>
