<?xml version="1.0" encoding="utf-8"?>
<!-- Generator: Adobe Illustrator 16.0.0, SVG Export Plug-In . SVG Version: 6.00 Build 0)  -->
<!DOCTYPE svg PUBLIC "-//W3C//DTD SVG 1.1//EN" "http://www.w3.org/Graphics/SVG/1.1/DTD/svg11.dtd">
<svg version="1.1" id="Capa_1" xmlns="http://www.w3.org/2000/svg" xmlns:xlink="http://www.w3.org/1999/xlink" x="0px" y="0px"
	 width="960px" height="560px" viewBox="0 0 960 560" enable-background="new 0 0 960 560" xml:space="preserve">
<g>
	<g>
		<path fill="#FFFFFF" d="M14.873,377.237v-5.973l4.241-0.284c3.439-0.189,5.596-0.782,6.468-1.777
			c0.871-0.996,1.378-4.36,1.52-10.097c0.331-11.695,0.498-24.363,0.498-38.002c0-7.245-0.036-15.484-0.106-24.719
			c-0.071-5.588-0.391-8.997-0.96-10.228c-0.285-0.615-0.807-1.113-1.564-1.492c-0.758-0.379-4.124-0.781-10.096-1.208v-5.972
			c5.727,0.142,11.336,0.213,16.827,0.213c6.389,0,12.542-0.071,18.458-0.213c2.56,6.016,5.216,11.983,7.966,17.903
			c1.944,4.216,10.55,22.096,25.82,53.642c16.137-32.397,27.433-56.245,33.887-71.545c5.674,0.238,11.064,0.355,16.171,0.355
			c6.006,0,11.798-0.118,17.378-0.355v5.972c-6.21,0.381-9.717,0.925-10.522,1.636c-0.807,0.711-1.328,2.892-1.564,6.541
			c-0.333,5.967-0.498,17.308-0.498,34.023c0,8.43,0.083,17.332,0.249,26.708c0.166,9.376,0.485,14.681,0.96,15.912
			c0.331,0.711,0.805,1.257,1.422,1.636c0.615,0.38,3.934,0.83,9.954,1.351v5.973c-7.679-0.333-14.528-0.498-20.547-0.498
			c-6.068,0-14.315,0.165-24.742,0.498v-5.973l4.195-0.143c3.317-0.142,5.392-0.604,6.221-1.386c0.829-0.782,1.362-2.844,1.6-6.186
			c0.237-3.342,0.355-11.216,0.355-23.624v-42.903c-7.309,14.65-16.633,33.85-27.975,57.6c-4.651,9.768-8.282,17.731-10.892,23.894
			h-4.676c-3.559-8.154-8.327-18.464-14.306-30.934l-24.625-50.56v9.661c0,26.71,0.118,45.108,0.355,55.195
			c0.142,4.077,0.687,6.589,1.635,7.536c0.948,0.949,4.479,1.564,10.594,1.849v5.973c-4.825-0.333-9.649-0.498-14.474-0.498
			C26.91,376.739,20.501,376.904,14.873,377.237z"/>
		<path fill="#FFFFFF" d="M206.989,378.658c-17.49,0-30.881-4.49-40.17-13.474c-9.291-8.981-13.935-21.34-13.935-37.077
			c0-10.996,2.25-20.346,6.754-28.049c4.502-7.701,10.747-13.615,18.734-17.738c7.986-4.124,18.26-6.186,30.821-6.186
			c12.087,0,21.969,1.98,29.648,5.937c7.679,3.958,13.591,9.456,17.739,16.494c4.147,7.039,6.221,15.678,6.221,25.916
			c0,11.091-2.275,20.678-6.825,28.759c-4.55,8.082-10.961,14.339-19.232,18.771C228.472,376.443,218.553,378.658,206.989,378.658z
			 M209.691,370.98c9.527,0,17.123-3.521,22.787-10.567c5.664-7.044,8.496-17.753,8.496-32.126c0-15.085-3.247-26.66-9.74-34.725
			c-5.261-6.499-13.367-9.748-24.315-9.748c-10.238,0-18.166,3.393-23.783,10.176s-8.425,17.219-8.425,31.308
			c0,10.152,1.54,18.751,4.621,25.795c3.081,7.044,7.003,12.12,11.767,15.228C195.862,369.427,202.059,370.98,209.691,370.98z"/>
		<path fill="#FFFFFF" d="M264.871,377.237v-5.973c5.498-0.474,8.649-0.924,9.456-1.351c0.521-0.284,0.9-0.734,1.138-1.352
			c0.473-1.137,0.805-4.977,0.995-11.518c0.237-10.143,0.355-18.13,0.355-23.96c0-7.867-0.096-17.869-0.284-30.003
			c-0.19-9.054-0.64-14.599-1.351-16.638c-0.19-0.615-0.569-1.09-1.138-1.422c-0.759-0.473-3.816-0.995-9.171-1.564v-5.972
			c9.812,0.332,16.139,0.498,18.983,0.498l35.621-0.498c7.725,0,13.354,0.745,16.886,2.236c3.53,1.49,6.328,3.882,8.39,7.171
			c2.062,3.289,3.093,7.158,3.093,11.606c0,5.679-1.647,10.66-4.941,14.944c-3.295,4.283-9.019,8.08-17.17,11.394l15.144,22.822
			l11.802,17.49c2.228,2.844,3.886,4.563,4.977,5.154c1.09,0.594,2.867,0.913,5.332,0.96v5.475l-4.195,0.071
			c-12.04,0.094-19.79,0.236-23.249,0.427c-4.124-6.588-10.286-16.14-18.485-28.653l-14.646-22.253
			c0.427-0.806,0.782-1.659,1.067-2.56c1.895,0.237,3.293,0.355,4.194,0.355c4.408,0,8.745-1.781,13.011-5.343
			c4.266-3.562,6.399-8.642,6.399-15.243c0-5.745-1.688-10.209-5.061-13.391c-3.374-3.182-8.434-4.772-15.182-4.772
			c-2.138,0-5.037,0.167-8.695,0.498l-0.467,20.991l-0.6,26.613c0,6.024,0.235,13.733,0.708,23.126
			c0.376,7.068,0.753,11.03,1.131,11.883c0.282,0.618,0.801,1.116,1.555,1.494c0.99,0.57,4.196,0.997,9.617,1.281v5.973
			c-8.519-0.333-16.067-0.498-22.645-0.498C280.441,376.739,272.916,376.904,264.871,377.237z"/>
		<path fill="#FFFFFF" d="M370.026,377.237v-5.973c6.503-0.331,10.179-0.876,11.028-1.635c0.849-0.758,1.368-2.631,1.557-5.617
			c0.378-6.257,0.569-17.917,0.569-34.98c0-6.541-0.096-16.021-0.285-28.439c-0.096-8.483-0.284-13.141-0.569-13.971
			c-0.284-0.828-0.782-1.433-1.493-1.813c-1.043-0.521-4.646-0.971-10.807-1.352v-5.972c9.764,0.332,17.229,0.498,22.396,0.498
			c8.911,0,16.968-0.166,24.173-0.498v5.972c-6.483,0.381-10.142,0.89-10.976,1.529c-0.834,0.64-1.371,2.122-1.608,4.443
			c-0.38,4.551-0.569,13.77-0.569,27.657c0,18.485,0.071,31.366,0.213,38.642c0.142,7.276,0.569,11.602,1.28,12.976
			c0.284,0.616,0.889,1.103,1.813,1.458s4.206,0.723,9.847,1.102v5.973l-8.39-0.214c-5.309-0.189-10.049-0.284-14.22-0.284
			L370.026,377.237z"/>
		<path fill="#FFFFFF" d="M426.477,377.237v-5.973c5.782-0.236,9.172-0.615,10.167-1.138c0.663-0.379,1.161-0.995,1.493-1.849
			c0.521-1.138,0.845-5.143,0.972-12.016c0.252-11.375,0.378-19.954,0.378-25.737l-0.141-30.074c0-7.963-0.26-12.561-0.778-13.793
			c-0.283-0.711-0.731-1.232-1.344-1.564c-0.943-0.568-4.526-1.113-10.748-1.636v-5.972c7.41,0.238,12.896,0.355,16.461,0.355
			c3.939,0,8.417-0.118,13.437-0.355c10.946,13.966,23.32,29.12,37.123,45.461c9.184,10.927,17.109,19.951,23.771,27.077v-28.223
			c0-10.69-0.119-19.908-0.355-27.653c-0.189-4.607-0.568-7.435-1.137-8.48c-0.285-0.569-0.807-0.975-1.564-1.212
			c-0.76-0.237-4.078-0.57-9.953-0.998v-5.972c5.154,0.238,10.287,0.355,15.395,0.355c7.002,0,13.34-0.118,19.016-0.355v5.972
			c-5.279,0.333-8.459,0.712-9.543,1.138c-0.613,0.238-1.107,0.569-1.484,0.996c-0.377,0.426-0.66,0.972-0.85,1.635
			c-0.33,1.138-0.523,4.788-0.582,10.949l-0.268,28.439l-0.143,28.652c0,7.679,0.166,15.357,0.498,23.036l-0.928,0.995
			c-5.764-1.043-9.836-1.73-12.217-2.062c-12.182-13.498-26.902-30.454-44.157-50.866c-8.723-10.325-15.763-19.016-21.12-26.073
			v27.634c0,7.529,0.118,16.599,0.355,27.207c0.143,7.814,0.474,12.313,0.996,13.498c0.189,0.521,0.544,0.923,1.066,1.207
			c0.9,0.521,4.313,0.994,10.238,1.421v5.973c-7.647-0.333-13.122-0.498-16.426-0.498
			C441.369,376.739,435.492,376.904,426.477,377.237z"/>
		<path fill="#FFFFFF" d="M602.244,342.256v-5.759c8.626,0.237,16.328,0.355,23.106,0.355c6.257,0,13.011-0.118,20.263-0.355v4.55
			c-2.086,0.664-4.076,1.446-5.972,2.348c-0.569,4.789-0.854,8.866-0.854,12.232c0,2.418,0.284,7.207,0.854,14.366
			c-9.385,3.381-17.241,5.671-23.569,6.868c-6.327,1.198-12.881,1.797-19.658,1.797c-18.297,0-32.623-4.752-42.979-14.256
			c-10.356-9.502-15.534-21.814-15.534-36.936c0-15.546,5.284-27.987,15.854-37.326c10.569-9.337,25.737-14.006,45.503-14.006
			c6.968,0,13.65,0.545,20.05,1.635c6.398,1.091,12.488,2.75,18.272,4.977l0.64,1.067c-1.376,6.02-2.395,13.508-3.058,22.467h-5.972
			c-0.048-4.503-0.355-8.484-0.925-11.944c-3.034-3.508-6.932-6.138-11.695-7.893c-4.764-1.753-10.393-2.63-16.886-2.63
			c-12.183,0-21.888,3.7-29.115,11.1c-7.229,7.401-10.842,17.528-10.842,30.384c0,13.711,3.804,24.752,11.411,33.124
			s16.979,12.559,28.119,12.559c5.925,0,12.229-1.445,18.912-4.337c0.379-3.649,0.568-7.11,0.568-10.381
			c0-7.299-0.426-11.328-1.279-12.086S611.533,342.778,602.244,342.256z"/>
		<path fill="#FFFFFF" d="M645.341,370.766c4.454-0.236,7.204-0.687,8.247-1.351c0.711-0.473,1.824-2.275,3.342-5.403
			c2.891-6.161,6.588-14.718,11.091-25.666l25.169-61.643h10.451l32.137,76.359c4.17,9.636,6.742,14.914,7.714,15.836
			s3.97,1.546,8.994,1.867v6.471c-7.723-0.333-15.02-0.498-21.89-0.498c-8.196,0-15.99,0.165-23.382,0.498v-6.471
			c5.639-0.23,8.896-0.544,9.772-0.938c0.877-0.393,1.315-1.099,1.315-2.118c0-0.88-0.995-3.89-2.985-9.028l-4.69-11.876
			c-5.885-0.142-12.457-0.213-19.718-0.213c-6.313,0-12.056,0.071-17.229,0.213l-3.125,7.986c-0.854,2.178-1.894,5.418-3.125,9.724
			c-0.284,0.973-0.427,1.853-0.427,2.639c0,1.065,0.461,1.817,1.386,2.258c0.923,0.439,4.251,0.892,9.983,1.354v6.471
			c-4.644-0.333-10.422-0.498-17.334-0.498c-6.583,0-11.815,0.165-15.697,0.498V370.766z M691.987,301.781l-15.007,36.564
			c4.362,0.237,9.176,0.355,14.439,0.355c5.501,0,10.765-0.118,15.792-0.355L691.987,301.781z"/>
	</g>
</g>
<g>
	<g>
		<path fill="none" stroke="#FFFFFF" stroke-width="4" d="M805.79,279.04l1.742,0.183c-0.795,2.14-2.537,3.973-5.225,5.5
			l-3.208,7.974l-3.941,8.892l-0.825,2.291l-1.1,5.408l-4.491,16.59c-1.345,3.423-2.415,7.517-3.208,12.282l-0.184,1.834
			c-2.934,6.416-4.064,13.872-3.392,22.364c1.589,1.345,3.33,2.292,5.225,2.842c1.038-0.672,2.321-1.802,3.85-3.392
			c1.038-0.488,2.535-0.885,4.491-1.191c-2.078,2.689-4.766,4.949-8.065,6.782l-0.733,1.101l-1.101,0.274
			c-2.566,3.483-6.264,4.918-11.09,4.309c-1.59-2.322-2.69-5.469-3.3-9.441l2.383-9.624l0.458-3.85l2.017-7.517l0.733-5.499
			l0.733-2.2l0.458-3.208l1.467-2.658l0.184-2.107l2.017-6.875c0.243-1.894,0.854-3.909,1.833-6.049l0.366-1.65l2.658-8.433
			l1.008-2.75c1.467-2.138,2.505-4.612,3.117-7.424l1.1-0.459l0.275-1.558c2.383-1.833,4.704-4.309,6.966-7.425l1.283-0.458
			L805.79,279.04z"/>
		<path fill="none" stroke="#FFFFFF" stroke-width="4" d="M829.529,324.502h1.008l2.017,0.367
			c-0.856,4.399-2.658,9.869-5.407,16.407l-0.367,1.558l-0.55,1.467l-0.366,2.566l-0.917,1.559l-0.458,2.566
			c-1.528,3.911-2.354,8.464-2.475,13.657c4.032-0.672,7.638-2.658,10.815-5.958c0.916-0.306,1.771-0.184,2.566,0.366
			c-1.59,1.283-3.178,3.025-4.767,5.225c-3.178,1.224-6.324,3.208-9.44,5.958c-1.406,0.184-3.057,0.733-4.95,1.649
			c-0.306,0.062-0.642,0.275-1.008,0.642l-3.024-0.916l-0.733-4.033c0.305-2.321,1.068-5.041,2.291-8.157
			c0.061-1.834,0.642-4.063,1.742-6.691c0.183-2.383,0.946-4.918,2.291-7.607l-0.092-1.559l1.833-4.491l0.459-1.008l0.366-2.658
			c-2.262,1.223-5.041,3.024-8.341,5.407l-1.559,0.55l-0.55-1.925c1.833-0.854,3.483-2.26,4.95-4.216
			c1.404-0.61,2.688-1.68,3.85-3.208l2.933-2.108c1.71-1.283,4.033-2.718,6.966-4.308L829.529,324.502z M834.387,304.613
			c2.81,1.65,5.071,4.278,6.782,7.883c-6.173,5.378-9.961,6.845-11.365,4.399c-1.528-1.526-2.812-3.635-3.85-6.324
			c1.283-1.222,2.626-2.229,4.032-3.024l1.375-0.733l1.283-0.825l0.642-0.275C833.654,305.407,834.02,305.041,834.387,304.613z"/>
		<path fill="none" stroke="#FFFFFF" stroke-width="4" d="M908.08,280.506l9.166,0.733c0.427,1.467-1.008,3.881-4.308,7.241
			c-17.11-2.81-26.43,4.89-27.956,23.098l-0.459,3.117c0.061,1.223-0.153,2.444-0.642,3.666c-0.366,2.14-0.55,4.736-0.55,7.791
			l-0.55,1.833v1.375v2.75l-0.642,3.208v1.375c-0.123,0.916-0.153,2.14-0.092,3.666c-0.428,2.383-0.489,5.256-0.184,8.616
			c4.583-0.244,9.074-1.802,13.475-4.675c0.672-0.184,1.251-0.03,1.741,0.458l-1.375,1.833c-2.262,0.612-4.431,1.925-6.508,3.941
			c-1.1,0.795-2.506,1.528-4.216,2.2l-3.759,2.658l-0.916,8.157l-1.1,3.116l0.091,1.375l-1.008,0.917v1.833l-0.55,1.467
			c-4.278,10.326-11.489,19.432-21.632,27.314c-1.528,0.183-3.361,0.763-5.499,1.741l-1.375-0.092l-1.375,0.092
			c-0.855-1.1-2.047-2.078-3.575-2.933c0.612-3.24,2.354-6.265,5.225-9.074c9.899,5.254,16.834,1.496,20.807-11.274l1.65-9.166
			c0.305-1.467,0.335-3.33,0.092-5.591l0.366-1.283l0.184-4.583c-1.283-0.061-2.507,0.062-3.667,0.366l-1.374-0.458l-3.209-0.092
			l-3.116-0.55l-0.916-0.458h-1.375l-1.009-0.459l-1.283-0.092l-1.833,0.367h-2.291c-1.528,0.366-3.208,1.1-5.042,2.199v-1.374
			c5.255-8.127,13.688-10.816,25.298-8.066c0.184-1.405,0.214-3.238,0.092-5.5l0.55-1.374c0-1.955,0.061-4.552,0.184-7.791l0.55-5.5
			l1.009-4.399l0.092-1.833l0.458-2.75c0.243-0.488,0.427-1.1,0.55-1.833l0.458-1.375c0.122-1.283,0.459-2.81,1.009-4.583
			l0.55-3.208c1.16-1.955,2.26-4.521,3.3-7.699c1.526-1.283,2.933-3.085,4.216-5.408l4.217-3.941l1.008-1.375l0.825-0.824
			l1.009-0.917l0.916-1.375c0.488-0.061,0.977-0.335,1.467-0.825c0.305-0.121,0.61-0.458,0.916-1.008l3.208-1.65
			c0.306-0.06,0.61-0.366,0.917-0.916l5.133-1.741C906.277,281.026,907.163,280.873,908.08,280.506z"/>
		<path fill="none" stroke="#FFFFFF" stroke-width="4" d="M933.011,325.695h2.566l2.658,0.55c1.954,0.733,3.909,1.956,5.866,3.666
			l1.008,0.55c0.672,1.712,1.038,3.637,1.1,5.774c-6.966,10.756-17.722,17.11-32.264,19.065c3.177,9.594,11.641,10.848,25.39,3.758
			l0.55,1.009c-14.849,15.031-26.856,16.283-36.021,3.758c-0.49-2.017-0.49-4.491,0-7.425
			C908.813,342.834,918.529,332.6,933.011,325.695z M924.029,334.127c-4.217,2.383-7.212,6.264-8.983,11.641
			c5.01,0.55,10.267,0.062,15.766-1.467l3.3-1.1l1.925-0.825l0.733-1.833C934.569,335.593,930.322,333.455,924.029,334.127z"/>
	</g>
</g>
<g opacity="0.9">
	<g>
		<path fill="#FFFFFF" d="M805.79,279.04l1.742,0.183c-0.795,2.14-2.537,3.973-5.225,5.5l-3.208,7.974l-3.941,8.892l-0.825,2.291
			l-1.1,5.408l-4.491,16.59c-1.345,3.423-2.415,7.517-3.208,12.282l-0.184,1.834c-2.934,6.416-4.064,13.872-3.392,22.364
			c1.589,1.345,3.33,2.292,5.225,2.842c1.038-0.672,2.321-1.802,3.85-3.392c1.038-0.488,2.535-0.885,4.491-1.191
			c-2.078,2.689-4.766,4.949-8.065,6.782l-0.733,1.101l-1.101,0.274c-2.566,3.483-6.264,4.918-11.09,4.309
			c-1.59-2.322-2.69-5.469-3.3-9.441l2.383-9.624l0.458-3.85l2.017-7.517l0.733-5.499l0.733-2.2l0.458-3.208l1.467-2.658
			l0.184-2.107l2.017-6.875c0.243-1.894,0.854-3.909,1.833-6.049l0.366-1.65l2.658-8.433l1.008-2.75
			c1.467-2.138,2.505-4.612,3.117-7.424l1.1-0.459l0.275-1.558c2.383-1.833,4.704-4.309,6.966-7.425l1.283-0.458L805.79,279.04z"/>
		<path fill="#FFFFFF" d="M829.529,324.502h1.008l2.017,0.367c-0.856,4.399-2.658,9.869-5.407,16.407l-0.367,1.558l-0.55,1.467
			l-0.366,2.566l-0.917,1.559l-0.458,2.566c-1.528,3.911-2.354,8.464-2.475,13.657c4.032-0.672,7.638-2.658,10.815-5.958
			c0.916-0.306,1.771-0.184,2.566,0.366c-1.59,1.283-3.178,3.025-4.767,5.225c-3.178,1.224-6.324,3.208-9.44,5.958
			c-1.406,0.184-3.057,0.733-4.95,1.649c-0.306,0.062-0.642,0.275-1.008,0.642l-3.024-0.916l-0.733-4.033
			c0.305-2.321,1.068-5.041,2.291-8.157c0.061-1.834,0.642-4.063,1.742-6.691c0.183-2.383,0.946-4.918,2.291-7.607l-0.092-1.559
			l1.833-4.491l0.459-1.008l0.366-2.658c-2.262,1.223-5.041,3.024-8.341,5.407l-1.559,0.55l-0.55-1.925
			c1.833-0.854,3.483-2.26,4.95-4.216c1.404-0.61,2.688-1.68,3.85-3.208l2.933-2.108c1.71-1.283,4.033-2.718,6.966-4.308
			L829.529,324.502z M834.387,304.613c2.81,1.65,5.071,4.278,6.782,7.883c-6.173,5.378-9.961,6.845-11.365,4.399
			c-1.528-1.526-2.812-3.635-3.85-6.324c1.283-1.222,2.626-2.229,4.032-3.024l1.375-0.733l1.283-0.825l0.642-0.275
			C833.654,305.407,834.02,305.041,834.387,304.613z"/>
		<path fill="#FFFFFF" d="M908.08,280.506l9.166,0.733c0.427,1.467-1.008,3.881-4.308,7.241c-17.11-2.81-26.43,4.89-27.956,23.098
			l-0.459,3.117c0.061,1.223-0.153,2.444-0.642,3.666c-0.366,2.14-0.55,4.736-0.55,7.791l-0.55,1.833v1.375v2.75l-0.642,3.208v1.375
			c-0.123,0.916-0.153,2.14-0.092,3.666c-0.428,2.383-0.489,5.256-0.184,8.616c4.583-0.244,9.074-1.802,13.475-4.675
			c0.672-0.184,1.251-0.03,1.741,0.458l-1.375,1.833c-2.262,0.612-4.431,1.925-6.508,3.941c-1.1,0.795-2.506,1.528-4.216,2.2
			l-3.759,2.658l-0.916,8.157l-1.1,3.116l0.091,1.375l-1.008,0.917v1.833l-0.55,1.467c-4.278,10.326-11.489,19.432-21.632,27.314
			c-1.528,0.183-3.361,0.763-5.499,1.741l-1.375-0.092l-1.375,0.092c-0.855-1.1-2.047-2.078-3.575-2.933
			c0.612-3.24,2.354-6.265,5.225-9.074c9.899,5.254,16.834,1.496,20.807-11.274l1.65-9.166c0.305-1.467,0.335-3.33,0.092-5.591
			l0.366-1.283l0.184-4.583c-1.283-0.061-2.507,0.062-3.667,0.366l-1.374-0.458l-3.209-0.092l-3.116-0.55l-0.916-0.458h-1.375
			l-1.009-0.459l-1.283-0.092l-1.833,0.367h-2.291c-1.528,0.366-3.208,1.1-5.042,2.199v-1.374
			c5.255-8.127,13.688-10.816,25.298-8.066c0.184-1.405,0.214-3.238,0.092-5.5l0.55-1.374c0-1.955,0.061-4.552,0.184-7.791l0.55-5.5
			l1.009-4.399l0.092-1.833l0.458-2.75c0.243-0.488,0.427-1.1,0.55-1.833l0.458-1.375c0.122-1.283,0.459-2.81,1.009-4.583
			l0.55-3.208c1.16-1.955,2.26-4.521,3.3-7.699c1.526-1.283,2.933-3.085,4.216-5.408l4.217-3.941l1.008-1.375l0.825-0.824
			l1.009-0.917l0.916-1.375c0.488-0.061,0.977-0.335,1.467-0.825c0.305-0.121,0.61-0.458,0.916-1.008l3.208-1.65
			c0.306-0.06,0.61-0.366,0.917-0.916l5.133-1.741C906.277,281.026,907.163,280.873,908.08,280.506z"/>
		<path fill="#FFFFFF" d="M933.011,325.695h2.566l2.658,0.55c1.954,0.733,3.909,1.956,5.866,3.666l1.008,0.55
			c0.672,1.712,1.038,3.637,1.1,5.774c-6.966,10.756-17.722,17.11-32.264,19.065c3.177,9.594,11.641,10.848,25.39,3.758l0.55,1.009
			c-14.849,15.031-26.856,16.283-36.021,3.758c-0.49-2.017-0.49-4.491,0-7.425C908.813,342.834,918.529,332.6,933.011,325.695z
			 M924.029,334.127c-4.217,2.383-7.212,6.264-8.983,11.641c5.01,0.55,10.267,0.062,15.766-1.467l3.3-1.1l1.925-0.825l0.733-1.833
			C934.569,335.593,930.322,333.455,924.029,334.127z"/>
	</g>
</g>
<g>
	<path opacity="0.7" fill="#FFFFFF" enable-background="new    " d="M396.133,225.082c14.211-18.604,48.457-16.28,61.599,2.584
		c-2.9-7.939-5.981-16.026-8.952-23.359c-6.603,6.803-46.119,13.811-57.686-19.091c7.691-14.776,37.127-11.353,50.97,3.559
		c-1.639-3.468-3.658-7.35-4.756-8.509c-30.766-2.967-54.286-28-27.766-55.307c44.339-2.421,32.65,48.035,30.957,54.568
		c0.38,0.522,0.801,1.166,1.28,1.833c0.378,0.508,0.765,1.112,1.16,1.75c-1.232-19.132,12.347-41.139,27.617-38.868
		c20.134,29.109-9.91,57.374-18.822,57.933c2.332,5.904,4.739,12.456,7.11,19.122c-0.067-21.201,19.153-47.621,39.059-45.463
		c21.824,44.11-29.394,60.573-33.365,61.777c4.27,12.376,8.029,23.441,10.464,29.254c0,0-1.305,2.15-4.036,0.76
		c-1.352-5.323-4.835-16.162-9.172-28.566C456.734,243.744,419.578,275.611,396.133,225.082z"/>
	<path opacity="0.5" fill="#FFFFFF" enable-background="new    " d="M429.428,242.135c-7.275-0.352-13.838-5.31-19.537-14.755
		c3.677-2.328,8.32-3.715,13.432-3.964c1.135-0.056,2.285-0.056,3.418,0c9.244,0.445,17.625,4.507,21.872,10.601
		c0.208,0.296,0.429,0.585,0.661,0.859c-4.403,3.114-11.128,6.919-18.048,7.257C430.624,242.161,430.024,242.161,429.428,242.135
		L429.428,242.135z M469.723,223.562c0.154-0.753,0.233-1.527,0.23-2.312c-0.043-14.458,10.884-29.454,20.831-33.417
		c1.936,6.425,1.812,12.228-0.378,17.281C486.53,214.061,476.833,220.138,469.723,223.562L469.723,223.562z M425.755,198.856
		c-9.635-0.463-16.747-4.204-21.194-11.126c1.395-0.481,3.101-0.783,5.006-0.879c0.863-0.042,1.74-0.041,2.627,0.004
		c8.092,0.388,16.822,4.196,21.721,9.479c0.607,0.655,1.278,1.225,2.001,1.706c-1.707,0.377-3.795,0.695-6.236,0.814
		C428.358,198.918,427.04,198.918,425.755,198.856L425.755,198.856z M453.158,189.275c0.025-0.562,0.011-1.128-0.05-1.696
		c0.715-1.621,1.034-3.404,0.918-5.186c-0.51-7.932,2.695-17.459,7.789-23.169c0.943-1.055,1.919-1.932,2.876-2.597
		c2.281,5.861,2.101,11.841-0.535,18.171C461.241,181.802,456.415,186.723,453.158,189.275L453.158,189.275z M431.387,168.041
		c-10.629-2.55-19.005-8.326-21.491-15.106c-1.847-5.03-0.273-10.709,4.673-16.902c5.971,0.305,10.186,2.065,12.878,5.375
		C432.896,148.107,432.437,160.174,431.387,168.041L431.387,168.041z"/>
	<path opacity="0.8" fill="#FFFFFF" enable-background="new    " d="M455.25,183.101c23.369-1.363,43.948,26.107,38.223,48.373
		c4.125-7.377,8.25-14.988,11.866-22.021c-9.464-0.571-40.556-25.949-23.162-56.175c16.217-3.813,32.827,20.728,30.552,40.948
		c1.559-3.5,3.188-7.564,3.348-9.151c-17.818-25.256-14.193-59.41,23.808-57.123c30.756,32.026-15.109,56.082-21.168,59.058
		c-0.143,0.63-0.358,1.369-0.55,2.167c-0.145,0.618-0.347,1.302-0.576,2.013c13.698-13.407,39.241-17.474,47.479-4.417
		c-8.93,34.247-49.95,29.918-56.188,23.528c-2.955,5.619-6.354,11.715-9.852,17.855c16.022-13.875,48.583-16.544,59.936-0.046
		c-19.201,45.311-65.088,17.235-68.588,15.008c-6.6,11.313-12.531,21.384-15.348,27.019c0,0-2.479,0.413-3.208-2.566
		c3.146-4.498,9.093-14.208,15.665-25.584C480.639,241.207,432.243,233.831,455.25,183.101z"/>
	<path opacity="0.7" fill="#FFFFFF" enable-background="new    " d="M522.547,242.606c-1.15-0.055-2.326-0.168-3.534-0.338
		c-5.453-0.761-10.632-2.592-14.653-4.357c0.689-0.377,1.344-0.827,1.943-1.348c6.561-5.685,17.74-9.171,27.825-8.688
		c1.099,0.055,2.184,0.153,3.248,0.302c2.314,0.326,5.267,0.994,7.877,2.358C539.785,239.231,532.488,243.087,522.547,242.606
		L522.547,242.606z M482.494,229.764c-6.296-1.579-15.892-5.146-20.039-12.685c-3.011-5.473-2.999-12.882,0.029-22.062
		c5.772,1.757,11.379,6.146,15.43,12.196c4.671,6.974,6.463,15.01,4.799,21.495C482.622,229.058,482.549,229.414,482.494,229.764
		L482.494,229.764z M524.189,203.497c-1.404-0.07-2.415-0.191-2.864-0.255c-0.629-0.088-1.202-0.188-1.713-0.288
		c0.436-0.345,0.85-0.724,1.235-1.138c1.686-0.519,3.248-1.436,4.521-2.688c5.911-5.784,15.452-9.562,23.211-9.188
		c0.585,0.026,1.158,0.08,1.717,0.157c0.546,0.076,1.062,0.18,1.55,0.305C545.369,202.536,532.013,203.872,524.189,203.497
		L524.189,203.497z M501.701,195.664c-3.495-2.644-8.003-7.111-10.929-13.097c-2.878-5.894-3.445-11.649-1.704-17.482
		c6.51,3.691,13.943,16.092,12.616,27.897C501.582,193.892,501.591,194.793,501.701,195.664L501.701,195.664z M521.476,172.612
		c-4.997-9.717-6.083-19.83-2.568-26.141c2.606-4.683,7.938-7.195,15.857-7.484c3.647,4.705,5.066,9.045,4.333,13.223
		C537.594,160.729,528.135,168.271,521.476,172.612L521.476,172.612z"/>
</g>
</svg>
