<?xml version="1.0" encoding="utf-8"?>
<!-- Generator: Adobe Illustrator 16.0.0, SVG Export Plug-In . SVG Version: 6.00 Build 0)  -->
<!DOCTYPE svg PUBLIC "-//W3C//DTD SVG 1.1//EN" "http://www.w3.org/Graphics/SVG/1.1/DTD/svg11.dtd">
<svg version="1.1" id="Capa_1" xmlns="http://www.w3.org/2000/svg" xmlns:xlink="http://www.w3.org/1999/xlink" x="0px" y="0px"
	 width="960px" height="475.935px" viewBox="0 0 960 475.935" enable-background="new 0 0 960 475.935" xml:space="preserve">
<g>
	<path fill="#1D5632" d="M15.294,252.352c0,0-0.702,3.275-5.378,3.275c-11.694,0-4.444-30.872,28.532-30.872
		c29.235,0,36.017,35.781,32.978,75.074c-0.234,0,2.338,0,2.338,0c19.412-39.293,42.566-75.308,62.445-75.308
		c11.226,0,14.5,9.823,14.5,24.792c0,7.484-2.105,23.62-5.379,41.863c0,0,2.338,0,2.104,0
		c21.751-40.929,48.646-80.687,70.163-80.687c7.016,0,10.524,3.975,10.524,11.693c-17.306,42.566-61.275,196.224-24.089,196.224
		c8.419,0,13.564-9.123,15.67-13.799c1.403-2.341,5.612-1.872,5.145,0c-0.702,1.637-9.121,21.517-22.453,21.517
		c-61.275,0-5.846-162.779,7.485-202.772c0.937-3.04-1.637-3.975-5.378-0.702c-35.783,33.912-67.356,111.091-73.671,129.102
		c-6.782,19.878-12.629,32.508-19.412,32.508c-3.508,0-4.911-1.403-4.911-4.912c0,0,0-0.233,0.234-0.467
		c1.871-6.782,29.234-101.268,29.234-133.077c0-8.186-1.405-12.161-5.38-12.161c-14.266,0-53.089,66.187-68.759,120.446
		c-8.186,28.3-17.542,48.413-24.792,48.413c-3.274,0-4.911-1.637-4.911-5.146c0,0,0.234-0.7,0.702-1.871
		c5.145-15.435,54.025-165.116,2.806-165.116C14.826,230.368,11.085,252.352,15.294,252.352z"/>
	<path fill="#1D5632" d="M262.27,385.662c17.775,0,39.759-46.074,39.759-91.213v-2.806c-10.524-6.782-16.605-18.009-16.605-22.685
		c0-3.042,4.445-8.423,8.888-8.423c6.314,0,12.396,13.333,14.5,25.962c4.21,2.806,8.888,4.912,14.033,4.912
		c4.678,0,7.484-1.872,7.484-1.872s0,8.419-8.419,8.419c-4.677,0-8.653-0.935-12.396-2.338
		c-0.468,44.671-22.452,98.463-49.815,98.463c-52.154,0-24.557-112.027,16.371-112.027c6.315,0,7.25,5.613,7.25,5.613
		C252.213,287.668,232.1,385.662,262.27,385.662z"/>
	<path fill="#1D5632" d="M417.565,275.739c0,0-14.266,14.5-14.266,47.245c0,1.168-0.468,1.87-1.169,1.87
		c-10.524,0-11.227-24.323-4.678-39.993c-22.686,19.879-55.194,86.768-55.194,100.332c0,1.404-1.403,2.807-3.274,2.807
		c-5.613,0-7.25-5.847-7.25-18.476c0-44.67,10.29-91.445,24.089-91.445c3.04,0,4.443,1.87,4.443,5.146
		c0,0-10.759,34.145-15.436,69.928h1.637c14.968-34.145,42.8-82.323,65.72-82.323C415.461,270.829,417.565,273.168,417.565,275.739z
		"/>
	<path fill="#1D5632" d="M448.671,283.225c3.742,0,5.379,2.338,5.379,5.847c0,0-20.815,53.322-20.815,99.397
		c0,2.104-1.637,3.273-3.508,3.273c-4.21,0-6.315-6.314-6.315-19.645C423.413,328.36,433.235,283.225,448.671,283.225z"/>
	<path fill="#1D5632" d="M531.93,291.176c-24.792,21.75-50.049,89.809-50.049,94.018c0,1.404-1.404,2.807-3.276,2.807
		c-5.613,0-7.484-5.847-7.484-18.476c0-44.67,10.292-91.445,24.324-91.445c2.807,0,4.21,1.87,4.21,5.146
		c0,0-10.758,34.848-15.437,70.863h2.104c12.396-31.104,34.146-74.605,58.703-74.605c8.419,0,11.929,4.444,11.929,11.461
		c0,0-15.436,47.009-15.436,85.363c0,18.476,2.806,24.791,7.25,24.791c4.911,0,6.548-4.443,8.887-4.443s1.403,2.339,1.403,2.339
		s-4.912,10.057-12.16,10.057c-12.163,0-18.945-19.412-18.945-45.841c0-29.701,7.25-60.105,10.056-70.864
		C538.943,289.071,535.672,288.136,531.93,291.176z"/>
	<path fill="#1D5632" d="M581.044,465.18c29.234,0,41.864-31.339,48.88-63.614c-33.211,0.7-52.153,14.734-65.018,32.275
		c-1.637,2.338-7.016,0.702-5.379-1.639c11.694-17.772,34.613-36.015,71.801-37.42c2.338-11.459,3.975-23.153,5.848-33.443
		c1.169-7.718,2.806-15.201,3.974-22.452h-2.571c-14.501,25.024-33.68,53.09-45.839,53.09c-40.696,0-11.462-115.534,39.992-115.534
		c13.33,0,17.073,12.861,17.073,12.861s-0.703,3.977-3.975,3.977c-3.979,0-4.681-2.573-4.681-2.573s-2.571-7.951-10.056-7.951
		c-31.339,0-52.388,100.801-36.017,100.801c11.459,0,41.396-52.621,55.896-82.325c4.21-8.651,8.421-14.265,14.734-14.265
		c3.509,0,4.912,2.104,4.912,5.613c0,0-9.354,13.799-18.711,68.991c-1.871,10.759-3.976,22.453-6.548,33.912
		c28.768,4.912,22.454,30.173,13.33,30.173c0,0,4.444-17.775-15.201-22.922c-9.355,35.315-25.96,67.825-62.445,67.825
		c-15.67,0-21.985-6.081-25.491-13.564c-1.404-3.04,4.442-4.679,5.846-1.404C563.504,460.502,568.649,465.18,581.044,465.18z"/>
	<path fill="#1D5632" d="M766.274,410.218c6.549,0,9.356-9.822,9.356-9.822s0.7-2.571,3.274-2.571c2.337,0,1.637,2.571,1.637,2.571
		s-5.613,17.773-14.968,17.773c-13.801,0-20.347-20.579-20.347-45.839c0-9.821,0.935-20.814,2.571-31.105h-2.339
		c-14.267,24.323-32.976,50.752-44.67,50.752c-40.695,0-11.46-115.534,39.993-115.534c13.33,0,17.072,12.861,17.072,12.861
		s-0.702,3.977-3.976,3.977c-3.977,0-4.679-2.573-4.679-2.573s-2.571-7.951-10.056-7.951c-31.34,0-52.388,100.801-36.018,100.801
		c12.631,0,47.243-65.253,54.494-79.518c4.678-9.824,10.058-16.838,16.371-16.838c2.807,0,4.443,2.103,4.443,5.379
		c0,0-19.412,40.46-19.412,92.848C759.024,404.138,761.599,410.218,766.274,410.218z"/>
</g>
<g>
	<path fill="#8B7A27" d="M789.303,367.935c-2.339,5.817-3.86,10.485-4.561,14.005c-0.702,3.521-1.053,5.663-1.053,6.428
		c0,1.686,0.274,3.293,0.818,4.82c0.548,1.532,2.223,2.296,5.027,2.296c1.404,0,3-0.303,4.795-0.916
		c1.79-0.612,3.858-1.988,6.195-4.133c2.339-2.142,5.028-5.167,8.068-9.07c3.04-3.902,6.584-9.219,10.64-15.956
		c0.468-0.608,1.089-0.918,1.871-0.918c1.246,0,1.87,0.688,1.87,2.065c0,0.459-0.08,0.769-0.232,0.92
		c-7.017,11.479-13.059,19.667-18.124,24.565c-5.068,4.899-10.096,7.347-15.083,7.347c-2.18,0-3.896-0.345-5.144-1.033
		c-1.245-0.689-2.222-1.529-2.923-2.525c-0.702-0.994-1.129-2.142-1.286-3.444c-0.154-1.297-0.234-2.561-0.234-3.789
		c0-2.754,0.351-5.469,1.052-8.149c0.701-2.676,1.678-5.775,2.924-9.299c6.08-19.59,13.055-37.497,20.929-53.723
		c7.87-16.222,15.9-30.111,24.085-41.669c8.185-11.557,16.096-20.55,23.736-26.978c7.635-6.428,14.265-9.643,19.877-9.643
		c1.712,0,3.466,0.345,5.261,1.033c1.789,0.69,2.689,2.182,2.689,4.478c0,1.686-0.433,3.673-1.287,5.968
		c-0.858,2.297-1.987,4.747-3.39,7.348c-1.404,2.604-3.004,5.32-4.794,8.15c-1.795,2.834-3.549,5.475-5.262,7.92
		c-5.46,7.805-11.5,15.651-18.124,23.533c-6.627,7.884-13.329,15.767-20.11,23.647c-6.781,7.885-13.484,15.767-20.11,23.646
		C800.798,352.744,794.757,360.437,789.303,367.935z M862.261,271.736c1.088-1.528,2.456-3.404,4.093-5.624
		c1.637-2.218,3.192-4.593,4.677-7.117c1.479-2.526,2.766-5.087,3.857-7.691c1.089-2.602,1.638-5.051,1.638-7.347
		c-0.315,0-1.601,0.574-3.858,1.723c-2.262,1.147-5.611,3.941-10.055,8.38c-4.444,4.44-10.096,10.983-16.955,19.628
		c-6.861,8.649-14.966,20.549-24.32,35.702c-4.99,7.96-9.47,15.383-13.444,22.271c-3.975,6.886-7.524,13.314-10.64,19.284
		c5.298-6.579,10.793-13.199,16.484-19.859c5.69-6.658,11.38-13.315,17.071-19.974c5.689-6.658,11.225-13.275,16.603-19.861
		C852.79,284.673,857.737,278.165,862.261,271.736z"/>
	<path fill="#8B7A27" d="M854.544,364.49c0.62,0,1.206,0.344,1.753,1.032c0.545,0.689,0.504,1.343-0.118,1.953
		c-2.337,3.826-5.105,7.691-8.3,11.593c-3.198,3.903-6.511,7.462-9.938,10.677c-3.433,3.214-6.899,5.817-10.407,7.806
		c-3.506,1.99-6.739,2.985-9.703,2.985c-2.961,0-5.3-0.88-7.016-2.641c-1.713-1.759-2.571-4.019-2.571-6.772
		c0-2.906,0.817-6.274,2.454-10.102c1.638-3.824,3.665-7.769,6.079-11.825c2.42-4.053,5.065-8.071,7.951-12.054
		c2.882-3.978,5.531-7.537,7.95-10.676c2.415-3.136,4.403-5.66,5.964-7.576c1.556-1.911,2.258-2.87,2.104-2.87
		c2.338,0,4.13,0.689,5.378,2.067c1.247,1.378,1.871,2.909,1.871,4.592c0,1.99-0.859,4.362-2.573,7.116
		c-1.716,2.756-3.821,5.704-6.313,8.84c-2.497,3.139-5.263,6.392-8.302,9.757c-3.039,3.368-5.81,6.621-8.302,9.758
		c-2.492,3.139-4.597,6.085-6.313,8.839c-1.714,2.756-2.572,5.052-2.572,6.888c0,1.072,0.469,1.803,1.403,2.181
		c0.936,0.385,1.794,0.574,2.571,0.574c2.496,0,5.299-0.917,8.419-2.755c3.117-1.836,6.272-4.247,9.471-7.232
		c3.194-2.983,6.313-6.349,9.353-10.102c3.041-3.748,5.649-7.461,7.834-11.135C853.14,364.8,853.762,364.49,854.544,364.49z
		 M863.662,296.304c2.025,0,3.702,0.652,5.027,1.951c1.324,1.302,1.988,2.87,1.988,4.706s-0.664,3.443-1.988,4.821
		c-1.325,1.378-3.002,2.067-5.027,2.067c-1.87,0-3.47-0.689-4.792-2.067c-1.326-1.378-1.988-2.985-1.988-4.821
		s0.662-3.404,1.988-4.706C860.192,296.956,861.792,296.304,863.662,296.304z"/>
	<path fill="#8B7A27" d="M904.114,367.476c-1.716,2.755-4.676,4.131-8.887,4.131c-2.65,0-5.416-0.608-8.301-1.837
		c-2.887-1.223-5.651-3.364-8.3-6.428c-0.314,12.706-2.028,25.408-5.145,38.112c-3.12,12.707-7.251,24.222-12.395,34.552
		c-5.144,10.333-10.989,18.672-17.538,25.025c-6.547,6.351-13.329,9.528-20.345,9.528c-3.116,0-5.806-0.613-8.066-1.837
		c-2.259-1.228-3.391-3.828-3.391-7.806c0-4.9,1.6-11.135,4.795-18.712c3.195-7.576,6.818-15.346,10.872-23.304
		c11.85-25.253,22.098-47.216,30.75-65.889c8.652-18.674,16.211-34.63,22.683-47.87c6.468-13.236,12.043-24.106,16.72-32.603
		c4.676-8.493,9.003-15.188,12.979-20.088c3.976-4.898,7.91-8.266,11.809-10.102c3.895-1.837,8.186-2.755,12.862-2.755
		c2.648,0,4.869,0.922,6.663,2.758c1.79,1.841,2.691,4.445,2.691,7.814c0,5.058-2.069,11.3-6.197,18.729
		c-4.134,7.432-9.588,15.704-16.369,24.819c-6.783,9.119-14.656,18.85-23.62,29.19c-8.965,10.343-18.202,20.874-27.709,31.596
		c-4.367,4.909-8.186,9.583-11.459,14.022c-3.272,4.442-6.35,9.076-9.236,13.901c-2.882,4.829-5.688,10.078-8.418,15.744
		c-2.727,5.669-5.649,12.105-8.77,19.305c-2.024,3.982-4.012,8.042-5.962,12.183c-1.948,4.132-3.741,8.154-5.38,12.063
		c-1.636,3.906-2.999,7.584-4.092,11.035c-1.09,3.443-1.636,6.316-1.636,8.615c0,2.146,0.39,3.448,1.169,3.908
		c0.781,0.459,1.793,0.688,3.04,0.688c2.338,0,4.833-1.033,7.482-3.1c2.652-2.065,5.302-4.592,7.95-7.574
		c2.653-2.986,5.187-6.239,7.601-9.759c2.418-3.522,4.56-6.736,6.431-9.643c4.209-6.886,7.87-13.433,10.989-19.63
		c3.117-6.198,5.729-12.318,7.834-18.366c2.105-6.045,3.7-12.204,4.793-18.481c1.091-6.275,1.639-12.858,1.639-19.745v-4.134
		c0-1.068,0.621-1.606,1.871-1.606c0.777,0,1.402,0.384,1.87,1.149c1.871,4.9,4.48,8.229,7.833,9.985
		c3.352,1.762,6.352,2.641,9.002,2.641c2.184,0,3.703-0.535,4.561-1.606c0.856-1.07,1.755-1.607,2.69-1.607
		c0.621,0,1.089,0.23,1.401,0.688c0.312,0.46,0.469,0.919,0.469,1.377C904.349,367.015,904.27,367.324,904.114,367.476z
		 M940.595,250.386c0-1.527-0.273-3.021-0.819-4.478c-0.548-1.453-1.753-2.256-3.624-2.409c-3.589-0.306-6.862,0.956-9.82,3.788
		c-2.964,2.834-5.612,6.313-7.951,10.446c-7.952,14.389-15.084,27.974-21.397,40.752c-6.313,12.78-12.978,25.139-19.994,37.077
		l-8.886,16.072c3.743-4.133,8.105-8.991,13.096-14.58c4.988-5.584,10.172-11.555,15.551-17.907
		c5.378-6.35,10.676-12.856,15.901-19.515c5.221-6.657,9.898-13.049,14.031-19.171c4.128-6.12,7.482-11.784,10.055-16.987
		S940.595,253.908,940.595,250.386z"/>
	<path fill="#8B7A27" d="M957.895,364.49c1.404,0,2.105,0.688,2.105,2.065c0,0.459-0.08,0.769-0.235,0.92
		c-3.272,5.358-6.742,10.025-10.403,14.005c-3.666,3.98-7.367,7.31-11.108,9.986c-3.742,2.681-7.366,4.67-10.874,5.969
		c-3.508,1.302-6.745,1.952-9.703,1.952c-6.081,0-10.875-1.837-14.382-5.511c-3.508-3.674-5.262-8.416-5.262-14.233
		c0-4.897,1.015-9.909,3.039-15.038c2.025-5.127,4.715-9.794,8.067-14.005c3.352-4.208,7.17-7.652,11.459-10.333
		c4.285-2.675,8.689-4.016,13.211-4.016c4.054,0,7.754,1.147,11.108,3.443c3.352,2.295,5.027,5.893,5.027,10.791
		c0,2.907-0.663,5.817-1.987,8.723c-1.327,2.91-3.12,5.512-5.379,7.806c-2.26,2.298-4.95,4.173-8.067,5.626
		c-3.119,1.457-6.548,2.182-10.288,2.182c-2.028,0-4.25-0.267-6.663-0.805c-2.42-0.535-4.642-1.643-6.666-3.328
		c-2.185,5.51-3.273,10.025-3.273,13.546c0,3.981,0.935,6.853,2.806,8.608c1.871,1.762,4.051,2.64,6.548,2.64
		c4.985,0,11.144-2.33,18.473-7.002c7.326-4.667,14.264-12.358,20.813-23.073C956.413,364.8,956.96,364.49,957.895,364.49z
		 M942.695,347.272c0-1.529-0.313-2.946-0.936-4.248c-0.623-1.299-1.87-2.103-3.741-2.412c-2.185,0-4.442,0.767-6.781,2.296
		c-2.338,1.533-4.639,3.523-6.897,5.971c-2.262,2.448-4.406,5.244-6.432,8.38c-2.027,3.139-3.74,6.237-5.145,9.297
		c1.557,2.451,3.818,3.675,6.782,3.675c2.492,0,5.145-0.804,7.95-2.411c2.807-1.607,5.299-3.559,7.482-5.854
		s4.012-4.781,5.496-7.463C941.954,351.827,942.695,349.416,942.695,347.272z"/>
</g>
<linearGradient id="SVGID_1_" gradientUnits="userSpaceOnUse" x1="461.0791" y1="230.0308" x2="461.0791" y2="15.2747" gradientTransform="matrix(0.9998 0.0219 -0.0219 0.9998 3.5674 -10.2591)">
	<stop  offset="0" style="stop-color:#FFFFFF;stop-opacity:0"/>
	<stop  offset="0.0525" style="stop-color:#F3F1E9;stop-opacity:0.0525"/>
	<stop  offset="0.1843" style="stop-color:#D8D2B6;stop-opacity:0.1843"/>
	<stop  offset="0.3189" style="stop-color:#C0B78A;stop-opacity:0.3189"/>
	<stop  offset="0.4536" style="stop-color:#ADA166;stop-opacity:0.4536"/>
	<stop  offset="0.5887" style="stop-color:#9E904B;stop-opacity:0.5887"/>
	<stop  offset="0.7244" style="stop-color:#938437;stop-opacity:0.7244"/>
	<stop  offset="0.861" style="stop-color:#8D7C2B;stop-opacity:0.861"/>
	<stop  offset="1" style="stop-color:#8B7A27"/>
</linearGradient>
<path fill="url(#SVGID_1_)" d="M454.548,229.019c-46.031-24.62-65.429-74.369-59.25-115.186
	c7.807-51.571,43.551-104.648,71.401-107.703c2.929-0.321,5.139,0.01,7.605,0.332c34.298,4.471,55.904,93.166,54.999,122.271
	c-1.528,49.146-38.548,76.164-63.217,98.446"/>
<g>
	<path fill="#8B7A27" d="M459.365,74.588c-1.773,6.263-3.362,12.565-4.721,18.926c-0.676,3.18-1.326,6.365-1.898,9.565
		c-0.592,3.196-1.114,6.405-1.603,9.617c-0.486,3.214-0.913,6.436-1.307,9.661l-0.542,4.844l-0.466,4.852l-0.391,4.857l-0.316,4.862
		l-0.241,4.866l-0.164,4.869c-0.075,3.247-0.115,6.494-0.099,9.742c0.025,3.247,0.083,6.494,0.208,9.738
		c0.123,3.244,0.277,6.487,0.515,9.724c0.207,3.239,0.501,6.473,0.822,9.701c0.318,3.23,0.719,6.45,1.128,9.669
		c0.456,3.212,0.916,6.424,1.465,9.621c0.249,1.603,0.554,3.196,0.848,4.792c0.289,1.596,0.585,3.19,0.923,4.776
		c0.625,3.183,1.355,6.343,2.073,9.505l0.523,2.306l-2.086-1.109c-10.076-5.36-19.4-12.169-27.504-20.239
		c-8.104-8.067-14.976-17.375-20.334-27.487c-5.367-10.107-9.252-21.006-11.47-32.249c-2.208-11.24-2.737-22.843-1.31-34.254
		c1.468-11.369,4.293-22.476,8.015-33.267c3.746-10.782,8.429-21.237,14.03-31.197c5.62-9.941,12.112-19.452,19.921-27.927
		c3.918-4.215,8.152-8.196,12.916-11.589c4.749-3.367,10.075-6.25,16.093-7.44c0.762-0.16,1.477-0.247,2.309-0.349
		c0.364-0.029,0.677-0.07,1.083-0.089c0.401-0.014,0.826-0.046,1.208-0.041c1.555-0.015,3.083,0.138,4.51,0.314l1.058,0.132
		l1.128,0.184c0.652,0.081,1.53,0.33,2.295,0.508c1.492,0.444,2.949,0.958,4.322,1.637c2.77,1.312,5.28,3.028,7.549,4.956
		c2.275,1.925,4.334,4.049,6.232,6.279c3.792,4.469,6.964,9.342,9.804,14.355c2.835,5.021,5.3,10.211,7.558,15.475
		c4.483,10.544,8.025,21.425,10.976,32.447c1.459,5.517,2.771,11.072,3.89,16.673c1.127,5.599,2.064,11.243,2.719,16.947
		c0.328,2.853,0.589,5.72,0.742,8.613c0.066,1.45,0.123,2.901,0.117,4.37c0.007,0.755-0.013,1.42-0.037,2.264l-0.119,2.117
		l-0.119,2.117l-0.215,2.188c-0.143,1.465-0.291,2.929-0.531,4.355c-0.213,1.437-0.415,2.875-0.724,4.295
		c-0.28,1.425-0.549,2.854-0.922,4.258c-2.676,11.326-7.695,22.004-14.09,31.592c-6.421,9.602-14.193,18.132-22.42,26.016
		c-4.124,3.938-8.367,7.726-12.639,11.453l-12.835,11.069l-2.369,2.042l-0.484-3.014c-0.628-3.909-1.128-7.77-1.605-11.66
		c-0.454-3.886-0.869-7.774-1.224-11.667c-0.363-3.892-0.653-7.79-0.932-11.687l-0.346-5.85c-0.125-1.949-0.184-3.902-0.262-5.854
		c-0.082-1.951-0.147-3.903-0.175-5.856l-0.112-5.856l-0.009-5.857c-0.02-1.952,0.028-3.904,0.066-5.855
		c0.044-1.951,0.058-3.902,0.126-5.853l0.245-5.849c0.071-1.95,0.207-3.896,0.35-5.842l0.41-5.836l0.499,0.03l-0.152,5.839
		c-0.057,1.946-0.106,3.891-0.091,5.838l-0.033,5.836c0,1.945,0.055,3.891,0.079,5.835c0.031,1.945,0.052,3.889,0.14,5.833
		l0.214,5.83l0.316,5.824c0.096,1.941,0.229,3.881,0.379,5.819c0.155,1.938,0.251,3.879,0.426,5.814l0.489,5.809
		c0.375,3.868,0.76,7.734,1.218,11.591c0.45,3.858,0.959,7.708,1.505,11.55c0.567,3.832,1.167,7.687,1.87,11.457l-2.853-0.971
		c8.335-7.723,16.924-15.041,24.915-22.919c7.972-7.874,15.391-16.292,21.415-25.606c6.024-9.3,10.521-19.514,13.061-30.216
		c0.349-1.33,0.595-2.684,0.854-4.034c0.288-1.345,0.472-2.708,0.668-4.07c0.225-1.364,0.353-2.715,0.479-4.064
		c0.063-0.679,0.143-1.343,0.194-2.034l0.11-2.118c0.372-5.44-0.103-10.944-0.737-16.485c-1.368-11.059-3.56-22.088-6.378-32.93
		c-2.829-10.842-6.295-21.526-10.559-31.847c-2.155-5.147-4.507-10.208-7.192-15.061c-2.688-4.846-5.683-9.516-9.177-13.705
		c-3.494-4.152-7.511-7.926-12.199-10.191c-1.157-0.589-2.375-1.021-3.586-1.398L475.926,9c-0.149-0.037-0.282-0.079-0.445-0.112
		l-0.522-0.091l-0.963-0.168l-1.045-0.142c-1.376-0.185-2.667-0.323-3.941-0.324c-0.325-0.009-0.606,0.015-0.912,0.018
		c-0.3,0.007-0.69,0.051-1.031,0.074c-0.57,0.069-1.262,0.141-1.885,0.271c-5.13,0.955-10.044,3.488-14.509,6.604
		c-4.482,3.133-8.583,6.891-12.384,10.929c-7.592,8.116-14.016,17.364-19.588,27.059c-5.558,9.716-10.233,19.952-13.987,30.509
		c-3.729,10.556-6.584,21.468-8.094,32.53c-1.461,11.029-1.035,22.312,1.038,33.275c2.08,10.967,5.793,21.63,10.962,31.539
		c5.161,9.914,11.812,19.056,19.677,27.008c7.851,7.969,16.917,14.729,26.759,20.088l-1.562,1.196
		c-0.689-3.193-1.39-6.384-1.986-9.596c-0.323-1.601-0.605-3.209-0.878-4.819c-0.278-1.609-0.568-3.216-0.802-4.832
		c-0.519-3.224-0.947-6.461-1.371-9.698c-0.378-3.243-0.747-6.486-1.032-9.738c-0.288-3.251-0.549-6.505-0.723-9.764
		c-0.205-3.257-0.326-6.519-0.414-9.78c-0.092-3.262-0.114-6.524-0.105-9.787c0.019-3.262,0.094-6.523,0.203-9.783l0.217-4.888
		l0.293-4.883l0.369-4.877l0.444-4.871l0.52-4.863l0.595-4.854c0.43-3.231,0.892-6.458,1.414-9.676
		c0.525-3.217,1.083-6.428,1.71-9.626c0.607-3.202,1.293-6.388,2.004-9.568c1.429-6.356,3.091-12.667,4.932-18.91L459.365,74.588z"
		/>
</g>
<linearGradient id="SVGID_2_" gradientUnits="userSpaceOnUse" x1="492.5742" y1="240.0547" x2="634.3677" y2="187.3275" gradientTransform="matrix(0.9998 0.0219 -0.0219 0.9998 3.5674 -10.2591)">
	<stop  offset="0" style="stop-color:#FFFFFF;stop-opacity:0"/>
	<stop  offset="0.0525" style="stop-color:#F3F1E9;stop-opacity:0.0525"/>
	<stop  offset="0.1843" style="stop-color:#D8D2B6;stop-opacity:0.1843"/>
	<stop  offset="0.3189" style="stop-color:#C0B78A;stop-opacity:0.3189"/>
	<stop  offset="0.4536" style="stop-color:#ADA166;stop-opacity:0.4536"/>
	<stop  offset="0.5887" style="stop-color:#9E904B;stop-opacity:0.5887"/>
	<stop  offset="0.7244" style="stop-color:#938437;stop-opacity:0.7244"/>
	<stop  offset="0.861" style="stop-color:#8D7C2B;stop-opacity:0.861"/>
	<stop  offset="1" style="stop-color:#8B7A27"/>
</linearGradient>
<path fill="url(#SVGID_2_)" d="M493.739,240.521c2.493-35.051,26.417-60.073,53.201-67.482c33.837-9.36,76.272-1.963,85.796,14.313
	c1.001,1.712,1.404,3.162,1.884,4.767c6.669,22.306-41.914,59.936-60.047,67.371c-30.625,12.552-56.066-3.336-76.536-12.383"/>
<g>
	<path fill="#8B7A27" d="M588.658,201.723c-8.546,1.248-17.003,3.033-25.315,5.337c-2.079,0.575-4.146,1.189-6.206,1.824
		c-2.057,0.644-4.104,1.319-6.143,2.019c-2.034,0.71-4.06,1.448-6.073,2.213c-2.012,0.773-4.011,1.576-5.999,2.403
		c-1.983,0.84-3.957,1.702-5.916,2.596c-1.956,0.902-3.901,1.824-5.828,2.785c-1.926,0.962-3.843,1.942-5.733,2.97
		c-1.901,1.009-3.773,2.072-5.635,3.15c-1.864,1.074-3.699,2.198-5.53,3.326c-1.818,1.15-3.63,2.31-5.412,3.513
		c-1.783,1.203-3.559,2.417-5.296,3.682c-1.753,1.245-3.464,2.548-5.181,3.842l-1.886,1.421l0.156-2.36
		c0.509-7.643,2.04-15.239,4.669-22.464c2.633-7.221,6.357-14.055,11.031-20.177c9.324-12.249,22.478-21.676,37.358-26.088
		c7.391-2.172,14.981-3.462,22.619-4.121c7.641-0.641,15.334-0.621,22.98,0.091c7.641,0.735,15.26,2.117,22.627,4.6
		c3.674,1.259,7.299,2.768,10.722,4.79c3.405,2.013,6.688,4.532,9.145,8.002c0.318,0.439,0.571,0.86,0.878,1.372
		c0.12,0.22,0.223,0.38,0.357,0.649c0.126,0.254,0.273,0.527,0.376,0.768c0.453,0.986,0.789,1.997,1.075,2.922l0.21,0.683
		l0.205,0.765c0.125,0.404,0.23,1.065,0.334,1.609c0.148,1.082,0.234,2.149,0.199,3.212c-0.092,4.27-1.444,8.201-3.122,11.796
		c-3.458,7.191-8.348,13.299-13.531,18.989c-5.219,5.677-10.914,10.839-16.848,15.69c-2.972,2.42-6.015,4.752-9.134,6.986
		c-3.116,2.241-6.312,4.379-9.632,6.357c-3.333,1.965-6.71,3.871-10.513,5.32c-0.904,0.328-1.721,0.686-2.698,0.991
		c-0.951,0.302-1.907,0.65-2.855,0.908c-1.891,0.549-3.806,1.014-5.74,1.394c-7.745,1.536-15.77,1.378-23.444-0.012
		c-7.701-1.369-15.038-3.986-22.055-7.033c-7.025-3.046-13.76-6.559-20.535-9.76l-2.813-1.329l2.521-1.662
		c2.198-1.449,4.383-2.782,6.601-4.117c2.22-1.315,4.45-2.608,6.703-3.86c1.13-0.619,2.248-1.259,3.388-1.859l3.409-1.816
		c2.289-1.18,4.573-2.368,6.897-3.475c1.154-0.568,2.321-1.112,3.491-1.647c1.171-0.535,2.331-1.089,3.509-1.607l3.533-1.549
		c1.172-0.527,2.369-1.001,3.555-1.498c1.19-0.485,2.369-0.997,3.568-1.459l3.596-1.391c2.397-0.922,4.841-1.726,7.255-2.593
		l0.176,0.468c-2.35,1.026-4.722,1.988-7.045,3.065l-3.498,1.579c-1.166,0.523-2.312,1.096-3.468,1.641
		c-1.151,0.556-2.313,1.089-3.449,1.676l-3.425,1.725c-1.14,0.577-2.263,1.189-3.394,1.781c-1.132,0.593-2.259,1.194-3.373,1.818
		l-3.359,1.841l-3.335,1.88l-3.308,1.927c-1.105,0.637-2.188,1.313-3.282,1.968c-2.181,1.323-4.336,2.685-6.476,4.065
		c-2.125,1.39-4.264,2.813-6.293,4.265l-0.291-2.99c7.042,2.952,13.823,6.263,20.758,9.052c6.931,2.762,14,5.097,21.232,6.255
		c7.223,1.176,14.572,1.113,21.677-0.301c1.774-0.36,3.533-0.799,5.272-1.315c0.875-0.243,1.693-0.555,2.544-0.826
		c0.829-0.256,1.749-0.658,2.619-0.98c3.268-1.258,6.511-3.085,9.673-4.978c6.312-3.865,12.431-8.184,18.246-12.854
		c5.818-4.667,11.367-9.679,16.472-15.063c5.056-5.394,9.777-11.208,12.965-17.647c1.557-3.205,2.717-6.602,2.818-9.927
		c0.042-0.828-0.022-1.652-0.115-2.444c-0.08-0.383-0.083-0.666-0.227-1.169l-0.151-0.608l-0.195-0.676
		c-0.258-0.884-0.513-1.674-0.838-2.413c-0.078-0.196-0.159-0.338-0.236-0.511c-0.069-0.157-0.213-0.401-0.316-0.598
		c-0.178-0.298-0.402-0.696-0.639-1.023c-1.883-2.757-4.679-5.04-7.74-6.894c-3.069-1.87-6.439-3.347-9.903-4.57
		c-6.95-2.43-14.301-3.856-21.698-4.646c-7.407-0.771-14.898-0.873-22.337-0.329c-7.433,0.56-14.845,1.74-21.993,3.759
		c-14.214,4.042-26.977,12.943-36.089,24.654c-4.571,5.853-8.239,12.414-10.868,19.373c-2.646,6.956-4.243,14.308-4.847,21.749
		l-1.729-0.938c1.756-1.28,3.505-2.568,5.296-3.798c1.776-1.25,3.589-2.448,5.408-3.633c1.819-1.187,3.667-2.327,5.52-3.458
		c1.866-1.109,3.735-2.213,5.634-3.267c1.895-1.058,3.8-2.099,5.732-3.086c1.923-1.005,3.87-1.962,5.826-2.9
		c1.957-0.937,3.932-1.834,5.915-2.711c1.987-0.869,3.988-1.705,5.998-2.518c2.015-0.801,4.039-1.576,6.075-2.322
		c2.038-0.737,4.086-1.446,6.144-2.127c2.061-0.671,4.128-1.317,6.206-1.931c2.08-0.605,4.167-1.189,6.264-1.732
		c8.384-2.18,16.901-3.836,25.482-4.949L588.658,201.723z"/>
</g>
<linearGradient id="SVGID_3_" gradientUnits="userSpaceOnUse" x1="420.6035" y1="240.5908" x2="287.3605" y2="187.1509" gradientTransform="matrix(0.9998 0.0219 -0.0219 0.9998 3.5674 -10.2591)">
	<stop  offset="0" style="stop-color:#FFFFFF;stop-opacity:0"/>
	<stop  offset="0.0525" style="stop-color:#F3F1E9;stop-opacity:0.0525"/>
	<stop  offset="0.1843" style="stop-color:#D8D2B6;stop-opacity:0.1843"/>
	<stop  offset="0.3189" style="stop-color:#C0B78A;stop-opacity:0.3189"/>
	<stop  offset="0.4536" style="stop-color:#ADA166;stop-opacity:0.4536"/>
	<stop  offset="0.5887" style="stop-color:#9E904B;stop-opacity:0.5887"/>
	<stop  offset="0.7244" style="stop-color:#938437;stop-opacity:0.7244"/>
	<stop  offset="0.861" style="stop-color:#8D7C2B;stop-opacity:0.861"/>
	<stop  offset="1" style="stop-color:#8B7A27"/>
</linearGradient>
<path fill="url(#SVGID_3_)" d="M419.324,238.892c-0.956-35.128-23.76-61.174-50.193-69.75
	c-33.396-10.833-76.115-5.304-86.342,10.541c-1.075,1.666-1.542,3.097-2.092,4.68c-7.638,21.993,39.249,61.714,57.04,69.938
	c30.044,13.881,56.16-0.878,77.005-9.019"/>
<g>
	<path fill="#8B7A27" d="M326.287,195.479c8.523,1.487,16.961,3.515,25.242,6.061c2.071,0.635,4.129,1.309,6.181,2.005
		c2.049,0.704,4.087,1.44,6.116,2.201c2.025,0.771,4.04,1.569,6.044,2.395c2.001,0.834,3.989,1.698,5.968,2.586
		c1.972,0.901,3.935,1.823,5.882,2.779c1.943,0.963,3.877,1.945,5.791,2.968c1.913,1.022,3.817,2.064,5.694,3.153
		c1.888,1.071,3.745,2.194,5.592,3.334c1.85,1.136,3.669,2.32,5.485,3.51c1.801,1.212,3.597,2.432,5.363,3.697
		c1.766,1.264,3.524,2.54,5.244,3.867c1.736,1.307,3.427,2.67,5.125,4.026l-1.769,0.862c-0.278-7.46-1.551-14.875-3.89-21.94
		c-2.321-7.068-5.698-13.783-10.008-19.831c-8.591-12.1-20.952-21.552-34.974-26.212c-7.053-2.33-14.407-3.834-21.808-4.718
		c-7.408-0.869-14.896-1.096-22.331-0.65c-7.425,0.465-14.831,1.569-21.881,3.691c-3.514,1.07-6.945,2.398-10.094,4.132
		c-3.14,1.719-6.033,3.876-8.035,6.548c-0.25,0.317-0.492,0.704-0.683,0.995c-0.112,0.192-0.266,0.429-0.343,0.583
		c-0.085,0.17-0.172,0.308-0.259,0.5c-0.356,0.724-0.646,1.502-0.943,2.374l-0.226,0.667l-0.177,0.599
		c-0.165,0.497-0.18,0.779-0.277,1.159c-0.128,0.787-0.229,1.607-0.223,2.437c-0.044,3.326,0.967,6.771,2.382,10.041
		c2.902,6.573,7.364,12.588,12.179,18.198c4.863,5.603,10.188,10.853,15.796,15.771c5.604,4.92,11.529,9.502,17.666,13.641
		c3.075,2.029,6.236,3.998,9.445,5.396c0.855,0.36,1.756,0.803,2.573,1.096c0.838,0.308,1.643,0.654,2.506,0.936
		c1.714,0.593,3.452,1.107,5.209,1.546c7.037,1.724,14.376,2.107,21.644,1.249c7.276-0.84,14.44-2.863,21.486-5.318
		c7.05-2.482,13.97-5.492,21.135-8.134l-0.422,2.975c-1.964-1.539-4.038-3.054-6.1-4.537c-2.078-1.473-4.171-2.928-6.292-4.345
		c-1.064-0.702-2.116-1.425-3.192-2.11l-3.22-2.07l-3.25-2.024l-3.275-1.986c-1.086-0.673-2.185-1.323-3.29-1.964
		c-1.104-0.642-2.2-1.302-3.313-1.928l-3.345-1.874c-1.11-0.636-2.247-1.219-3.373-1.825c-1.131-0.595-2.25-1.217-3.393-1.791
		l-3.425-1.73c-2.274-1.178-4.602-2.242-6.904-3.37l0.196-0.46c2.374,0.972,4.779,1.883,7.135,2.909l3.531,1.547
		c1.178,0.515,2.333,1.078,3.501,1.614c1.163,0.548,2.337,1.074,3.485,1.652l3.462,1.703c1.153,0.57,2.289,1.174,3.435,1.76
		c1.146,0.586,2.287,1.181,3.416,1.799c2.274,1.208,4.503,2.494,6.738,3.773l3.327,1.963c1.112,0.649,2.201,1.338,3.303,2.006
		c2.196,1.349,4.367,2.739,6.527,4.15c2.157,1.43,4.281,2.858,6.414,4.401l2.447,1.771l-2.868,1.205
		c-6.91,2.901-13.791,6.114-20.943,8.851c-7.144,2.736-14.588,5.029-22.342,6.06c-7.728,1.053-15.752,0.859-23.423-1.015
		c-1.915-0.464-3.809-1.013-5.673-1.644c-0.936-0.299-1.875-0.689-2.813-1.033c-0.964-0.348-1.763-0.74-2.653-1.108
		c-3.736-1.613-7.025-3.667-10.27-5.775c-3.23-2.122-6.329-4.398-9.343-6.773c-3.019-2.37-5.957-4.833-8.819-7.381
		c-5.715-5.106-11.179-10.513-16.144-16.413c-4.929-5.911-9.546-12.228-12.687-19.563c-1.52-3.665-2.698-7.651-2.603-11.921
		c0.011-1.063,0.144-2.126,0.34-3.2c0.127-0.539,0.261-1.194,0.404-1.593l0.238-0.756l0.24-0.673
		c0.327-0.912,0.708-1.906,1.204-2.872c0.112-0.237,0.272-0.502,0.408-0.751c0.146-0.262,0.256-0.418,0.386-0.633
		c0.329-0.498,0.6-0.908,0.937-1.332c2.606-3.36,5.997-5.733,9.486-7.595c3.508-1.87,7.196-3.218,10.922-4.315
		c7.469-2.158,15.141-3.205,22.806-3.604c7.671-0.376,15.358-0.06,22.963,0.916c7.602,0.993,15.129,2.614,22.417,5.108
		c14.673,5.06,27.402,15.055,36.179,27.701c4.401,6.322,7.823,13.313,10.137,20.642c2.31,7.333,3.507,14.99,3.68,22.647l0.053,2.365
		l-1.822-1.503c-1.658-1.368-3.31-2.744-5.007-4.064c-1.681-1.341-3.401-2.631-5.13-3.911c-1.728-1.281-3.487-2.518-5.252-3.747
		c-1.78-1.207-3.564-2.411-5.38-3.565c-1.813-1.159-3.636-2.302-5.491-3.394c-1.844-1.11-3.716-2.173-5.598-3.218
		c-1.883-1.044-3.787-2.05-5.701-3.038c-1.917-0.979-3.852-1.926-5.797-2.853c-1.951-0.914-3.913-1.803-5.888-2.664
		c-1.979-0.853-3.969-1.678-5.971-2.477c-2.006-0.789-4.021-1.553-6.048-2.286c-2.03-0.725-4.068-1.429-6.12-2.094
		c-8.204-2.666-16.575-4.821-25.059-6.442L326.287,195.479z"/>
</g>
</svg>
