<?xml version="1.0" encoding="utf-8"?>
<!-- Generator: Adobe Illustrator 16.0.0, SVG Export Plug-In . SVG Version: 6.00 Build 0)  -->
<!DOCTYPE svg PUBLIC "-//W3C//DTD SVG 1.1//EN" "http://www.w3.org/Graphics/SVG/1.1/DTD/svg11.dtd">
<svg version="1.1" id="Capa_1" xmlns="http://www.w3.org/2000/svg" xmlns:xlink="http://www.w3.org/1999/xlink" x="0px" y="0px"
	 width="960px" height="560px" viewBox="0 0 960 560" enable-background="new 0 0 960 560" xml:space="preserve">
<g>
	<path fill="#FFFFFF" d="M32.736,281.834c0,0-0.677,3.159-5.187,3.159c-11.278,0-4.286-29.773,27.517-29.773
		c28.194,0,34.735,34.508,31.804,72.402c-0.226,0,2.255,0,2.255,0c18.721-37.895,41.051-72.628,60.223-72.628
		c10.826,0,13.984,9.473,13.984,23.909c0,7.218-2.031,22.78-5.188,40.374c0,0,2.255,0,2.029,0
		c20.977-39.472,46.916-77.815,67.666-77.815c6.766,0,10.15,3.833,10.15,11.277c-16.69,41.051-59.094,189.24-23.231,189.24
		c8.12,0,13.082-8.798,15.112-13.308c1.353-2.257,5.412-1.806,4.961,0c-0.676,1.579-8.796,20.751-21.653,20.751
		c-59.094,0-5.638-156.985,7.218-195.556c0.903-2.931-1.578-3.833-5.187-0.676c-34.51,32.706-64.959,107.137-71.05,124.506
		c-6.541,19.171-12.18,31.352-18.721,31.352c-3.383,0-4.736-1.354-4.736-4.737c0,0,0-0.226,0.226-0.451
		c1.804-6.541,28.194-97.663,28.194-128.34c0-7.894-1.354-11.728-5.188-11.728c-13.759,0-51.2,63.832-66.312,116.159
		c-7.895,27.293-16.917,46.69-23.91,46.69c-3.157,0-4.736-1.579-4.736-4.963c0,0,0.226-0.676,0.676-1.805
		c4.962-14.886,52.103-159.24,2.707-159.24C32.285,260.632,28.677,281.834,32.736,281.834z"/>
	<path fill="#FFFFFF" d="M270.922,410.399c17.143,0,38.344-44.434,38.344-87.966v-2.706c-10.15-6.541-16.014-17.368-16.014-21.878
		c0-2.934,4.286-8.122,8.571-8.122c6.09,0,11.955,12.858,13.984,25.038c4.061,2.706,8.572,4.737,13.533,4.737
		c4.512,0,7.218-1.806,7.218-1.806s0,8.119-8.12,8.119c-4.511,0-8.345-0.901-11.955-2.255
		c-0.451,43.081-21.653,94.958-48.042,94.958c-50.298,0-23.683-108.04,15.789-108.04c6.09,0,6.992,5.414,6.992,5.414
		C261.223,315.894,241.826,410.399,270.922,410.399z"/>
	<path fill="#FFFFFF" d="M420.69,304.39c0,0-13.759,13.984-13.759,45.563c0,1.127-0.451,1.804-1.127,1.804
		c-10.15,0-10.828-23.457-4.512-38.569c-21.878,19.172-53.23,83.68-53.23,96.762c0,1.354-1.353,2.706-3.157,2.706
		c-5.414,0-6.992-5.638-6.992-17.817c0-43.081,9.924-88.191,23.231-88.191c2.932,0,4.285,1.804,4.285,4.962
		c0,0-10.375,32.931-14.887,67.44h1.579c14.435-32.931,41.276-79.395,63.38-79.395C418.661,299.653,420.69,301.909,420.69,304.39z"
		/>
	<path fill="#FFFFFF" d="M450.688,311.607c3.609,0,5.188,2.256,5.188,5.639c0,0-20.074,51.426-20.074,95.86
		c0,2.03-1.579,3.157-3.383,3.157c-4.061,0-6.09-6.09-6.09-18.946C426.33,355.138,435.802,311.607,450.688,311.607z"/>
	<path fill="#FFFFFF" d="M530.984,319.276c-23.909,20.976-48.269,86.612-48.269,90.672c0,1.354-1.354,2.706-3.159,2.706
		c-5.413,0-7.218-5.638-7.218-17.817c0-43.081,9.925-88.191,23.458-88.191c2.706,0,4.06,1.804,4.06,4.962
		c0,0-10.375,33.607-14.887,68.342H487c11.955-29.997,32.932-71.95,56.614-71.95c8.119,0,11.504,4.286,11.504,11.053
		c0,0-14.887,45.336-14.887,82.326c0,17.817,2.706,23.907,6.992,23.907c4.736,0,6.315-4.284,8.57-4.284
		c2.256,0,1.354,2.255,1.354,2.255s-4.737,9.699-11.728,9.699c-11.73,0-18.271-18.721-18.271-44.209
		c0-28.645,6.992-57.967,9.698-68.342C537.749,317.246,534.593,316.344,530.984,319.276z"/>
	<path fill="#FFFFFF" d="M578.351,487.088c28.194,0,40.375-30.225,47.141-61.351c-32.029,0.676-50.298,14.21-62.703,31.126
		c-1.579,2.256-6.768,0.678-5.188-1.579c11.278-17.141,33.382-34.733,69.245-36.089c2.255-11.051,3.834-22.329,5.64-32.253
		c1.128-7.443,2.706-14.661,3.833-21.653h-2.48c-13.984,24.134-32.48,51.2-44.208,51.2c-39.247,0-11.053-111.422,38.569-111.422
		c12.856,0,16.465,12.404,16.465,12.404s-0.677,3.835-3.833,3.835c-3.836,0-4.513-2.482-4.513-2.482s-2.48-7.668-9.698-7.668
		c-30.224,0-50.523,97.213-34.734,97.213c11.051,0,39.922-50.748,53.906-79.395c4.06-8.344,8.12-13.758,14.209-13.758
		c3.385,0,4.737,2.029,4.737,5.414c0,0-9.021,13.308-18.044,66.536c-1.805,10.376-3.834,21.653-6.315,32.705
		c27.744,4.737,21.654,29.099,12.855,29.099c0,0,4.286-17.144-14.66-22.106c-9.022,34.059-25.036,65.411-60.223,65.411
		c-15.112,0-21.202-5.864-24.584-13.082c-1.354-2.932,4.284-4.511,5.638-1.354C561.435,482.576,566.396,487.088,578.351,487.088z"/>
	<path fill="#FFFFFF" d="M756.988,434.082c6.316,0,9.023-9.473,9.023-9.473s0.676-2.48,3.158-2.48c2.254,0,1.578,2.48,1.578,2.48
		s-5.413,17.141-14.436,17.141c-13.309,0-19.622-19.847-19.622-44.207c0-9.473,0.901-20.074,2.48-29.999h-2.256
		c-13.759,23.458-31.803,48.945-43.08,48.945c-39.247,0-11.053-111.422,38.569-111.422c12.856,0,16.465,12.404,16.465,12.404
		s-0.677,3.835-3.834,3.835c-3.835,0-4.512-2.482-4.512-2.482s-2.48-7.668-9.698-7.668c-30.224,0-50.523,97.213-34.735,97.213
		c12.181,0,45.562-62.93,52.554-76.688c4.512-9.474,9.7-16.239,15.789-16.239c2.707,0,4.285,2.029,4.285,5.188
		c0,0-18.721,39.02-18.721,89.543C749.997,428.219,752.479,434.082,756.988,434.082z"/>
</g>
<g opacity="0.8">
	<path fill="#FFFFFF" d="M779.197,393.303c-2.256,5.611-3.723,10.113-4.398,13.507c-0.677,3.396-1.015,5.462-1.015,6.199
		c0,1.626,0.265,3.176,0.789,4.649c0.528,1.478,2.144,2.214,4.849,2.214c1.354,0,2.894-0.293,4.623-0.885
		c1.727-0.589,3.722-1.916,5.976-3.985c2.256-2.065,4.85-4.982,7.781-8.747c2.932-3.764,6.35-8.891,10.261-15.389
		c0.451-0.587,1.051-0.885,1.805-0.885c1.202,0,1.804,0.664,1.804,1.992c0,0.442-0.077,0.741-0.225,0.887
		c-6.767,11.07-12.594,18.968-17.479,23.691c-4.888,4.725-9.736,7.086-14.546,7.086c-2.103,0-3.757-0.333-4.961-0.997
		c-1.201-0.665-2.143-1.475-2.819-2.436c-0.677-0.959-1.089-2.065-1.24-3.322c-0.148-1.251-0.226-2.47-0.226-3.653
		c0-2.656,0.338-5.274,1.015-7.859c0.676-2.581,1.618-5.57,2.819-8.968c5.863-18.893,12.59-36.163,20.184-51.812
		c7.591-15.645,15.335-29.039,23.228-40.186c7.894-11.145,15.523-19.818,22.892-26.017c7.364-6.2,13.757-9.3,19.17-9.3
		c1.651,0,3.343,0.333,5.073,0.996c1.726,0.666,2.594,2.104,2.594,4.318c0,1.626-0.417,3.543-1.24,5.756
		c-0.828,2.214-1.917,4.578-3.27,7.085c-1.354,2.512-2.897,5.131-4.624,7.86c-1.73,2.733-3.422,5.279-5.074,7.639
		c-5.265,7.527-11.09,15.094-17.479,22.695c-6.392,7.604-12.854,15.205-19.395,22.806c-6.54,7.604-13.005,15.205-19.395,22.806
		C790.283,378.654,784.457,386.072,779.197,393.303z M849.559,300.529c1.05-1.475,2.368-3.283,3.947-5.425
		c1.578-2.139,3.079-4.429,4.51-6.863c1.427-2.437,2.667-4.906,3.721-7.418c1.05-2.508,1.579-4.871,1.579-7.085
		c-0.304,0-1.544,0.554-3.721,1.661c-2.182,1.107-5.412,3.801-9.697,8.083c-4.285,4.282-9.736,10.593-16.352,18.93
		c-6.617,8.341-14.433,19.816-23.454,34.431c-4.813,7.677-9.133,14.835-12.967,21.478c-3.833,6.642-7.256,12.841-10.261,18.599
		c5.109-6.346,10.409-12.73,15.898-19.152c5.487-6.422,10.974-12.842,16.463-19.264c5.487-6.421,10.825-12.803,16.013-19.153
		C840.425,313.005,845.196,306.729,849.559,300.529z"/>
	<path fill="#FFFFFF" d="M842.116,389.981c0.599,0,1.163,0.332,1.691,0.996c0.524,0.665,0.485,1.294-0.114,1.883
		c-2.254,3.69-4.925,7.418-8.005,11.181c-3.084,3.764-6.278,7.196-9.584,10.296c-3.31,3.1-6.653,5.611-10.036,7.528
		c-3.382,1.92-6.5,2.879-9.358,2.879c-2.855,0-5.11-0.849-6.766-2.547c-1.652-1.695-2.48-3.875-2.48-6.531
		c0-2.803,0.789-6.051,2.367-9.742c1.579-3.688,3.534-7.491,5.863-11.403c2.333-3.909,4.885-7.784,7.668-11.625
		c2.779-3.836,5.335-7.269,7.667-10.296c2.329-3.023,4.246-5.459,5.752-7.307c1.501-1.844,2.177-2.768,2.029-2.768
		c2.255,0,3.982,0.665,5.187,1.993c1.203,1.329,1.805,2.806,1.805,4.429c0,1.92-0.828,4.207-2.481,6.862
		c-1.655,2.658-3.686,5.502-6.089,8.525c-2.407,3.027-5.074,6.165-8.006,9.41c-2.931,3.248-5.603,6.386-8.006,9.41
		c-2.403,3.027-4.434,5.868-6.089,8.524c-1.652,2.657-2.48,4.872-2.48,6.643c0,1.034,0.451,1.738,1.353,2.104
		c0.902,0.37,1.73,0.554,2.48,0.554c2.407,0,5.11-0.885,8.119-2.657c3.006-1.771,6.05-4.096,9.134-6.975
		c3.08-2.878,6.089-6.123,9.02-9.742c2.933-3.615,5.448-7.195,7.556-10.739C840.763,390.279,841.362,389.981,842.116,389.981z
		 M850.91,324.222c1.953,0,3.57,0.629,4.849,1.882c1.276,1.256,1.917,2.768,1.917,4.539c0,1.771-0.641,3.32-1.917,4.649
		c-1.278,1.328-2.896,1.993-4.849,1.993c-1.804,0-3.346-0.665-4.622-1.993c-1.278-1.329-1.917-2.879-1.917-4.649
		c0-1.771,0.639-3.283,1.917-4.539C847.564,324.851,849.106,324.222,850.91,324.222z"/>
	<path fill="#FFFFFF" d="M889.923,392.86c-1.655,2.656-4.51,3.984-8.57,3.984c-2.557,0-5.224-0.587-8.005-1.771
		c-2.784-1.18-5.451-3.244-8.006-6.199c-0.303,12.254-1.956,24.504-4.961,36.756c-3.009,12.254-6.992,23.36-11.953,33.322
		c-4.961,9.965-10.599,18.008-16.914,24.135c-6.314,6.124-12.854,9.188-19.62,9.188c-3.006,0-5.6-0.591-7.78-1.771
		c-2.178-1.183-3.27-3.691-3.27-7.527c0-4.726,1.543-10.739,4.624-18.046c3.082-7.307,6.576-14.8,10.485-22.474
		c11.429-24.355,21.312-45.536,29.656-63.545c8.344-18.009,15.634-33.396,21.874-46.166c6.238-12.766,11.615-23.249,16.125-31.442
		c4.51-8.191,8.683-14.647,12.517-19.373c3.834-4.723,7.629-7.971,11.389-9.743c3.756-1.771,7.894-2.657,12.404-2.657
		c2.555,0,4.696,0.89,6.427,2.66c1.727,1.776,2.595,4.287,2.595,7.536c0,4.878-1.996,10.898-5.977,18.063
		c-3.986,7.168-9.246,15.146-15.786,23.937c-6.542,8.794-14.135,18.178-22.779,28.15c-8.646,9.975-17.555,20.132-26.724,30.472
		c-4.211,4.734-7.894,9.242-11.051,13.524c-3.156,4.283-6.124,8.753-8.908,13.406c-2.779,4.657-5.484,9.719-8.118,15.184
		c-2.629,5.467-5.448,11.674-8.457,18.617c-1.952,3.841-3.869,7.756-5.75,11.749c-1.879,3.985-3.608,7.864-5.188,11.634
		c-1.578,3.768-2.893,7.314-3.946,10.643c-1.051,3.321-1.578,6.092-1.578,8.31c0,2.068,0.376,3.325,1.127,3.769
		c0.754,0.442,1.729,0.663,2.933,0.663c2.255,0,4.661-0.996,7.216-2.989c2.558-1.992,5.113-4.429,7.668-7.306
		c2.558-2.879,5.001-6.017,7.329-9.411c2.332-3.396,4.397-6.496,6.202-9.299c4.059-6.642,7.59-12.954,10.599-18.931
		c3.006-5.979,5.525-11.881,7.555-17.714c2.03-5.83,3.569-11.77,4.623-17.823c1.052-6.052,1.579-12.4,1.579-19.042v-3.986
		c0-1.031,0.6-1.55,1.805-1.55c0.75,0,1.353,0.37,1.804,1.108c1.805,4.726,4.32,7.936,7.555,9.63
		c3.231,1.699,6.125,2.547,8.682,2.547c2.105,0,3.571-0.517,4.397-1.55c0.826-1.031,1.692-1.55,2.595-1.55
		c0.6,0,1.05,0.222,1.353,0.664c0.3,0.444,0.451,0.886,0.451,1.328S890.072,392.715,889.923,392.86z M925.104,279.938
		c0-1.474-0.264-2.913-0.789-4.318c-0.529-1.401-1.691-2.176-3.496-2.324c-3.461-0.295-6.618,0.922-9.471,3.653
		c-2.858,2.732-5.413,6.088-7.668,10.075c-7.669,13.876-14.547,26.978-20.636,39.301c-6.089,12.326-12.516,24.245-19.282,35.758
		l-8.569,15.501c3.608-3.986,7.816-8.671,12.629-14.062c4.811-5.386,9.81-11.144,14.997-17.27
		c5.187-6.124,10.296-12.399,15.335-18.82c5.036-6.421,9.547-12.584,13.532-18.488c3.981-5.902,7.217-11.365,9.697-16.384
		C923.864,287.543,925.104,283.335,925.104,279.938z"/>
	<path fill="#FFFFFF" d="M941.789,389.981c1.354,0,2.03,0.664,2.03,1.992c0,0.442-0.077,0.741-0.227,0.887
		c-3.156,5.168-6.503,9.669-10.034,13.507c-3.534,3.839-7.104,7.05-10.713,9.631c-3.608,2.585-7.104,4.504-10.486,5.757
		c-3.383,1.255-6.505,1.883-9.358,1.883c-5.864,0-10.487-1.772-13.869-5.315c-3.384-3.543-5.074-8.116-5.074-13.728
		c0-4.723,0.979-9.556,2.931-14.502c1.953-4.944,4.547-9.445,7.78-13.507c3.231-4.059,6.914-7.38,11.051-9.965
		c4.133-2.58,8.38-3.873,12.741-3.873c3.909,0,7.478,1.106,10.713,3.32c3.231,2.214,4.849,5.684,4.849,10.407
		c0,2.805-0.641,5.611-1.917,8.412c-1.279,2.807-3.009,5.315-5.188,7.528c-2.18,2.216-4.773,4.024-7.78,5.426
		c-3.009,1.405-6.314,2.104-9.922,2.104c-1.956,0-4.099-0.257-6.427-0.775c-2.333-0.517-4.476-1.584-6.428-3.21
		c-2.107,5.313-3.157,9.669-3.157,13.063c0,3.84,0.901,6.608,2.706,8.303c1.804,1.699,3.906,2.546,6.314,2.546
		c4.809,0,10.747-2.248,17.815-6.753c7.065-4.501,13.756-11.919,20.071-22.253C940.359,390.279,940.888,389.981,941.789,389.981z
		 M927.131,373.376c0-1.475-0.303-2.841-0.902-4.097c-0.602-1.253-1.804-2.027-3.608-2.325c-2.106,0-4.284,0.739-6.54,2.214
		c-2.254,1.478-4.474,3.397-6.652,5.758c-2.181,2.361-4.249,5.058-6.202,8.081c-1.955,3.027-3.607,6.016-4.961,8.967
		c1.501,2.364,3.682,3.543,6.54,3.543c2.404,0,4.962-0.774,7.667-2.324c2.707-1.55,5.111-3.432,7.217-5.646
		c2.105-2.214,3.869-4.611,5.3-7.197C926.416,377.769,927.131,375.444,927.131,373.376z"/>
</g>
<linearGradient id="SVGID_1_" gradientUnits="userSpaceOnUse" x1="462.6489" y1="260.2798" x2="462.6489" y2="53.1671" gradientTransform="matrix(0.9998 0.0219 -0.0219 0.9998 4.2915 -10.2524)">
	<stop  offset="0" style="stop-color:#FFFFFF;stop-opacity:0"/>
	<stop  offset="0.0108" style="stop-color:#FFFFFF;stop-opacity:0.0086"/>
	<stop  offset="1" style="stop-color:#FFFFFF;stop-opacity:0.8"/>
</linearGradient>
<path fill="url(#SVGID_1_)" d="M456.356,259.332c-44.393-23.744-63.1-71.722-57.142-111.086
	c7.529-49.735,42.001-100.923,68.859-103.869c2.825-0.31,4.957,0.01,7.335,0.32c33.077,4.313,53.915,89.851,53.041,117.919
	c-1.474,47.396-37.175,73.453-60.966,94.942"/>
<g>
	<path fill="#FFFFFF" d="M461.011,110.4c-1.709,6.04-3.24,12.119-4.549,18.253c-0.651,3.066-1.278,6.139-1.829,9.225
		c-0.57,3.082-1.073,6.176-1.544,9.275c-0.468,3.099-0.879,6.206-1.258,9.316l-0.521,4.671l-0.449,4.678l-0.376,4.685l-0.304,4.689
		l-0.231,4.693l-0.157,4.695c-0.071,3.131-0.109,6.263-0.093,9.394c0.025,3.131,0.081,6.262,0.203,9.391
		c0.119,3.128,0.268,6.255,0.499,9.377c0.2,3.124,0.484,6.241,0.794,9.355c0.307,3.115,0.695,6.22,1.09,9.323
		c0.44,3.098,0.884,6.195,1.415,9.278c0.241,1.545,0.536,3.082,0.818,4.62c0.279,1.539,0.565,3.076,0.892,4.606
		c0.604,3.069,1.308,6.116,2,9.165l0.523,2.306l-2.086-1.109c-9.722-5.169-18.719-11.737-26.539-19.521
		c-7.82-7.783-14.451-16.762-19.623-26.517c-5.179-9.751-8.93-20.266-11.07-31.114c-2.132-10.845-2.645-22.041-1.269-33.052
		c1.416-10.969,4.14-21.685,7.729-32.096c3.612-10.402,8.128-20.489,13.531-30.099c5.421-9.591,11.683-18.769,19.217-26.948
		c3.782-4.068,7.867-7.911,12.466-11.188c4.584-3.252,9.729-6.038,15.548-7.19c0.737-0.155,1.428-0.239,2.234-0.337
		c0.352-0.028,0.652-0.068,1.046-0.087c0.389-0.014,0.8-0.045,1.17-0.04c1.505-0.015,2.983,0.132,4.359,0.302l1.021,0.127
		l1.091,0.178c0.627,0.077,1.48,0.319,2.221,0.491c1.444,0.429,2.854,0.926,4.181,1.582c2.679,1.269,5.106,2.928,7.298,4.79
		c2.199,1.86,4.188,3.911,6.021,6.064c3.662,4.315,6.725,9.018,9.466,13.856c2.736,4.845,5.116,9.853,7.295,14.932
		c4.327,10.172,7.745,20.669,10.593,31.302c2.794,10.648,5.103,21.431,6.377,32.436c0.316,2.752,0.567,5.52,0.715,8.313
		c0.064,1.399,0.119,2.8,0.113,4.219c0.007,0.729-0.012,1.371-0.036,2.188l-0.115,2.042l-0.115,2.042l-0.206,2.112
		c-0.139,1.415-0.281,2.829-0.514,4.205c-0.206,1.387-0.401,2.775-0.699,4.146c-0.271,1.376-0.529,2.754-0.891,4.111
		c-2.583,10.934-7.433,21.241-13.606,30.492c-6.199,9.265-13.7,17.494-21.64,25.097c-3.979,3.798-8.073,7.45-12.194,11.044
		l-12.382,10.669l-2.37,2.042l-0.483-3.013c-0.605-3.772-1.085-7.496-1.543-11.249c-0.435-3.748-0.834-7.498-1.175-11.253
		c-0.349-3.754-0.626-7.513-0.894-11.272l-0.331-5.643c-0.119-1.88-0.175-3.764-0.25-5.646c-0.077-1.882-0.14-3.765-0.165-5.648
		l-0.104-5.649l-0.005-5.649c-0.018-1.882,0.03-3.765,0.067-5.647c0.044-1.882,0.059-3.764,0.126-5.645l0.239-5.641
		c0.07-1.88,0.203-3.758,0.342-5.634l0.4-5.628l0.499,0.03l-0.142,5.632c-0.053,1.876-0.1,3.752-0.084,5.629l-0.027,5.629
		c0.001,1.875,0.055,3.752,0.08,5.627c0.031,1.875,0.052,3.75,0.139,5.625l0.21,5.621l0.309,5.616
		c0.093,1.872,0.224,3.742,0.369,5.611c0.151,1.869,0.244,3.74,0.414,5.606l0.475,5.601c0.364,3.73,0.736,7.458,1.18,11.177
		c0.436,3.72,0.928,7.432,1.457,11.137c0.549,3.694,1.128,7.412,1.808,11.045l-2.853-0.971c8.036-7.454,16.316-14.512,24.018-22.11
		c7.685-7.594,14.833-15.71,20.636-24.688c5.803-8.964,10.13-18.807,12.576-29.117c0.337-1.281,0.573-2.585,0.823-3.886
		c0.277-1.295,0.454-2.609,0.643-3.921c0.217-1.315,0.34-2.615,0.462-3.915l0.188-1.958l0.105-2.042
		c0.358-5.239-0.1-10.542-0.711-15.882c-1.32-10.659-3.43-21.293-6.146-31.746c-2.727-10.453-6.067-20.753-10.176-30.703
		c-2.076-4.962-4.343-9.84-6.93-14.518c-2.59-4.67-5.475-9.17-8.839-13.206c-3.364-4-7.231-7.632-11.736-9.81
		c-1.112-0.567-2.283-0.981-3.446-1.344l-0.836-0.213c-0.143-0.035-0.269-0.076-0.426-0.108l-0.504-0.088l-0.925-0.162l-1.008-0.137
		c-1.327-0.178-2.567-0.311-3.791-0.313c-0.312-0.009-0.581,0.014-0.874,0.017c-0.287,0.007-0.665,0.049-0.993,0.071
		c-0.546,0.066-1.212,0.135-1.811,0.26c-4.932,0.917-9.664,3.354-13.964,6.355c-4.318,3.017-8.271,6.637-11.934,10.528
		c-7.318,7.82-13.512,16.734-18.885,26.08c-5.359,9.366-9.868,19.234-13.489,29.411c-3.596,10.175-6.35,20.696-7.806,31.358
		c-1.41,10.63-1,21.506,0.995,32.074c2.004,10.571,5.582,20.851,10.563,30.403c4.973,9.557,11.384,18.371,18.965,26.038
		c7.566,7.684,16.306,14.203,25.793,19.371l-1.562,1.196c-0.664-3.081-1.339-6.158-1.914-9.256
		c-0.311-1.544-0.583-3.095-0.847-4.648c-0.268-1.552-0.547-3.102-0.772-4.661c-0.5-3.11-0.912-6.232-1.321-9.354
		c-0.364-3.128-0.719-6.256-0.993-9.393c-0.278-3.135-0.529-6.274-0.696-9.417c-0.197-3.141-0.313-6.287-0.397-9.433
		c-0.088-3.146-0.109-6.293-0.099-9.439c0.019-3.146,0.091-6.292,0.198-9.436l0.21-4.714l0.284-4.709l0.357-4.704l0.429-4.697
		l0.502-4.69l0.575-4.681c0.415-3.117,0.861-6.229,1.365-9.332c0.507-3.103,1.046-6.2,1.651-9.284
		c0.586-3.088,1.248-6.161,1.935-9.228c1.379-6.129,2.984-12.216,4.76-18.237L461.011,110.4z"/>
</g>
<linearGradient id="SVGID_2_" gradientUnits="userSpaceOnUse" x1="493.0234" y1="269.9463" x2="629.7704" y2="219.0957" gradientTransform="matrix(0.9998 0.0219 -0.0219 0.9998 4.2915 -10.2524)">
	<stop  offset="0" style="stop-color:#FFFFFF;stop-opacity:0"/>
	<stop  offset="0.0108" style="stop-color:#FFFFFF;stop-opacity:0.0086"/>
	<stop  offset="1" style="stop-color:#FFFFFF;stop-opacity:0.8"/>
</linearGradient>
<path fill="url(#SVGID_2_)" d="M494.153,270.425c2.404-33.804,25.477-57.936,51.307-65.081c32.633-9.027,73.559-1.894,82.743,13.804
	c0.966,1.651,1.354,3.05,1.817,4.598c6.431,21.512-40.423,57.803-57.91,64.973c-29.535,12.104-54.071-3.218-73.813-11.942"/>
<g>
	<path fill="#FFFFFF" d="M585.695,233.016c-8.241,1.206-16.396,2.93-24.412,5.154c-2.004,0.555-3.997,1.147-5.983,1.761
		c-1.983,0.621-3.957,1.273-5.923,1.949c-1.962,0.686-3.914,1.397-5.856,2.136c-1.938,0.747-3.866,1.521-5.784,2.319
		c-1.912,0.811-3.815,1.642-5.704,2.505c-1.885,0.871-3.762,1.76-5.619,2.687c-1.856,0.928-3.704,1.874-5.527,2.865
		c-1.833,0.974-3.638,1.999-5.433,3.04c-1.797,1.036-3.566,2.121-5.331,3.209c-1.753,1.11-3.499,2.228-5.218,3.389
		c-1.719,1.16-3.43,2.331-5.105,3.552c-1.69,1.201-3.339,2.458-4.994,3.706l-1.886,1.422l0.156-2.36
		c0.489-7.375,1.965-14.705,4.5-21.678c2.538-6.968,6.132-13.564,10.642-19.474c8.995-11.822,21.688-20.924,36.051-25.186
		c7.131-2.098,14.455-3.343,21.825-3.981c7.372-0.62,14.796-0.602,22.175,0.083c7.372,0.708,14.725,2.04,21.837,4.436
		c3.547,1.215,7.048,2.67,10.355,4.623c3.29,1.944,6.465,4.378,8.845,7.738c0.308,0.425,0.552,0.832,0.851,1.33
		c0.116,0.212,0.214,0.366,0.345,0.627c0.122,0.247,0.266,0.512,0.365,0.745c0.438,0.956,0.765,1.934,1.041,2.828l0.203,0.659
		l0.198,0.741c0.121,0.389,0.225,1.033,0.324,1.56c0.145,1.048,0.229,2.082,0.194,3.111c-0.089,4.134-1.396,7.935-3.017,11.409
		c-3.341,6.948-8.059,12.844-13.061,18.336c-5.034,5.48-10.53,10.461-16.254,15.143c-2.867,2.336-5.804,4.586-8.813,6.743
		c-3.006,2.163-6.09,4.226-9.295,6.135c-3.218,1.896-6.477,3.736-10.153,5.137c-0.873,0.317-1.658,0.661-2.604,0.956
		c-0.919,0.292-1.843,0.629-2.759,0.878c-1.826,0.53-3.676,0.979-5.544,1.345c-7.48,1.484-15.232,1.327-22.642-0.018
		c-7.436-1.323-14.516-3.853-21.284-6.795c-6.777-2.943-13.271-6.334-19.801-9.425l-2.813-1.332l2.521-1.659
		c2.123-1.397,4.23-2.682,6.371-3.967c2.143-1.267,4.295-2.513,6.469-3.719c2.169-1.213,4.362-2.382,6.559-3.541
		c2.209-1.137,4.412-2.281,6.655-3.347c1.114-0.547,2.24-1.071,3.369-1.586l3.386-1.547l3.41-1.491
		c1.131-0.508,2.285-0.964,3.43-1.441c1.148-0.467,2.286-0.959,3.443-1.405l3.469-1.337c2.313-0.886,4.671-1.659,7.001-2.493
		l0.176,0.468c-2.265,0.993-4.551,1.923-6.79,2.964l-3.372,1.526c-1.124,0.506-2.229,1.059-3.343,1.585
		c-1.11,0.538-2.229,1.053-3.325,1.62l-3.3,1.667l-3.271,1.721c-1.091,0.572-2.177,1.153-3.251,1.756l-3.237,1.777l-3.215,1.815
		c-2.13,1.234-4.254,2.476-6.352,3.76c-2.102,1.277-4.179,2.592-6.241,3.925c-2.047,1.342-4.109,2.716-6.063,4.116l-0.291-2.991
		c6.797,2.843,13.337,6.031,20.023,8.717c6.683,2.658,13.495,4.905,20.462,6.019c6.958,1.13,14.033,1.065,20.874-0.295
		c1.709-0.348,3.402-0.771,5.076-1.268c0.843-0.234,1.63-0.534,2.448-0.795c0.797-0.246,1.686-0.636,2.524-0.946
		c3.142-1.209,6.268-2.97,9.313-4.794c6.082-3.727,11.982-7.886,17.587-12.388c5.609-4.499,10.959-9.329,15.879-14.517
		c4.874-5.196,9.424-10.799,12.493-16.995c1.499-3.084,2.615-6.351,2.714-9.54c0.041-0.794-0.021-1.584-0.11-2.343
		c-0.076-0.367-0.077-0.632-0.216-1.12l-0.145-0.583l-0.189-0.651c-0.248-0.852-0.492-1.61-0.803-2.318
		c-0.075-0.188-0.152-0.323-0.226-0.488c-0.066-0.15-0.206-0.387-0.306-0.576c-0.169-0.285-0.385-0.667-0.611-0.981
		c-1.806-2.646-4.493-4.843-7.439-6.629c-2.954-1.8-6.199-3.225-9.536-4.404c-6.696-2.342-13.78-3.719-20.91-4.482
		c-7.139-0.745-14.359-0.844-21.531-0.321c-7.163,0.538-14.309,1.674-21.199,3.618c-13.695,3.891-25.996,12.466-34.781,23.751
		c-4.406,5.64-7.943,11.962-10.478,18.669c-2.553,6.704-4.094,13.79-4.678,20.962l-1.729-0.938c1.693-1.234,3.381-2.476,5.109-3.662
		c1.714-1.206,3.462-2.36,5.218-3.503c1.755-1.144,3.537-2.244,5.325-3.334c1.801-1.069,3.604-2.134,5.435-3.149
		c1.828-1.02,3.666-2.023,5.53-2.975c1.854-0.969,3.734-1.892,5.621-2.796c1.887-0.903,3.792-1.768,5.706-2.613
		c1.917-0.838,3.847-1.644,5.785-2.428c1.944-0.771,3.897-1.519,5.86-2.237c1.967-0.71,3.942-1.394,5.926-2.051
		c1.988-0.646,3.983-1.269,5.987-1.86c2.007-0.583,4.019-1.146,6.041-1.669c8.087-2.1,16.303-3.695,24.579-4.766L585.695,233.016z"
		/>
</g>
<linearGradient id="SVGID_3_" gradientUnits="userSpaceOnUse" x1="423.6152" y1="270.4644" x2="295.1143" y2="218.9263" gradientTransform="matrix(0.9998 0.0219 -0.0219 0.9998 4.2915 -10.2524)">
	<stop  offset="0" style="stop-color:#FFFFFF;stop-opacity:0"/>
	<stop  offset="0.0108" style="stop-color:#FFFFFF;stop-opacity:0.0086"/>
	<stop  offset="1" style="stop-color:#FFFFFF;stop-opacity:0.8"/>
</linearGradient>
<path fill="url(#SVGID_3_)" d="M422.386,268.854c-0.921-33.878-22.915-58.997-48.406-67.267
	c-32.208-10.448-73.406-5.115-83.269,10.166c-1.037,1.607-1.487,2.987-2.018,4.514c-7.366,21.209,37.852,59.518,55.009,67.448
	c28.976,13.387,54.161-0.847,74.264-8.698"/>
<g>
	<path fill="#FFFFFF" d="M332.662,226.977c8.221,1.432,16.359,3.385,24.347,5.838c1.998,0.612,3.983,1.262,5.962,1.932
		c1.977,0.678,3.942,1.387,5.899,2.121c1.954,0.743,3.897,1.512,5.831,2.308c1.93,0.804,3.848,1.636,5.756,2.492
		c1.902,0.869,3.795,1.758,5.674,2.679c1.875,0.928,3.74,1.875,5.586,2.861c1.845,0.986,3.682,1.99,5.493,3.04
		c1.82,1.032,3.613,2.116,5.394,3.214c1.785,1.095,3.54,2.237,5.292,3.385c1.738,1.168,3.471,2.345,5.174,3.564
		c1.704,1.218,3.4,2.449,5.06,3.728c1.674,1.26,3.306,2.575,4.944,3.882l-1.769,0.862c-0.27-7.191-1.499-14.337-3.755-21.146
		c-2.239-6.812-5.495-13.283-9.65-19.111c-8.282-11.66-20.196-20.766-33.708-25.253c-6.798-2.244-13.887-3.693-21.021-4.544
		c-7.142-0.836-14.359-1.053-21.525-0.622c-7.156,0.45-14.294,1.515-21.086,3.562c-3.385,1.032-6.689,2.313-9.719,3.981
		c-3.022,1.655-5.804,3.732-7.723,6.297c-0.24,0.303-0.473,0.676-0.654,0.953c-0.107,0.185-0.257,0.415-0.33,0.562
		c-0.081,0.163-0.164,0.293-0.247,0.478c-0.341,0.694-0.619,1.441-0.904,2.281l-0.218,0.642l-0.17,0.576
		c-0.16,0.481-0.172,0.747-0.265,1.109c-0.122,0.754-0.218,1.541-0.212,2.336c-0.042,3.191,0.93,6.504,2.293,9.65
		c2.795,6.325,7.095,12.122,11.737,17.527c4.688,5.398,9.821,10.458,15.228,15.198c5.403,4.742,11.115,9.157,17.028,13.146
		c2.963,1.956,6.009,3.853,9.095,5.199c0.824,0.347,1.695,0.774,2.48,1.055c0.806,0.297,1.58,0.631,2.412,0.901
		c1.65,0.571,3.324,1.067,5.015,1.489c6.775,1.659,13.841,2.033,20.841,1.209c7.009-0.807,13.914-2.753,20.707-5.116
		c6.797-2.39,13.471-5.289,20.386-7.832l-0.422,2.975c-1.891-1.484-3.891-2.947-5.877-4.377c-2.002-1.422-4.02-2.826-6.063-4.194
		c-2.039-1.375-4.106-2.709-6.18-4.035l-3.132-1.955l-3.157-1.917c-1.046-0.65-2.106-1.278-3.17-1.897l-3.193-1.862l-3.224-1.81
		c-1.069-0.614-2.165-1.178-3.25-1.763c-1.09-0.575-2.169-1.176-3.271-1.73l-3.301-1.672c-2.191-1.138-4.435-2.167-6.654-3.258
		l0.196-0.46c2.291,0.935,4.612,1.81,6.885,2.797l3.407,1.488c1.136,0.496,2.251,1.038,3.378,1.554
		c1.123,0.527,2.256,1.033,3.364,1.59l3.341,1.639l3.314,1.694c1.106,0.564,2.208,1.137,3.296,1.731
		c2.194,1.163,4.346,2.403,6.502,3.635c2.144,1.254,4.283,2.518,6.397,3.825c2.119,1.299,4.215,2.639,6.299,3.999
		c2.082,1.378,4.131,2.754,6.191,4.242l2.447,1.769l-2.868,1.207c-6.659,2.803-13.295,5.906-20.195,8.548
		c-6.891,2.645-14.075,4.86-21.562,5.857c-7.461,1.019-15.212,0.835-22.621-0.975c-1.85-0.448-3.679-0.978-5.48-1.587
		c-0.904-0.289-1.813-0.666-2.718-0.998c-0.932-0.336-1.701-0.714-2.56-1.069c-3.612-1.56-6.787-3.541-9.918-5.577
		c-3.118-2.047-6.108-4.244-9.017-6.536c-2.912-2.287-5.747-4.664-8.509-7.123c-5.513-4.928-10.785-10.145-15.576-15.84
		c-4.755-5.706-9.211-11.804-12.244-18.891c-1.467-3.542-2.607-7.396-2.514-11.531c0.011-1.029,0.14-2.059,0.33-3.1
		c0.123-0.522,0.254-1.162,0.392-1.544l0.23-0.732l0.232-0.649c0.315-0.88,0.685-1.843,1.165-2.779
		c0.109-0.229,0.264-0.487,0.397-0.728c0.142-0.255,0.247-0.404,0.373-0.611c0.319-0.484,0.581-0.879,0.908-1.291
		c2.524-3.252,5.803-5.545,9.175-7.343c3.389-1.806,6.951-3.106,10.548-4.165c7.21-2.082,14.614-3.09,22.011-3.475
		c7.402-0.361,14.819-0.054,22.157,0.888c7.335,0.96,14.598,2.525,21.63,4.934c14.163,4.887,26.445,14.536,34.914,26.741
		c4.246,6.102,7.547,12.848,9.778,19.921c2.228,7.077,3.38,14.465,3.545,21.854l0.053,2.365l-1.822-1.504
		c-1.598-1.319-3.19-2.647-4.827-3.92c-1.62-1.293-3.279-2.539-4.945-3.772c-1.666-1.235-3.362-2.429-5.064-3.615
		c-1.716-1.165-3.436-2.325-5.186-3.439c-1.748-1.119-3.506-2.222-5.294-3.275c-1.778-1.07-3.583-2.096-5.397-3.105
		c-1.815-1.008-3.651-1.978-5.496-2.93c-1.849-0.945-3.714-1.859-5.589-2.753c-1.881-0.882-3.772-1.74-5.677-2.571
		c-1.908-0.823-3.827-1.619-5.757-2.39c-1.934-0.762-3.877-1.5-5.832-2.207c-1.958-0.7-3.923-1.379-5.9-2.021
		c-7.911-2.573-15.982-4.654-24.164-6.219L332.662,226.977z"/>
</g>
</svg>
